rangeen3s.sfdir
StartChar: exclam
Encoding: 33 33 0
Width: 185
Flags: HW
HStem: 102 136<36.3432 102.518>
VStem: 31 71<289.812 841.883> 34 71<104.656 235.344>
LayerCount: 2
Fore
SplineSet
25 812 m 2xc0
 25 832 40 848 60 848 c 0
 79 848 96 832 96 813 c 2
 102 323 l 2
 102 303 86 287 66 287 c 0
 47 287 31 303 31 322 c 2
 25 812 l 2xc0
34 203 m 2xa0
 34 223 49 238 69 238 c 0
 89 238 105 223 105 203 c 2
 105 137 l 2
 105 117 89 102 69 102 c 0
 49 102 34 117 34 137 c 2
 34 203 l 2xa0
EndSplineSet
EndChar
StartChar: quotedbl
Encoding: 34 34 1
Width: 286
Flags: HW
HStem: 581 183<30.8008 93.316 137.801 200.316>
VStem: 25 71<583.656 760.296> 132 71<583.656 760.296>
LayerCount: 2
Fore
SplineSet
170 764 m 0
 190 764 206 749 206 729 c 0
 206 728 l 2
 203 615 l 2
 202 596 186 581 167 581 c 0
 147 581 132 596 132 616 c 0
 132 617 l 2
 135 730 l 2
 136 749 151 764 170 764 c 0
63 764 m 0
 83 764 99 749 99 729 c 0
 99 728 l 2
 96 615 l 2
 95 596 79 581 60 581 c 0
 40 581 25 596 25 616 c 0
 25 617 l 2
 28 730 l 2
 29 749 44 764 63 764 c 0
EndSplineSet
EndChar
StartChar: numbersign
Encoding: 35 35 2
Width: 510
Flags: HW
LayerCount: 2
Fore
SplineSet
24.9951171875 230.004882812 m 0
 18.595703125 230.004882812 12.1953125 232.444335938 7.3173828125 237.322265625 c 0
 2.439453125 242.200195312 0 248.600585938 0 255 c 0
 0 261.399414062 2.439453125 267.799804688 7.3173828125 272.677734375 c 0
 12.0556640625 277.416015625 18.2294921875 279.852539062 24.443359375 279.989257812 c 2
 435.443359375 288.989257812 l 2
 435.627929688 288.993164062 435.811523438 288.995117188 435.995117188 288.995117188 c 0
 442.39453125 288.995117188 448.794921875 286.555664062 453.672851562 281.677734375 c 0
 458.55078125 276.799804688 460.990234375 270.399414062 460.990234375 264 c 0
 460.990234375 257.600585938 458.55078125 251.200195312 453.672851562 246.322265625 c 0
 448.934570312 241.583984375 442.760742188 239.147460938 436.546875 239.010742188 c 2
 25.546875 230.010742188 l 2
 25.3623046875 230.006835938 25.1787109375 230.004882812 24.9951171875 230.004882812 c 0
24.9951171875 430.004882812 m 0
 18.595703125 430.004882812 12.1953125 432.444335938 7.3173828125 437.322265625 c 0
 2.439453125 442.200195312 0 448.600585938 0 455 c 0
 0 461.399414062 2.439453125 467.799804688 7.3173828125 472.677734375 c 0
 12.0556640625 477.416015625 18.2294921875 479.852539062 24.443359375 479.989257812 c 2
 435.443359375 488.989257812 l 2
 435.627929688 488.993164062 435.811523438 488.995117188 435.995117188 488.995117188 c 0
 442.39453125 488.995117188 448.794921875 486.555664062 453.672851562 481.677734375 c 0
 458.55078125 476.799804688 460.990234375 470.399414062 460.990234375 464 c 0
 460.990234375 457.600585938 458.55078125 451.200195312 453.672851562 446.322265625 c 0
 448.934570312 441.583984375 442.760742188 439.147460938 436.546875 439.010742188 c 2
 25.546875 430.010742188 l 2
 25.3623046875 430.006835938 25.1787109375 430.004882812 24.9951171875 430.004882812 c 0
348.995117188 566.995117188 m 0
 355.39453125 566.995117188 361.794921875 564.555664062 366.672851562 559.677734375 c 0
 371.55078125 554.799804688 373.990234375 548.399414062 373.990234375 542 c 0
 373.990234375 540.720703125 373.892578125 539.44140625 373.698242188 538.173828125 c 2
 319.698242188 187.173828125 l 2
 317.9296875 175.68359375 307.345703125 166.004882812 294.995117188 166.004882812 c 0
 288.595703125 166.004882812 282.1953125 168.444335938 277.317382812 173.322265625 c 0
 272.439453125 178.200195312 270 184.600585938 270 191 c 0
 270 192.279296875 270.09765625 193.55859375 270.291992188 194.826171875 c 2
 324.291992188 545.826171875 l 2
 326.060546875 557.31640625 336.64453125 566.995117188 348.995117188 566.995117188 c 0
147.995117188 566.995117188 m 0
 154.39453125 566.995117188 160.794921875 564.555664062 165.672851562 559.677734375 c 0
 170.55078125 554.799804688 172.990234375 548.399414062 172.990234375 542 c 0
 172.990234375 540.720703125 172.892578125 539.44140625 172.698242188 538.173828125 c 2
 118.698242188 187.173828125 l 2
 116.9296875 175.68359375 106.345703125 166.004882812 93.9951171875 166.004882812 c 0
 87.595703125 166.004882812 81.1953125 168.444335938 76.3173828125 173.322265625 c 0
 71.439453125 178.200195312 69 184.600585938 69 191 c 0
 69 192.279296875 69.09765625 193.55859375 69.2919921875 194.826171875 c 2
 123.291992188 545.826171875 l 2
 125.060546875 557.31640625 135.64453125 566.995117188 147.995117188 566.995117188 c 0
EndSplineSet
EndChar
StartChar: dollar
Encoding: 36 36 3
Width: 351
Flags: HW
LayerCount: 2
Fore
SplineSet
220.990234375 635 m 0
 220.990234375 628.600585938 218.55078125 622.200195312 213.672851562 617.322265625 c 0
 208.794921875 612.444335938 202.39453125 610.004882812 195.995117188 610.004882812 c 0
 191.821289062 610.004882812 187.647460938 611.041992188 183.895507812 613.1171875 c 0
 176.137695312 617.407226562 169.759765625 622.267578125 163.990234375 627.3984375 c 1
 163.990234375 611 l 2
 163.990234375 604.600585938 161.55078125 598.200195312 156.672851562 593.322265625 c 0
 151.794921875 588.444335938 145.39453125 586.004882812 138.995117188 586.004882812 c 0
 132.595703125 586.004882812 126.1953125 588.444335938 121.317382812 593.322265625 c 0
 116.439453125 598.200195312 114 604.600585938 114 611 c 2
 114 644.233398438 l 1
 109.234375 640.858398438 104.756835938 637.059570312 100.587890625 632.891601562 c 0
 78.2822265625 610.5859375 65.62890625 578.078125 65.62890625 546.63671875 c 0
 65.62890625 534.9765625 67.369140625 523.462890625 71.001953125 512.670898438 c 1
 88.2080078125 492.629882812 106.796875 477.0625 128.588867188 458.157226562 c 0
 168.461914062 423.565429688 212.668945312 386.002929688 236.109375 335.020507812 c 0
 245.80859375 313.92578125 251.470703125 290.58984375 251.470703125 265.37109375 c 0
 251.470703125 247.047851562 248.481445312 227.73046875 241.881835938 207.555664062 c 1
 240.696289062 182.140625 229.901367188 160.92578125 214.505859375 145.53125 c 0
 193.697265625 124.72265625 166.215820312 114.252929688 140.6484375 109.438476562 c 0
 137.348632812 108.817382812 134.131835938 108.291015625 130.990234375 107.862304688 c 2
 130.990234375 -1 l 2
 130.990234375 -7.3994140625 128.55078125 -13.7998046875 123.672851562 -18.677734375 c 0
 118.794921875 -23.5556640625 112.39453125 -25.9951171875 105.995117188 -25.9951171875 c 0
 99.595703125 -25.9951171875 93.1953125 -23.5556640625 88.3173828125 -18.677734375 c 0
 83.439453125 -13.7998046875 81 -7.3994140625 81 -1 c 2
 81 111.725585938 l 1
 63.1484375 118.306640625 51.1376953125 129.790039062 39.8046875 140.0078125 c 0
 34.853515625 144.471679688 29.818359375 149.004882812 24.14453125 153.665039062 c 0
 20.24609375 156.8671875 17.2431640625 161.498046875 15.9150390625 166.279296875 c 2
 0.9150390625 220.279296875 l 2
 0.3046875 222.474609375 0 224.737304688 0 227 c 0
 0 233.399414062 2.439453125 239.799804688 7.3173828125 244.677734375 c 0
 12.1953125 249.555664062 18.595703125 251.995117188 24.9951171875 251.995117188 c 0
 36.3349609375 251.995117188 46.29296875 243.736328125 49.0751953125 233.720703125 c 2
 62.013671875 187.142578125 l 2
 66.1708984375 183.5625 69.8916015625 180.204101562 73.2587890625 177.168945312 c 0
 76.1220703125 174.586914062 78.677734375 172.3203125 81 170.331054688 c 1
 81 203 l 2
 81 209.399414062 83.439453125 215.799804688 88.3173828125 220.677734375 c 0
 93.1953125 225.555664062 99.595703125 227.995117188 105.995117188 227.995117188 c 0
 112.39453125 227.995117188 118.794921875 225.555664062 123.672851562 220.677734375 c 0
 128.55078125 215.799804688 130.990234375 209.399414062 130.990234375 203 c 2
 130.990234375 158.49609375 l 1
 131.107421875 158.517578125 131.224609375 158.5390625 131.341796875 158.561523438 c 0
 150.26953125 162.125 168.490234375 170.2265625 179.150390625 180.88671875 c 0
 187.25390625 188.990234375 191.958007812 198.33203125 192 212.077148438 c 0
 192.008789062 214.83984375 192.471679688 217.6015625 193.388671875 220.239257812 c 0
 199.208984375 236.971679688 201.776367188 251.94140625 201.776367188 265.749023438 c 0
 201.776367188 283.342773438 197.607421875 299.048828125 190.68359375 314.106445312 c 0
 171.850585938 355.067382812 130.348632812 390.434570312 95.85546875 420.358398438 c 0
 72.4326171875 440.678710938 49.1416015625 460.44921875 29.6650390625 484.143554688 c 0
 27.931640625 486.252929688 26.595703125 488.581054688 25.6572265625 491.026367188 c 0
 18.705078125 509.159179688 15.4150390625 528.231445312 15.4150390625 547.265625 c 0
 15.4150390625 592.0703125 33.64453125 636.658203125 65.232421875 668.247070312 c 0
 78.9560546875 681.969726562 95.3427734375 693.303710938 114 700.97265625 c 1
 114 803 l 2
 114 809.399414062 116.439453125 815.799804688 121.317382812 820.677734375 c 0
 126.1953125 825.555664062 132.595703125 827.995117188 138.995117188 827.995117188 c 0
 145.39453125 827.995117188 151.794921875 825.555664062 156.672851562 820.677734375 c 0
 161.55078125 815.799804688 163.990234375 809.399414062 163.990234375 803 c 2
 163.990234375 696.796875 l 1
 172.827148438 689.956054688 179.608398438 681.951171875 187.373046875 674.186523438 c 0
 195.162109375 666.396484375 202.45703125 660 208.094726562 656.8828125 c 0
 215.412109375 652.834960938 220.990234375 644.09765625 220.990234375 635 c 0
EndSplineSet
EndChar
StartChar: percent
Encoding: 37 37 4
Width: 501
Flags: HW
LayerCount: 2
Fore
SplineSet
300 317 m 0
 300 343.064453125 309.524414062 366.938476562 326.234375 383.6484375 c 0
 338.999023438 396.413085938 356.373046875 404.995117188 375.995117188 404.995117188 c 0
 395.616210938 404.995117188 412.991210938 396.413085938 425.755859375 383.6484375 c 0
 442.465820312 366.938476562 451.990234375 343.064453125 451.990234375 317 c 0
 451.990234375 290.935546875 442.465820312 267.061523438 425.755859375 250.3515625 c 0
 412.991210938 237.586914062 395.616210938 229.004882812 375.995117188 229.004882812 c 0
 356.373046875 229.004882812 338.999023438 237.586914062 326.234375 250.3515625 c 0
 309.524414062 267.061523438 300 290.935546875 300 317 c 0
349.990234375 317 m 0
 349.990234375 303.356445312 355.266601562 292.029296875 361.588867188 285.70703125 c 0
 366.395507812 280.900390625 371.3828125 278.995117188 375.995117188 278.995117188 c 0
 380.607421875 278.995117188 385.594726562 280.900390625 390.401367188 285.70703125 c 0
 396.72265625 292.029296875 402 303.356445312 402 317 c 0
 402 330.643554688 396.72265625 341.970703125 390.401367188 348.29296875 c 0
 385.594726562 353.099609375 380.607421875 355.004882812 375.995117188 355.004882812 c 0
 371.3828125 355.004882812 366.395507812 353.099609375 361.588867188 348.29296875 c 0
 355.266601562 341.970703125 349.990234375 330.643554688 349.990234375 317 c 0
0 617 m 0
 0 643.064453125 9.5244140625 666.938476562 26.234375 683.6484375 c 0
 38.9990234375 696.413085938 56.373046875 704.995117188 75.9951171875 704.995117188 c 0
 95.6162109375 704.995117188 112.991210938 696.413085938 125.755859375 683.6484375 c 0
 142.465820312 666.938476562 151.990234375 643.064453125 151.990234375 617 c 0
 151.990234375 590.935546875 142.465820312 567.061523438 125.755859375 550.3515625 c 0
 112.991210938 537.586914062 95.6162109375 529.004882812 75.9951171875 529.004882812 c 0
 56.373046875 529.004882812 38.9990234375 537.586914062 26.234375 550.3515625 c 0
 9.5244140625 567.061523438 0 590.935546875 0 617 c 0
49.990234375 617 m 0
 49.990234375 603.356445312 55.2666015625 592.029296875 61.5888671875 585.70703125 c 0
 66.3955078125 580.900390625 71.3828125 578.995117188 75.9951171875 578.995117188 c 0
 80.607421875 578.995117188 85.5947265625 580.900390625 90.4013671875 585.70703125 c 0
 96.72265625 592.029296875 102 603.356445312 102 617 c 0
 102 630.643554688 96.72265625 641.970703125 90.4013671875 648.29296875 c 0
 85.5947265625 653.099609375 80.607421875 655.004882812 75.9951171875 655.004882812 c 0
 71.3828125 655.004882812 66.3955078125 653.099609375 61.5888671875 648.29296875 c 0
 55.2666015625 641.970703125 49.990234375 630.643554688 49.990234375 617 c 0
366.995117188 671.995117188 m 0
 373.39453125 671.995117188 379.794921875 669.555664062 384.672851562 664.677734375 c 0
 389.55078125 659.799804688 391.990234375 653.399414062 391.990234375 647 c 0
 391.990234375 641.930664062 390.459960938 636.861328125 387.3984375 632.547851562 c 2
 57.3984375 167.547851562 l 2
 52.9765625 161.31640625 44.970703125 157.004882812 36.9951171875 157.004882812 c 0
 30.595703125 157.004882812 24.1953125 159.444335938 19.3173828125 164.322265625 c 0
 14.439453125 169.200195312 12 175.600585938 12 182 c 0
 12 187.069335938 13.5302734375 192.138671875 16.591796875 196.452148438 c 2
 346.591796875 661.452148438 l 2
 351.013671875 667.68359375 359.01953125 671.995117188 366.995117188 671.995117188 c 0
EndSplineSet
EndChar
StartChar: ampersand
Encoding: 38 38 5
Width: 455
Flags: HW
HStem: 63 70<108.338 241.756> 717 70<174.377 215.46>
VStem: 25 71<149.951 296.321> 79 71<424.078 644> 224 71<470.057 715.203> 304 71<196.227 304.344>
LayerCount: 2
Fore
SplineSet
165 423 m 1xdc
 168 426 171 429 174 432 c 0
 203 464 224 500 224 547 c 0
 224 552 224 557 223 563 c 0
 222 569 222 580 222 593 c 0
 222 628 222 682 210 717 c 1
 193 717 182 713 174 707 c 1
 150 644 l 1
 150 491 l 1
 160 469 159 446 165 423 c 1xdc
339 307 m 0
 359 307 375 292 375 272 c 0
 375 240 349 174 315 133 c 1
 360 67 l 2
 363 62 365 57 365 51 c 0
 365 35 352 22 336 22 c 0
 326 22 317 26 312 34 c 0
 299 53 286 72 273 91 c 1
 270 87 l 2
 255 72 238 63 222 63 c 0
 163 63 116 68 88 96 c 2
 52 131 l 2
 34 149 25 175 25 215 c 0xec
 25 275 56 316 93 353 c 2
 116 376 l 1
 112 385 107 393 103 401 c 0
 87 429 92 461 79 491 c 1
 79 644 l 1
 106 713 l 1
 141 748 l 2
 144 750 147 752 149 754 c 2
 166 771 l 2
 175 780 186 787 210 787 c 0
 218 787 225 785 231 779 c 2
 266 743 l 2
 292 717 293 640 293 593 c 0
 293 580 293 569 294 563 c 0
 295 557 295 552 295 547 c 0
 295 491 265 452 229 416 c 0
 215 402 201 388 187 374 c 1
 210 324 229 260 258 218 c 2
 279 187 l 1
 295 219 304 252 304 272 c 0
 304 292 319 307 339 307 c 0
137 324 m 1
 113 294 96 259 96 215 c 0
 96 188 100 168 108 152 c 1
 136 137 176 133 222 133 c 0
 228 133 236 135 242 138 c 1
 187 218 l 2
 167 247 152 286 137 324 c 1
EndSplineSet
EndChar
StartChar: quotesingle
Encoding: 39 39 6
Width: 179
Flags: HW
HStem: 581 183<30.8008 93.316>
VStem: 25 71<583.656 760.296>
LayerCount: 2
Fore
SplineSet
63 764 m 0
 83 764 99 749 99 729 c 0
 99 728 l 2
 96 615 l 2
 95 596 79 581 60 581 c 0
 40 581 25 596 25 616 c 0
 25 617 l 2
 28 730 l 2
 29 749 44 764 63 764 c 0
EndSplineSet
EndChar
StartChar: parenleft
Encoding: 40 40 7
Width: 230
Flags: HW
VStem: 25 71<230.495 703.505>
LayerCount: 2
Fore
SplineSet
96 467 m 0
 96 244 110 54 131 -18 c 1
 142 -24 150 -36 150 -49 c 0
 150 -69 134 -84 114 -84 c 0
 112 -84 111 -84 109 -82 c 2
 73 -46 l 2
 46 -19 25 200 25 467 c 0
 25 734 46 953 73 980 c 2
 109 1016 l 2
 111 1018 112 1018 114 1018 c 0
 134 1018 150 1003 150 983 c 0
 150 970 142 958 131 952 c 1
 110 880 96 690 96 467 c 0
EndSplineSet
EndChar
StartChar: parenright
Encoding: 41 41 8
Width: 203
Flags: HW
LayerCount: 2
Fore
SplineSet
24.9951171875 -73.9951171875 m 0
 18.595703125 -73.9951171875 12.1953125 -71.5556640625 7.3173828125 -66.677734375 c 0
 2.439453125 -61.7998046875 0 -55.3994140625 0 -49 c 0
 0 -39.4580078125 6.0625 -30.4814453125 13.873046875 -26.6044921875 c 1
 16.1845703125 -21.3046875 l 1
 24.4521484375 0.6318359375 33.8466796875 54.55859375 40.521484375 126.421875 c 0
 48.888671875 216.509765625 54 336.032226562 54 467 c 0
 54 614.325195312 47.5185546875 747.219726562 37.23828125 839.923828125 c 0
 32.6767578125 881.065429688 27.30859375 914.352539062 21.791015625 936.5703125 c 0
 18.8818359375 948.284179688 15.501953125 956.782226562 13.7412109375 960.670898438 c 0
 5.9990234375 964.5703125 0 973.515625 0 983 c 0
 0 989.399414062 2.439453125 995.799804688 7.3173828125 1000.67773438 c 0
 12.1953125 1005.55566406 18.595703125 1007.99511719 24.9951171875 1007.99511719 c 0
 35.80078125 1007.99511719 43.7294921875 1002.51074219 48.4150390625 997.825195312 c 0
 54.5107421875 991.729492188 57.72265625 985.421875 60.6845703125 978.615234375 c 0
 64.3994140625 970.077148438 67.4287109375 960.247070312 70.30078125 948.682617188 c 0
 76.7392578125 922.7578125 82.208984375 887.97265625 86.921875 845.47265625 c 0
 97.51171875 749.98046875 103.990234375 615.854492188 103.990234375 467 c 0
 103.990234375 318.145507812 97.51171875 184.01953125 86.921875 88.52734375 c 0
 82.208984375 46.02734375 76.7392578125 11.2421875 70.30078125 -14.6826171875 c 0
 67.4287109375 -26.2470703125 64.3994140625 -36.0771484375 60.6845703125 -44.615234375 c 0
 57.72265625 -51.421875 54.5107421875 -57.7294921875 48.4150390625 -63.8251953125 c 0
 43.7294921875 -68.5107421875 35.80078125 -73.9951171875 24.9951171875 -73.9951171875 c 0
EndSplineSet
EndChar
StartChar: asterisk
Encoding: 42 42 9
Width: 422
Flags: HW
VStem: 150 70<256.482 646.084>
LayerCount: 2
Fore
SplineSet
314 611 m 0
 328 611 340 600 340 586 c 0
 340 579 336 573 332 568 c 2
 71 301 l 2
 66 296 60 293 53 293 c 0
 39 293 27 304 27 318 c 0
 27 325 31 331 35 336 c 2
 296 603 l 2
 301 608 307 611 314 611 c 0
50 608 m 0
 57 608 63 604 68 600 c 2
 334 340 l 2
 339 335 342 329 342 322 c 0
 342 308 331 296 317 296 c 0
 310 296 304 300 299 304 c 2
 33 564 l 2
 28 569 25 575 25 582 c 0
 25 596 36 608 50 608 c 0
147 614 m 2
 147 634 162 650 182 650 c 0
 201 650 217 634 217 615 c 2
 220 290 l 2
 220 270 205 254 185 254 c 0
 166 254 150 270 150 289 c 2
 147 614 l 2
EndSplineSet
EndChar
StartChar: plus
Encoding: 43 43 10
Width: 455
Flags: HW
HStem: 376 70<27.3432 372.518>
VStem: 156 71<240.656 586.344>
LayerCount: 2
Fore
SplineSet
156 554 m 2
 156 574 171 589 191 589 c 0
 211 589 227 574 227 554 c 2
 227 273 l 2
 227 253 211 238 191 238 c 0
 171 238 156 253 156 273 c 2
 156 554 l 2
60 376 m 2
 40 376 25 391 25 411 c 0
 25 431 40 446 60 446 c 2
 339 446 l 2
 359 446 375 431 375 411 c 0
 375 391 359 376 339 376 c 2
 60 376 l 2
EndSplineSet
EndChar
StartChar: comma
Encoding: 44 44 11
Width: 185
Flags: HW
LayerCount: 2
Fore
SplineSet
27 26 m 0
 27 32.3994140625 29.439453125 38.7998046875 34.3173828125 43.677734375 c 0
 39.1953125 48.5556640625 45.595703125 50.9951171875 51.9951171875 50.9951171875 c 0
 61.91015625 50.9951171875 71.095703125 44.4853515625 74.791015625 36.2734375 c 0
 78.103515625 28.9130859375 85.990234375 8.0693359375 85.990234375 -7 c 0
 85.990234375 -22.73046875 79.7822265625 -35.359375 73.55078125 -45.486328125 c 0
 65.6171875 -58.3779296875 56.0986328125 -68.6376953125 49.462890625 -75.2734375 c 0
 44.875 -79.861328125 41.6591796875 -82.6435546875 41.2919921875 -82.9599609375 c 0
 36.619140625 -86.9833984375 30.806640625 -88.9951171875 24.9951171875 -88.9951171875 c 0
 18.595703125 -88.9951171875 12.1953125 -86.5556640625 7.3173828125 -81.677734375 c 0
 2.439453125 -76.7998046875 0 -70.3994140625 0 -64 c 0
 0 -56.9228515625 3.25 -49.732421875 8.6982421875 -45.0400390625 c 0
 15.583984375 -39.111328125 25.0224609375 -28.9248046875 30.947265625 -19.2978515625 c 0
 34.7890625 -13.0537109375 36 -7.9609375 36 -7 c 0
 36 -6.1142578125 35.0302734375 -0.51171875 33.4384765625 4.462890625 c 0
 31.3056640625 11.1279296875 29.19921875 15.7265625 29.19921875 15.7265625 c 2
 27.7333984375 18.9833984375 27 22.4921875 27 26 c 0
EndSplineSet
EndChar
StartChar: hyphen
Encoding: 45 45 12
Width: 524
Flags: HW
HStem: 376 70<27.3432 441.518>
LayerCount: 2
Fore
SplineSet
60 376 m 2
 40 376 25 391 25 411 c 0
 25 431 40 446 60 446 c 2
 408 446 l 2
 428 446 444 431 444 411 c 0
 444 391 428 376 408 376 c 2
 60 376 l 2
EndSplineSet
EndChar
StartChar: period
Encoding: 46 46 13
Width: 176
Flags: HW
HStem: -6 70
VStem: 25 71
LayerCount: 2
Fore
SplineSet
96 29 m 1
 60 -6 l 1
 25 29 l 1
 60 64 l 1
 96 29 l 1
EndSplineSet
EndChar
StartChar: slash
Encoding: 47 47 14
Width: 380
Flags: HW
LayerCount: 2
Fore
SplineSet
24.9951171875 82.0048828125 m 0
 18.595703125 82.0048828125 12.1953125 84.4443359375 7.3173828125 89.322265625 c 0
 2.439453125 94.2001953125 0 100.600585938 0 107 c 0
 0 110.260742188 0.6337890625 113.522460938 1.900390625 116.58203125 c 2
 232.900390625 674.58203125 l 2
 236.4453125 683.146484375 245.782226562 689.995117188 255.995117188 689.995117188 c 0
 262.39453125 689.995117188 268.794921875 687.555664062 273.672851562 682.677734375 c 0
 278.55078125 677.799804688 280.990234375 671.399414062 280.990234375 665 c 0
 280.990234375 661.739257812 280.356445312 658.477539062 279.08984375 655.41796875 c 2
 48.08984375 97.41796875 l 2
 44.544921875 88.853515625 35.2080078125 82.0048828125 24.9951171875 82.0048828125 c 0
EndSplineSet
EndChar
StartChar: zero
Encoding: 48 48 15
Width: 243
Flags: HW
LayerCount: 2
Fore
SplineSet
0 205 m 0
 0 255.54296875 6.2587890625 302.044921875 17.2958984375 339.637695312 c 0
 26.0927734375 369.594726562 37.587890625 394.60546875 54.9013671875 411.918945312 c 0
 65.548828125 422.56640625 79.841796875 430.995117188 96.9951171875 430.995117188 c 0
 114.1484375 430.995117188 128.44140625 422.56640625 139.088867188 411.918945312 c 0
 156.40234375 394.60546875 167.897460938 369.594726562 176.694335938 339.637695312 c 0
 187.731445312 302.044921875 193.990234375 255.54296875 193.990234375 205 c 0
 193.990234375 154.45703125 187.731445312 107.955078125 176.694335938 70.3623046875 c 0
 167.897460938 40.4052734375 156.40234375 15.39453125 139.088867188 -1.9189453125 c 0
 128.44140625 -12.56640625 114.1484375 -20.9951171875 96.9951171875 -20.9951171875 c 0
 79.841796875 -20.9951171875 65.548828125 -12.56640625 54.9013671875 -1.9189453125 c 0
 37.587890625 15.39453125 26.0927734375 40.4052734375 17.2958984375 70.3623046875 c 0
 6.2587890625 107.955078125 0 154.45703125 0 205 c 0
49.990234375 205 m 0
 49.990234375 158.684570312 55.9150390625 116.322265625 65.255859375 84.5078125 c 0
 72.763671875 58.939453125 82.8173828125 40.8759765625 90.2568359375 33.4365234375 c 0
 94.41015625 29.283203125 96.37890625 28.9873046875 96.8701171875 28.9873046875 c 0
 96.951171875 28.9873046875 96.9921875 28.9951171875 96.9951171875 28.9951171875 c 0
 97.0146484375 28.9951171875 99.2919921875 28.9951171875 103.733398438 33.4365234375 c 0
 111.172851562 40.8759765625 121.2265625 58.939453125 128.734375 84.5078125 c 0
 138.075195312 116.322265625 144 158.684570312 144 205 c 0
 144 251.315429688 138.075195312 293.677734375 128.734375 325.4921875 c 0
 121.2265625 351.060546875 111.172851562 369.124023438 103.733398438 376.563476562 c 0
 99.580078125 380.716796875 97.611328125 381.012695312 97.1201171875 381.012695312 c 0
 97.0390625 381.012695312 96.998046875 381.004882812 96.9951171875 381.004882812 c 0
 96.9755859375 381.004882812 94.6982421875 381.004882812 90.2568359375 376.563476562 c 0
 82.8173828125 369.124023438 72.763671875 351.060546875 65.255859375 325.4921875 c 0
 55.9150390625 293.677734375 49.990234375 251.315429688 49.990234375 205 c 0
EndSplineSet
EndChar
StartChar: one
Encoding: 49 49 16
Width: 308
Flags: HW
LayerCount: 2
Fore
SplineSet
24.9951171875 -24.9951171875 m 2
 18.595703125 -24.9951171875 12.1953125 -22.5556640625 7.3173828125 -17.677734375 c 0
 2.439453125 -12.7998046875 0 -6.3994140625 0 0 c 0
 0 6.3994140625 2.439453125 12.7998046875 7.3173828125 17.677734375 c 0
 12.1953125 22.5556640625 18.595703125 24.9951171875 24.9951171875 24.9951171875 c 2
 80 24.9951171875 l 1
 80 351.326171875 l 1
 59.5283203125 331.178710938 l 2
 54.66796875 326.396484375 48.33203125 324.004882812 41.9951171875 324.004882812 c 0
 35.595703125 324.004882812 29.1953125 326.444335938 24.3173828125 331.322265625 c 0
 19.439453125 336.200195312 17 342.600585938 17 349 c 0
 17 355.399414062 19.3994140625 361.838867188 24.31640625 366.678710938 c 2
 87.4619140625 428.821289062 l 2
 92.322265625 433.603515625 98.658203125 435.995117188 104.995117188 435.995117188 c 0
 111.39453125 435.995117188 117.794921875 433.555664062 122.672851562 428.677734375 c 0
 127.55078125 423.799804688 129.990234375 417.399414062 129.990234375 411 c 2
 129.990234375 24.9951171875 l 1
 183.995117188 24.9951171875 l 2
 190.39453125 24.9951171875 196.794921875 22.5556640625 201.672851562 17.677734375 c 0
 206.55078125 12.7998046875 208.990234375 6.3994140625 208.990234375 0 c 0
 208.990234375 -6.3994140625 206.55078125 -12.7998046875 201.672851562 -17.677734375 c 0
 196.794921875 -22.5556640625 190.39453125 -24.9951171875 183.995117188 -24.9951171875 c 2
 104.995117188 -24.9951171875 l 1
 24.9951171875 -24.9951171875 l 2
EndSplineSet
EndChar
StartChar: two
Encoding: 50 50 17
Width: 442
Flags: HW
HStem: -35 70<163 358.657> 376 70<152.917 270.722>
VStem: 291 71<207.827 362.903>
LayerCount: 2
Fore
SplineSet
291 280 m 0
 291 308 281 344 268 366 c 1
 256 372 243 376 228 376 c 0
 182 376 155 356 125 334 c 0
 109 322 92 310 71 299 c 0
 67 297 62 295 57 295 c 0
 40 295 25 310 25 327 c 0
 25 339 32 350 42 355 c 2
 71 369 l 2
 92 380 109 392 125 404 c 0
 155 426 182 446 228 446 c 0
 252 446 272 437 287 422 c 2
 322 386 l 2
 334 374 343 360 349 343 c 0
 357 321 362 300 362 280 c 0
 362 252 353 226 334 199 c 0
 318 177 303 158 287 142 c 2
 251 107 l 2
 223 79 194 57 163 35 c 1
 326 35 l 2
 346 35 361 20 361 0 c 0
 361 -20 346 -35 326 -35 c 2
 71 -35 l 1
 71 35 l 1
 103 63 131 84 159 104 c 0
 185 122 209 139 233 160 c 0
 243 172 253 185 263 199 c 0
 282 226 291 252 291 280 c 0
EndSplineSet
EndChar
StartChar: three
Encoding: 51 51 18
Width: 428
Flags: HW
LayerCount: 2
Fore
SplineSet
378.2421875 -78.6376953125 m 0
 378.2421875 -98.3486328125 374.451171875 -118.684570312 366.202148438 -139.305664062 c 0
 360.469726562 -153.638671875 352.33984375 -165.892578125 342.369140625 -175.864257812 c 0
 308.008789062 -210.223632812 258.299804688 -215.015625 213.752929688 -215.015625 c 0
 160.0234375 -215.015625 121.793945312 -199.322265625 84.671875 -184.079101562 c 0
 63.8798828125 -175.541992188 43.0478515625 -167.017578125 18.224609375 -160.06640625 c 0
 8.236328125 -157.26953125 0 -147.326171875 0 -136 c 0
 0 -129.600585938 2.439453125 -123.200195312 7.3173828125 -118.322265625 c 0
 12.1953125 -113.444335938 18.595703125 -111.004882812 24.9951171875 -111.004882812 c 0
 27.275390625 -111.004882812 29.5546875 -111.314453125 31.765625 -111.93359375 c 0
 59.8291015625 -119.791015625 82.93359375 -129.306640625 103.703125 -137.834960938 c 0
 141.184570312 -153.224609375 169.921875 -165.02734375 213.5234375 -165.02734375 c 0
 255.268554688 -165.02734375 289.590820312 -157.931640625 307.013671875 -140.508789062 c 0
 312.095703125 -135.42578125 316.405273438 -129.150390625 319.788085938 -120.694335938 c 0
 325.782226562 -105.70703125 328.486328125 -92.013671875 328.486328125 -78.8125 c 0
 328.486328125 -67.236328125 326.407226562 -56.0380859375 322.64453125 -44.6787109375 c 0
 316.146484375 -25.0615234375 304.002929688 -4.6982421875 287.305664062 16.5908203125 c 0
 279.986328125 25.798828125 272.790039062 33.8056640625 265.45703125 41.138671875 c 0
 235.19921875 71.396484375 203.611328125 88.759765625 165.58203125 109.462890625 c 0
 140.723632812 122.995117188 113.383789062 137.852539062 83.7412109375 158.45703125 c 0
 77.4169921875 162.853515625 73 170.92578125 73 179 c 0
 73 185.118164062 75.2294921875 191.236328125 79.6875 196.025390625 c 2
 256.565429688 386.004882812 l 1
 25.9951171875 386.004882812 l 2
 19.595703125 386.004882812 13.1953125 388.444335938 8.3173828125 393.322265625 c 0
 3.439453125 398.200195312 1 404.600585938 1 411 c 0
 1 417.399414062 3.439453125 423.799804688 8.3173828125 428.677734375 c 0
 13.1953125 433.555664062 19.595703125 435.995117188 25.9951171875 435.995117188 c 2
 313.995117188 435.995117188 l 2
 320.39453125 435.995117188 326.794921875 433.555664062 331.672851562 428.677734375 c 0
 336.55078125 423.799804688 338.990234375 417.399414062 338.990234375 411 c 0
 338.990234375 404.881835938 336.760742188 398.763671875 332.302734375 393.974609375 c 2
 136.4765625 183.643554688 l 1
 195.774414062 146.849609375 248.2890625 129.017578125 300.8125 76.494140625 c 0
 328.637695312 48.66796875 357.28125 9.7822265625 370.094726562 -28.9013671875 c 0
 375.380859375 -44.8603515625 378.2421875 -61.513671875 378.2421875 -78.6376953125 c 0
EndSplineSet
EndChar
StartChar: four
Encoding: 52 52 19
Width: 419
Flags: HW
LayerCount: 2
Fore
SplineSet
240.995117188 435.995117188 m 0
 247.39453125 435.995117188 253.794921875 433.555664062 258.672851562 428.677734375 c 0
 263.55078125 423.799804688 265.990234375 417.399414062 265.990234375 411 c 0
 265.990234375 406.998046875 265.036132812 402.99609375 263.12890625 399.366210938 c 2
 66.37890625 24.9951171875 l 1
 344.995117188 24.9951171875 l 2
 351.39453125 24.9951171875 357.794921875 22.5556640625 362.672851562 17.677734375 c 0
 367.55078125 12.7998046875 369.990234375 6.3994140625 369.990234375 0 c 0
 369.990234375 -6.3994140625 367.55078125 -12.7998046875 362.672851562 -17.677734375 c 0
 357.794921875 -22.5556640625 351.39453125 -24.9951171875 344.995117188 -24.9951171875 c 2
 24.9951171875 -24.9951171875 l 2
 18.595703125 -24.9951171875 12.1953125 -22.5556640625 7.3173828125 -17.677734375 c 0
 2.439453125 -12.7998046875 0 -6.3994140625 0 0 c 0
 0 4.001953125 0.9541015625 8.00390625 2.861328125 11.6337890625 c 2
 218.861328125 422.633789062 l 2
 222.830078125 430.184570312 231.682617188 435.995117188 240.995117188 435.995117188 c 0
265.990234375 -205 m 2
 265.990234375 -211.399414062 263.55078125 -217.799804688 258.672851562 -222.677734375 c 0
 253.794921875 -227.555664062 247.39453125 -229.995117188 240.995117188 -229.995117188 c 0
 234.595703125 -229.995117188 228.1953125 -227.555664062 223.317382812 -222.677734375 c 0
 218.439453125 -217.799804688 216 -211.399414062 216 -205 c 2
 216 411 l 2
 216 417.399414062 218.439453125 423.799804688 223.317382812 428.677734375 c 0
 228.1953125 433.555664062 234.595703125 435.995117188 240.995117188 435.995117188 c 0
 247.39453125 435.995117188 253.794921875 433.555664062 258.672851562 428.677734375 c 0
 263.55078125 423.799804688 265.990234375 417.399414062 265.990234375 411 c 2
 265.990234375 -205 l 2
264 -199 m 0
 264 -192.600585938 266.439453125 -186.200195312 271.317382812 -181.322265625 c 0
 276.1953125 -176.444335938 282.595703125 -174.004882812 288.995117188 -174.004882812 c 0
 295.39453125 -174.004882812 301.794921875 -176.444335938 306.672851562 -181.322265625 c 0
 311.55078125 -186.200195312 313.990234375 -192.600585938 313.990234375 -199 c 0
 313.990234375 -205.399414062 311.55078125 -211.799804688 306.672851562 -216.677734375 c 0
 301.794921875 -221.555664062 295.39453125 -223.995117188 288.995117188 -223.995117188 c 0
 282.595703125 -223.995117188 276.1953125 -221.555664062 271.317382812 -216.677734375 c 0
 266.439453125 -211.799804688 264 -205.399414062 264 -199 c 0
EndSplineSet
EndChar
StartChar: five
Encoding: 53 53 20
Width: 546
Flags: HW
HStem: -246 71<121.283 296.123> 171 71<141.697 323.337> 376 70<137 463.657>
VStem: 72 69<224 376> 378 70<-115.158 76.411>
LayerCount: 2
Fore
SplineSet
141 224 m 1
 175 230 211 242 247 242 c 0
 266 242 284 238 305 229 c 0
 321 222 334 214 345 203 c 2
 380 167 l 2
 408 139 419 101 433 56 c 0
 442 25 448 -2 448 -28 c 0
 448 -53 443 -78 430 -106 c 0
 423 -123 414 -135 403 -146 c 2
 368 -181 l 2
 347 -202 320 -214 287 -228 c 0
 259 -240 236 -246 210 -246 c 0
 195 -246 179 -243 161 -240 c 0
 135 -235 119 -223 102 -209 c 0
 93 -202 83 -193 71 -186 c 2
 40 -168 l 2
 31 -163 25 -153 25 -142 c 0
 25 -125 38 -111 55 -111 c 0
 61 -111 66 -113 71 -116 c 0
 83 -123 93 -131 102 -138 c 0
 119 -152 135 -165 161 -170 c 0
 179 -173 195 -175 210 -175 c 0
 236 -175 259 -170 287 -158 c 0
 310 -148 331 -139 348 -127 c 0
 352 -121 357 -114 360 -106 c 0
 373 -78 378 -53 378 -28 c 0
 378 -2 372 26 362 57 c 0
 351 92 342 123 325 148 c 0
 319 152 313 156 305 159 c 0
 284 168 266 171 247 171 c 0
 225 171 203 166 180 161 c 0
 158 156 134 151 107 150 c 1
 72 185 l 1
 66 411 l 1
 101 446 l 1
 431 446 l 2
 451 446 466 431 466 411 c 0
 466 391 451 376 431 376 c 2
 137 376 l 1
 141 224 l 1
EndSplineSet
EndChar
StartChar: six
Encoding: 54 54 21
Width: 325
Flags: HW
LayerCount: 2
Fore
SplineSet
73.728515625 330 m 0
 73.728515625 336.399414062 76.16796875 342.799804688 81.0458984375 347.677734375 c 0
 85.9248046875 352.555664062 92.32421875 354.995117188 98.7236328125 354.995117188 c 0
 100.890625 354.995117188 103.057617188 354.715820312 105.166015625 354.15625 c 0
 122.306640625 349.608398438 144.5 342.984375 163.272460938 324.2109375 c 0
 187.80078125 299.68359375 200.71875 260.412109375 200.71875 197 c 0
 200.71875 145.126953125 194.07421875 97.3154296875 182.52734375 58.6767578125 c 0
 173.322265625 27.8740234375 161.33203125 2.2275390625 143.65625 -15.447265625 c 0
 132.752929688 -26.3515625 118.211914062 -34.9951171875 100.723632812 -34.9951171875 c 0
 84.0556640625 -34.9951171875 70.02734375 -26.9365234375 59.7236328125 -16.6318359375 c 0
 42.0107421875 1.080078125 31.0478515625 26.7890625 22.185546875 57.45703125 c 0
 11.0498046875 95.9970703125 3.93359375 143.76171875 0.775390625 195.46484375 c 0
 0.2529296875 204.026367188 0 212.5234375 0 220.956054688 c 0
 0 350.041015625 59.1611328125 464.139648438 112.517578125 568.734375 c 0
 136.864257812 616.459960938 160.275390625 662.473632812 177.39453125 706.995117188 c 0
 180.803710938 715.861328125 190.26953125 722.995117188 200.723632812 722.995117188 c 0
 207.123046875 722.995117188 213.5234375 720.555664062 218.401367188 715.677734375 c 0
 223.279296875 710.799804688 225.71875 704.399414062 225.71875 698 c 0
 225.71875 694.946289062 225.1640625 691.892578125 224.052734375 689.004882812 c 0
 205.625976562 641.081054688 181.41015625 593.73046875 157.0625 546.000976562 c 0
 103.211914062 440.438476562 50.0068359375 334.260742188 50.0068359375 220.448242188 c 0
 50.0068359375 213.17578125 50.2236328125 205.872070312 50.671875 198.53515625 c 0
 53.66015625 149.62890625 60.5458984375 104.828125 70.2060546875 71.396484375 c 0
 77.98046875 44.4873046875 88.001953125 25.7998046875 95.078125 18.7236328125 c 0
 98.806640625 14.9951171875 100.64453125 14.9951171875 100.731445312 14.9951171875 c 0
 100.962890625 14.9951171875 103.418945312 15.025390625 108.30078125 19.908203125 c 0
 116.241210938 27.84765625 126.749023438 46.6591796875 134.635742188 73.052734375 c 0
 144.455078125 105.909179688 150.728515625 149.495117188 150.728515625 197 c 0
 150.728515625 254.610351562 138.690429688 278.083007812 127.91796875 288.856445312 c 0
 119.37890625 297.39453125 108.068359375 301.655273438 92.2822265625 305.84375 c 0
 82.123046875 308.5390625 73.728515625 318.553710938 73.728515625 330 c 0
EndSplineSet
EndChar
StartChar: seven
Encoding: 55 55 22
Width: 361
Flags: HW
HStem: 376 70<28.4822 200>
VStem: 25 66<-239.962 -194.27>
LayerCount: 2
Fore
SplineSet
62 376 m 2
 42 376 26 391 26 411 c 0
 26 431 42 446 62 446 c 2
 246 446 l 1
 281 411 l 1
 91 -218 l 2
 87 -232 74 -242 59 -242 c 0
 40 -242 25 -227 25 -208 c 0
 25 -205 25 -201 26 -198 c 2
 200 376 l 1
 62 376 l 2
EndSplineSet
EndChar
StartChar: eight
Encoding: 56 56 23
Width: 292
Flags: HW
HStem: -35 21G<115 121>
VStem: 25 71<41.6546 346.345 429.655 734.345> 141 71<41.6546 346.345 429.655 734.345>
LayerCount: 2
Fore
SplineSet
25 582 m 0
 25 670 42 744 66 768 c 2
 102 803 l 2
 107 808 112 811 118 811 c 0
 124 811 130 808 135 803 c 2
 170 768 l 2
 194 744 212 670 212 582 c 0
 212 494 194 420 170 396 c 2
 135 361 l 2
 130 356 124 353 118 353 c 0
 112 353 107 356 102 361 c 2
 66 396 l 2
 42 420 25 494 25 582 c 0
118 736 m 5
 104 701 96 645 96 582 c 4
 96 519 104 463 118 428 c 5
 132 463 141 519 141 582 c 4
 141 645 132 701 118 736 c 5
25 194 m 0
 25 282 42 356 66 380 c 2
 102 415 l 2
 107 420 112 423 118 423 c 0
 124 423 130 420 135 415 c 2
 170 380 l 2
 194 356 212 282 212 194 c 0
 212 106 194 32 170 8 c 2
 135 -27 l 2
 130 -32 124 -35 118 -35 c 0
 112 -35 107 -32 102 -27 c 2
 66 8 l 2
 42 32 25 106 25 194 c 0
141 194 m 0
 141 257 132 313 118 348 c 1
 104 313 96 257 96 194 c 0
 96 131 104 75 118 40 c 1
 132 75 141 131 141 194 c 0
EndSplineSet
EndChar
StartChar: nine
Encoding: 57 57 24
Width: 333
Flags: HW
VStem: 25 71<153.18 344.097> 45 64<-242.975 -223> 182 71<149.113 316.875>
LayerCount: 2
Fore
SplineSet
25 198 m 0xa0
 25 287 46 364 75 393 c 2
 110 428 l 2
 118 436 126 441 135 441 c 0
 143 441 152 436 159 429 c 2
 194 394 l 2
 223 365 245 284 252 194 c 0
 253 183 253 173 253 163 c 0
 253 63 213 -10 173 -84 c 0
 153 -121 133 -159 118 -200 c 2
 109 -223 l 2
 104 -236 92 -245 78 -245 c 0
 60 -245 45 -229 45 -211 c 0x60
 45 -207 46 -204 47 -200 c 0
 82 -105 146 -28 171 75 c 1
 138 77 104 75 81 98 c 2
 46 133 l 2
 33 146 25 166 25 198 c 0xa0
182 163 m 0
 182 173 182 183 181 194 c 0
 175 266 161 331 141 369 c 0
 139 369 137 370 135 370 c 0
 133 370 131 370 129 369 c 0
 109 332 96 269 96 198 c 0xa0
 96 180 99 166 103 155 c 1
 121 148 142 147 160 146 c 0
 168 146 175 146 182 145 c 1
 182 151 182 157 182 163 c 0
EndSplineSet
EndChar
StartChar: colon
Encoding: 58 58 25
Width: 149
Flags: HW
LayerCount: 2
Fore
SplineSet
0 439 m 0
 0 445.399414062 2.439453125 451.799804688 7.3173828125 456.677734375 c 0
 12.1953125 461.555664062 18.595703125 463.995117188 24.9951171875 463.995117188 c 0
 31.39453125 463.995117188 37.794921875 461.555664062 42.6728515625 456.677734375 c 0
 47.55078125 451.799804688 49.990234375 445.399414062 49.990234375 439 c 0
 49.990234375 432.600585938 47.55078125 426.200195312 42.6728515625 421.322265625 c 0
 37.794921875 416.444335938 31.39453125 414.004882812 24.9951171875 414.004882812 c 0
 18.595703125 414.004882812 12.1953125 416.444335938 7.3173828125 421.322265625 c 0
 2.439453125 426.200195312 0 432.600585938 0 439 c 0
0 29 m 0
 0 35.3994140625 2.439453125 41.7998046875 7.3173828125 46.677734375 c 0
 12.1953125 51.5556640625 18.595703125 53.9951171875 24.9951171875 53.9951171875 c 0
 31.39453125 53.9951171875 37.794921875 51.5556640625 42.6728515625 46.677734375 c 0
 47.55078125 41.7998046875 49.990234375 35.3994140625 49.990234375 29 c 0
 49.990234375 22.6005859375 47.55078125 16.2001953125 42.6728515625 11.322265625 c 0
 37.794921875 6.4443359375 31.39453125 4.0048828125 24.9951171875 4.0048828125 c 0
 18.595703125 4.0048828125 12.1953125 6.4443359375 7.3173828125 11.322265625 c 0
 2.439453125 16.2001953125 0 22.6005859375 0 29 c 0
EndSplineSet
EndChar
StartChar: semicolon
Encoding: 59 59 26
Width: 221
Flags: HW
VStem: 58 62<52 69.5781> 70 71<-47.0868 46.6436>
LayerCount: 2
Fore
SplineSet
58 39 m 0x80
 58 57 72 71 90 71 c 0
 103 71 115 63 120 52 c 2x80
 132 26 l 1
 132 26 141 6 141 -7 c 0
 141 -26 121 -48 111 -58 c 2
 76 -93 l 2
 72 -97 69 -99 69 -99 c 0
 64 -103 59 -106 52 -106 c 0
 37 -106 25 -94 25 -79 c 0
 25 -71 28 -64 34 -59 c 2
 56 -40 l 1
 64 -30 70 -18 70 -7 c 0x40
 70 6 61 26 61 26 c 2
 59 30 58 34 58 39 c 0x80
106 388 m 1
 71 353 l 1
 35 388 l 1
 71 423 l 1
 106 388 l 1
EndSplineSet
EndChar
StartChar: less
Encoding: 60 60 54
Width: 429
Flags: HW
LayerCount: 2
Fore
SplineSet
25 401.198242188 m 0
 25 412.643554688 39.58203125 434.999023438 61.845703125 456.310546875 c 2
 295.845703125 680.310546875 l 1
 349.223632812 624.549804688 l 1
 127.259765625 412.071289062 l 1
 335.807617188 191.310546875 l 1
 274.568359375 133.459960938 l 1
 26.8466796875 395.69140625 l 2
 25.5966796875 397.014648438 25 398.883789062 25 401.198242188 c 0
EndSplineSet
EndChar
StartChar: equal
Encoding: 61 61 55
Width: 469
Flags: HW
LayerCount: 2
Fore
SplineSet
25 326.689453125 m 1
 25 417.310546875 l 1
 389.961914062 417.310546875 l 1
 389.961914062 326.689453125 l 1
 25 326.689453125 l 1
25 426.689453125 m 1
 25 517.310546875 l 1
 389.961914062 517.310546875 l 1
 389.961914062 426.689453125 l 1
 25 426.689453125 l 1
EndSplineSet
EndChar
StartChar: greater
Encoding: 62 62 56
Width: 383
Flags: HW
LayerCount: 2
Fore
SplineSet
0 635 m 0
 0 641.399414062 2.439453125 647.799804688 7.3173828125 652.677734375 c 0
 12.1953125 657.555664062 18.595703125 659.995117188 24.9951171875 659.995117188 c 0
 31.22265625 659.995117188 37.4501953125 657.685546875 42.2763671875 653.06640625 c 2
 276.276367188 429.06640625 l 2
 281.314453125 424.2421875 283.990234375 417.591796875 283.990234375 411 c 0
 283.990234375 404.82421875 281.71875 398.649414062 277.176757812 393.840820312 c 2
 55.1767578125 158.840820312 l 2
 50.3701171875 153.752929688 43.6455078125 151.004882812 36.9951171875 151.004882812 c 0
 30.595703125 151.004882812 24.1953125 153.444335938 19.3173828125 158.322265625 c 0
 14.439453125 163.200195312 12 169.600585938 12 176 c 0
 12 182.17578125 14.271484375 188.350585938 18.8134765625 193.159179688 c 2
 223.766601562 410.114257812 l 1
 7.7138671875 616.93359375 l 2
 2.67578125 621.7578125 0 628.408203125 0 635 c 0
EndSplineSet
EndChar
StartChar: question
Encoding: 63 63 57
Width: 397
VWidth: 1000
Flags: HW
LayerCount: 2
Fore
SplineSet
185.961914062 354.689453125 m 1
 185.961914062 196.689453125 l 1
 99 196.689453125 l 1
 99 384.689453125 l 2
 99 418.147460938 114.682617188 445.310546875 134 445.310546875 c 2
 223.217773438 445.310546875 l 1
 228.551757812 461.856445312 231.01953125 477.49609375 231.01953125 492.357421875 c 0
 231.01953125 528.234375 216.633789062 559.569335938 193.45703125 588.127929688 c 1
 183.380859375 591.16796875 173.216796875 592.688476562 162.962890625 592.688476562 c 0
 146.201171875 592.688476562 129.201171875 588.626953125 111.961914062 580.504882812 c 1
 111.961914062 554.689453125 l 1
 25 554.689453125 l 1
 25 588.689453125 l 2
 25 609.732421875 38.0849609375 632.395507812 60.01953125 649.344726562 c 0
 89.3408203125 672.000976562 117.989257812 683.322265625 145.97265625 683.322265625 c 0
 165.294921875 683.322265625 184.299804688 677.924804688 202.990234375 667.133789062 c 2
 254.952148438 637.133789062 l 2
 263.352539062 632.283203125 271.689453125 626.342773438 279.961914062 619.310546875 c 0
 303.40625 590.6015625 317.981445312 559.091796875 317.981445312 522.978515625 c 0
 317.981445312 495.486328125 309.533203125 465.326171875 290.122070312 431.704101562 c 2
 255.122070312 371.08203125 l 2
 252.018554688 365.70703125 248.635742188 360.244140625 244.961914062 354.689453125 c 1
 185.961914062 354.689453125 l 1
103 92.689453125 m 1
 103 117.563476562 103 142.436523438 103 167.310546875 c 1
 189.961914062 167.310546875 l 1
 189.961914062 142.436523438 189.961914062 117.563476562 189.961914062 92.689453125 c 1
 103 92.689453125 l 1
EndSplineSet
EndChar
StartChar: at
Encoding: 64 64 53
Width: 809
Flags: HW
LayerCount: 2
Fore
SplineSet
231.961914062 191.310546875 m 0
 231.961914062 135.307617188 254.7265625 94.2763671875 289.204101562 66.171875 c 1
 321.5078125 53.302734375 357.702148438 47.310546875 393 47.310546875 c 0
 406.151367188 47.310546875 417.1796875 50.7666015625 426.3359375 56.7255859375 c 1
 428.866210938 69.162109375 430 82.150390625 430 94.689453125 c 0
 430 114.709960938 431.704101562 126.33203125 434.834960938 131.75390625 c 2
 469.834960938 192.375976562 l 2
 471.330078125 194.965820312 473.151367188 196.141601562 475.267578125 196.141601562 c 0
 476.655273438 196.141601562 478.169921875 195.63671875 479.801757812 194.693359375 c 2
 531.763671875 164.693359375 l 2
 539.75390625 160.080078125 550.578125 144.989257812 563.236328125 127.341796875 c 0
 573.560546875 112.948242188 585.103515625 96.8544921875 597.323242188 83.3583984375 c 1
 613.633789062 83.8330078125 626.704101562 87.8251953125 637.1640625 94.607421875 c 1
 641.8203125 117.03515625 643 142.946289062 643 169.689453125 c 0
 643 255.530273438 595.2578125 334.858398438 525.538085938 385.00390625 c 1
 490.436523438 400.786132812 452.14453125 409.689453125 412.961914062 409.689453125 c 0
 361.806640625 409.689453125 315.30078125 404.754882812 274.298828125 394.314453125 c 1
 291.700195312 391.706054688 307.150390625 384.291992188 321.850585938 375.805664062 c 2
 365.799804688 350.430664062 l 1
 377.35546875 344.991210938 389.216796875 341.310546875 402 341.310546875 c 2
 418.961914062 341.310546875 l 1
 418.961914062 250.689453125 l 1
 400.75 250.689453125 384.412109375 258.158203125 368.16015625 267.541015625 c 2
 323.497070312 293.328125 l 1
 309.571289062 299.97265625 294.69140625 304.689453125 277.961914062 304.689453125 c 0
 261.807617188 304.689453125 248.8671875 300.703125 238.501953125 293.815429688 c 1
 232.521484375 266.610351562 231.923828125 235.909179688 231.923828125 209.84375 c 0
 231.923828125 203.591796875 231.961914062 197.41015625 231.961914062 191.310546875 c 0
144.962890625 179.221679688 m 0
 144.962890625 218.271484375 146.303710938 267.723632812 165.076171875 300.23828125 c 2
 200.076171875 360.860351562 l 2
 201.666015625 363.614257812 203.381835938 366.247070312 205.231445312 368.7421875 c 1
 175.938476562 353.70703125 151.139648438 334.3046875 131.38671875 310.16796875 c 1
 118.651367188 277.245117188 111.961914062 238.76953125 111.961914062 194.310546875 c 0
 111.961914062 78.5458984375 163.796875 -40.619140625 250.3203125 -105.081054688 c 1
 278.4609375 -117.040039062 309.153320312 -123.689453125 342 -123.689453125 c 2
 342 -123.689453125 512 -126.689453125 621 -126.689453125 c 0
 628.865234375 -126.689453125 636.365234375 -124.950195312 643 -121.8046875 c 1
 643 -93.689453125 l 1
 660.5546875 -93.689453125 l 1
 670.362304688 -76.7021484375 l 2
 672.05859375 -73.763671875 674.94140625 -71.6142578125 676.637695312 -68.67578125 c 1
 662.196289062 -93.689453125 l 1
 729.961914062 -93.689453125 l 1
 729.961914062 -95.654296875 729.418945312 -97.2568359375 728.599609375 -98.67578125 c 2
 720.9609375 -111.90625 l 1
 720.923828125 -119.840820312 718.8359375 -127.119140625 715.2109375 -133.397460938 c 2
 680.2109375 -194.01953125 l 2
 672.009765625 -208.223632812 655.942382812 -217.310546875 637.961914062 -217.310546875 c 0
 528.961914062 -217.310546875 358.961914062 -214.310546875 358.961914062 -214.310546875 c 2
 315.446289062 -214.310546875 275.712890625 -202.640625 240.682617188 -182.416015625 c 2
 188.720703125 -152.416015625 l 2
 87.0615234375 -93.72265625 25 37.017578125 25 163.689453125 c 0
 25 223.473632812 37.0966796875 272.439453125 59.7236328125 311.630859375 c 2
 94.7236328125 372.252929688 l 2
 146.4140625 461.782226562 253.059570312 500.310546875 396 500.310546875 c 0
 445.358398438 500.310546875 493.302734375 486.184570312 535.237304688 461.97265625 c 2
 587.19921875 431.97265625 l 2
 670.41015625 383.930664062 729.961914062 296.182617188 729.961914062 200.310546875 c 0
 729.961914062 156.963867188 726.862304688 115.799804688 710.880859375 88.1171875 c 2
 675.880859375 27.49609375 l 2
 663.495117188 6.0439453125 643.373046875 -7.310546875 610.961914062 -7.310546875 c 0
 603.884765625 -7.310546875 596.8046875 -4.94921875 589.807617188 -0.9091796875 c 2
 537.845703125 29.0908203125 l 2
 526.400390625 35.69921875 515.17578125 46.7978515625 504.551757812 59.396484375 c 1
 503.165039062 56.3037109375 501.650390625 53.3173828125 500.001953125 50.4619140625 c 2
 465.001953125 -10.16015625 l 2
 453.658203125 -29.8076171875 435.958984375 -43.310546875 409.961914062 -43.310546875 c 0
 364.107421875 -43.310546875 316.743164062 -33.19921875 278.356445312 -11.0361328125 c 2
 226.39453125 18.9638671875 l 2
 178.795898438 46.4443359375 145 92.4541015625 145 160.689453125 c 0
 145 166.79296875 144.962890625 172.965820312 144.962890625 179.221679688 c 0
EndSplineSet
EndChar
StartChar: A
Encoding: 65 65 27
Width: 456
Flags: HW
LayerCount: 2
Fore
SplineSet
99.3779296875 457.811523438 m 1
 98.998046875 468.625976562 98.7890625 479.791015625 98.7890625 490.704101562 c 0
 98.7890625 593.673828125 144.08203125 693.57421875 210.375976562 768.685546875 c 0
 218.01953125 777.345703125 234.669921875 795.35546875 246.509765625 803.806640625 c 0
 252.750976562 808.260742188 259.571289062 812.995117188 270.995117188 812.995117188 c 0
 278.538085938 812.995117188 285.849609375 809.40625 290.248046875 805.008789062 c 0
 295.943359375 799.313476562 297.208007812 794.23828125 298.040039062 790.98046875 c 0
 299.375 785.75390625 299.373046875 783.088867188 299.373046875 778.913085938 c 0
 299.373046875 776.895507812 299.291015625 775.126953125 299.1875 773.690429688 c 0
 311.451171875 690.374023438 326.287109375 609.630859375 340.607421875 528.37109375 c 0
 340.663085938 528.055664062 340.712890625 527.739257812 340.756835938 527.421875 c 2
 361.756835938 374.421875 l 2
 361.86328125 373.641601562 361.93359375 372.856445312 361.967773438 372.0703125 c 2
 367.943359375 231.6328125 l 1
 371.534179688 190.39453125 371.772460938 148.889648438 376.555664062 109.091796875 c 0
 382.9921875 87.08203125 389.024414062 65.1171875 394.110351562 41.7568359375 c 0
 399.829101562 25.0556640625 403.24609375 13.505859375 405.12890625 4.93359375 c 0
 406.11328125 0.4521484375 406.817382812 -3.1923828125 406.817382812 -8.2861328125 c 0
 406.817382812 -9.912109375 406.689453125 -11.861328125 406.083007812 -14.5556640625 c 0
 405.461914062 -17.3134765625 404.362304688 -22.0859375 399.071289062 -27.376953125 c 0
 394.58984375 -31.859375 387.427734375 -34.849609375 380.854492188 -34.849609375 c 0
 365.481445312 -34.849609375 358.491210938 -23.5634765625 353.95703125 -15.029296875 c 0
 351.439453125 -10.2900390625 348.977539062 -4.76953125 346.505859375 1.5927734375 c 0
 341.340820312 14.8896484375 336.202148438 31.658203125 333.68359375 49.1826171875 c 1
 316.459960938 89.6552734375 317.61328125 127.068359375 307.260742188 167.922851562 c 1
 288.459960938 212.622070312 279.033203125 266.443359375 255.765625 303.7890625 c 0
 255.286132812 304.55859375 254.852539062 305.34765625 254.46484375 306.154296875 c 0
 235.357421875 345.8828125 198.060546875 369.267578125 155.618164062 386.659179688 c 1
 159.671875 353.838867188 164.37890625 321.095703125 168.588867188 287.805664062 c 0
 172.192382812 259.318359375 176.295898438 228.469726562 176.295898438 197.379882812 c 0
 176.295898438 182.381835938 175.340820312 167.328125 172.9140625 152.456054688 c 1
 170.704101562 96.4482421875 152.24609375 34.94140625 109.041015625 -8.2626953125 c 0
 103.458007812 -13.8466796875 97.4716796875 -19.0947265625 91.076171875 -23.94140625 c 0
 86.6318359375 -27.310546875 81.3134765625 -28.9951171875 75.9951171875 -28.9951171875 c 2
 69.9951171875 -28.9951171875 l 2
 63.595703125 -28.9951171875 57.1953125 -26.5556640625 52.3173828125 -21.677734375 c 0
 47.439453125 -16.7998046875 45 -10.3994140625 45 -4 c 0
 45 8.5771484375 55.0361328125 19.3466796875 66.9248046875 20.8076171875 c 1
 102.162109375 51.21875 121.299804688 104.951171875 123.014648438 155.84765625 c 0
 123.052734375 156.983398438 123.16796875 158.116210938 123.359375 159.23828125 c 0
 125.345703125 170.856445312 126.153320312 183.299804688 126.153320312 196.2734375 c 0
 126.153320312 227.639648438 121.138671875 263.7578125 117.1875 295.931640625 c 0
 112.734375 332.1953125 107.07421875 367.708984375 103.234375 404.513671875 c 1
 92.0419921875 407.811523438 78.861328125 412.004882812 69.9951171875 412.004882812 c 0
 63.5478515625 412.004882812 60.455078125 413.7578125 58.595703125 414.672851562 c 0
 53.712890625 417.075195312 51.17578125 419.731445312 48.2392578125 422.783203125 c 1
 20.859375 427.346679688 l 2
 9.529296875 429.235351562 0 439.748046875 0 452 c 0
 0 458.399414062 2.439453125 464.799804688 7.3173828125 469.677734375 c 0
 12.1953125 474.555664062 18.595703125 476.995117188 24.9951171875 476.995117188 c 0
 26.37890625 476.995117188 27.7626953125 476.880859375 29.130859375 476.653320312 c 2
 65.130859375 470.653320312 l 2
 71.2958984375 469.625 76.6640625 466.08203125 80.72265625 461.416992188 c 1
 87.5244140625 460.685546875 93.6923828125 459.336914062 99.3779296875 457.811523438 c 1
148.990234375 479 m 0
 148.990234375 466.629882812 149.43359375 454.401367188 150.206054688 442.2265625 c 1
 190.387695312 428.4765625 232.327148438 408.833984375 264.896484375 376.264648438 c 0
 278.334960938 362.825195312 290.041992188 347.17578125 298.9296875 329.0703125 c 0
 305.266601562 318.751953125 310.536132812 308.145507812 315.107421875 297.442382812 c 1
 312.073242188 368.748046875 l 1
 291.298828125 520.1015625 l 2
 281.123046875 594.237304688 264.681640625 666.551757812 253.545898438 741.950195312 c 1
 251.212890625 739.388671875 249.247070312 737.1640625 247.892578125 735.629882812 c 0
 188.345703125 668.163085938 148.783203125 578.698242188 148.783203125 490.469726562 c 0
 148.783203125 486.642578125 148.990234375 482.821289062 148.990234375 479 c 0
EndSplineSet
EndChar
StartChar: B
Encoding: 66 66 28
Width: 569
Flags: HW
HStem: -40 21G<124 140> -3 70<228.535 385.991> 729 70<191.513 320.941> 738 71<157.47 254.575>
VStem: 25 71<221.32 457.864> 73 71<602.328 728.531> 100 64<-38.2074 -19> 127 71<158 261.203> 409 71<533.029 662.711> 418 71<101.651 267.259>
LayerCount: 2
Fore
SplineSet
164 -7 m 0xea
 164 -25 149 -40 131 -40 c 0
 117 -40 105 -31 100 -19 c 2
 91 5 l 2
 69 60 53 116 37 173 c 1
 25 293 l 1xea
 34 500 l 1
 52 611 l 1
 57 633 62 655 68 677 c 0
 70 684 73 694 73 698 c 0
 77 716 88 736 102 750 c 2
 137 785 l 2
 151 799 170 809 191 809 c 0xd4
 202 809 209 807 220 805 c 0
 233 802 246 799 255 799 c 0
 257 799 259 800 261 800 c 0
 272 800 280 794 290 789 c 0
 298 784 306 780 315 778 c 0
 347 772 374 758 395 737 c 2
 430 701 l 2
 461 670 480 625 480 578 c 1xe480
 473 553 458 529 438 509 c 2
 402 474 l 2
 376 448 341 428 306 419 c 1
 335 400 367 377 394 350 c 2
 429 315 l 2
 463 281 489 241 489 194 c 0
 489 141 473 101 446 74 c 2
 411 38 l 2
 383 10 343 -3 294 -3 c 0
 259 -3 227 22 198 33 c 1
 163 68 l 1
 130 158 l 1
 127 227 l 2
 127 228 127 228 127 229 c 0
 127 248 143 264 162 264 c 0
 181 264 197 249 198 230 c 2
 201 158 l 1
 225 91 l 1
 247 80 270 67 294 67 c 0
 333 67 366 76 392 93 c 1
 409 119 418 153 418 194 c 0xe140
 418 233 400 267 375 297 c 1
 342 325 305 349 276 367 c 0
 255 380 238 391 230 399 c 2
 195 434 l 2
 192 437 190 441 190 443 c 0
 190 444 190 445 190 447 c 1
 180 457 l 2
 179 458 179 459 179 460 c 0
 179 461 180 462 181 463 c 2
 216 499 l 2
 220 503 228 505 228 505 c 1
 249 484 l 1
 254 484 258 484 263 484 c 0
 304 484 348 501 383 528 c 1
 395 543 404 560 409 578 c 1
 409 616 397 653 376 682 c 1
 359 695 338 704 315 708 c 0
 306 710 298 713 290 718 c 0
 280 723 272 729 261 729 c 0
 259 729 257 729 255 729 c 0xe080
 242 729 216 736 201 738 c 0
 197 739 194 738 191 738 c 0xd080
 179 738 167 735 157 729 c 1
 151 719 146 708 144 698 c 0xe480
 144 692 140 678 138 671 c 2
 123 611 l 1
 105 500 l 1
 96 293 l 1
 108 173 l 1
 124 116 140 60 162 5 c 0
 163 1 164 -3 164 -7 c 0xea
EndSplineSet
EndChar
StartChar: C
Encoding: 67 67 29
Width: 435
Flags: HW
LayerCount: 2
Fore
SplineSet
367.990234375 686 m 0
 367.990234375 679.600585938 365.55078125 673.200195312 360.672851562 668.322265625 c 0
 355.794921875 663.444335938 349.39453125 661.004882812 342.995117188 661.004882812 c 0
 330.405273438 661.004882812 319.625976562 671.061523438 318.182617188 682.97265625 c 0
 316.0703125 700.40625 309.465820312 717.591796875 302.10546875 724.952148438 c 0
 299.428710938 727.62890625 296.8671875 729.15625 293.931640625 730.017578125 c 0
 275.05859375 735.55078125 261.234375 747.072265625 245.671875 753.2265625 c 0
 241.958007812 754.6953125 239.586914062 755.004882812 238.995117188 755.004882812 c 0
 201.071289062 755.004882812 178.616210938 743.751953125 161.522460938 726.658203125 c 0
 137.2421875 702.377929688 122.7421875 661.309570312 108.068359375 616.208984375 c 0
 96.603515625 580.971679688 85.0546875 543.649414062 63.1484375 512.631835938 c 1
 50.02734375 387.041992188 l 1
 53.939453125 248.141601562 l 1
 61.59375 194.567382812 l 1
 65.333984375 178.041015625 68.58203125 163.669921875 74.9599609375 151.950195312 c 0
 80.0654296875 142.567382812 84.27734375 131.569335938 89.15625 119.274414062 c 0
 98.380859375 96.02734375 110.620117188 63.9384765625 126.004882812 48.5546875 c 0
 131.223632812 43.3349609375 134.0234375 42.9951171875 134.995117188 42.9951171875 c 2
 148.995117188 42.9951171875 l 2
 152.345703125 42.9951171875 155.696289062 42.326171875 158.829101562 40.9892578125 c 0
 185.647460938 29.5400390625 214.153320312 22.912109375 244.706054688 22.912109375 c 0
 260.643554688 22.912109375 272.897460938 25.427734375 281.333007812 29.3642578125 c 0
 290.934570312 33.8447265625 299.814453125 41.2705078125 312.705078125 52.5791015625 c 0
 314.967773438 54.5654296875 317.342773438 56.6494140625 319.846679688 58.8134765625 c 1
 334.151367188 96.958984375 l 1
 336.013671875 152.838867188 l 2
 336.217773438 158.956054688 338.65234375 165.012695312 343.317382812 169.677734375 c 0
 348.1953125 174.555664062 354.595703125 176.995117188 360.995117188 176.995117188 c 0
 367.39453125 176.995117188 373.794921875 174.555664062 378.672851562 169.677734375 c 0
 383.55078125 164.799804688 385.990234375 158.399414062 385.990234375 152 c 0
 385.990234375 151.720703125 385.985351562 151.440429688 385.9765625 151.161132812 c 2
 383.9765625 91.1611328125 l 2
 383.885742188 88.4560546875 383.360351562 85.763671875 382.397460938 83.1982421875 c 2
 364.397460938 35.1982421875 l 2
 362.9453125 31.32421875 360.33203125 27.603515625 357.09765625 24.875 c 0
 339.739257812 10.2314453125 325.572265625 -5.177734375 302.501953125 -15.943359375 c 0
 286.517578125 -23.4033203125 267.859375 -27.0771484375 244.780273438 -27.0771484375 c 0
 208.69921875 -27.0771484375 174.89453125 -19.5478515625 143.978515625 -6.9951171875 c 1
 134.995117188 -6.9951171875 l 2
 116.200195312 -6.9951171875 101.322265625 2.525390625 90.6494140625 13.19921875 c 0
 68.5830078125 35.265625 54.4228515625 71.2255859375 42.6904296875 100.790039062 c 0
 37.873046875 112.9296875 33.58203125 123.361328125 31.0302734375 128.049804688 c 0
 19.982421875 148.353515625 16.69921875 166.502929688 12.625 184.428710938 c 0
 12.47265625 185.095703125 12.349609375 185.766601562 12.2529296875 186.44140625 c 2
 4.2529296875 242.44140625 l 2
 4.1181640625 243.38671875 4.037109375 244.337890625 4.009765625 245.291015625 c 2
 0.009765625 387.291015625 l 2
 0.0029296875 387.52734375 0 387.763671875 0 388 c 0
 0 388.873046875 0.0458984375 389.74609375 0.13671875 390.616210938 c 2
 14.13671875 524.616210938 l 2
 14.60546875 529.108398438 16.287109375 533.497070312 19.181640625 537.25 c 0
 36.373046875 559.538085938 48.2490234375 593.971679688 60.5361328125 631.734375 c 0
 74.9716796875 676.104492188 90.0283203125 725.875976562 126.166992188 762.013671875 c 0
 152.649414062 788.49609375 189.823242188 804.995117188 238.995117188 804.995117188 c 0
 259.265625 804.995117188 274.985351562 794.9921875 287.716796875 787.880859375 c 0
 296.377929688 783.043945312 303.85546875 779.21484375 308.05859375 777.982421875 c 0
 319.795898438 774.541015625 329.673828125 768.094726562 337.4609375 760.306640625 c 0
 357.727539062 740.041015625 364.99609375 712.23828125 367.807617188 689.02734375 c 0
 367.9296875 688.022460938 367.990234375 687.010742188 367.990234375 686 c 0
EndSplineSet
EndChar
StartChar: D
Encoding: 68 68 30
Width: 453
Flags: HW
LayerCount: 2
Fore
SplineSet
140.64453125 103.125 m 1
 160.80078125 101.685546875 186.333007812 98.9951171875 204.995117188 98.9951171875 c 0
 228.442382812 98.9951171875 245.096679688 107.369140625 260.275390625 122.547851562 c 0
 286.168945312 148.442382812 304.98828125 196.25390625 322.668945312 244.225585938 c 0
 328.643554688 260.4375 334.568359375 276.553710938 341.014648438 291.802734375 c 1
 352.874023438 423.412109375 l 1
 272.458984375 658.91015625 l 2
 255.1953125 709.470703125 202.115234375 737.004882812 138.995117188 737.004882812 c 0
 104.796875 737.004882812 83.5244140625 727.724609375 70.0595703125 714.259765625 c 0
 60.2265625 704.426757812 53.173828125 690.930664062 49.4755859375 672.938476562 c 0
 47.24609375 662.090820312 36.9423828125 653.004882812 24.9951171875 653.004882812 c 0
 18.595703125 653.004882812 12.1953125 655.444335938 7.3173828125 660.322265625 c 0
 2.439453125 665.200195312 0 671.600585938 0 678 c 0
 0 679.696289062 0.171875 681.393554688 0.5146484375 683.061523438 c 0
 5.7626953125 708.594726562 16.75 731.661132812 34.7041015625 749.615234375 c 0
 59.716796875 774.627929688 95.609375 786.995117188 138.995117188 786.995117188 c 0
 192.193359375 786.995117188 245.958007812 770.971679688 283.485351562 733.443359375 c 0
 299.348632812 717.580078125 311.940429688 698.032226562 319.763671875 675.12109375 c 2
 401.899414062 434.58203125 l 2
 402.794921875 431.959960938 403.2421875 429.21875 403.2421875 426.4765625 c 0
 403.2421875 425.72265625 403.208007812 424.96875 403.140625 424.216796875 c 2
 390.4453125 283.330078125 l 2
 390.208007812 280.702148438 389.557617188 278.104492188 388.4921875 275.643554688 c 0
 382.201171875 261.106445312 376.033203125 244.416992188 369.572265625 226.885742188 c 0
 352.0625 179.377929688 333.092773438 124.655273438 295.630859375 87.193359375 c 0
 272.940429688 64.501953125 242.58984375 49.0048828125 204.995117188 49.0048828125 c 0
 181.849609375 49.0048828125 157.701171875 51.8740234375 135.129882812 53.3251953125 c 1
 130.530273438 29.423828125 122.830078125 6.5322265625 110.637695312 -14.5244140625 c 0
 106.505859375 -21.6591796875 97.8984375 -26.9951171875 88.9951171875 -26.9951171875 c 0
 86.1953125 -26.9951171875 83.3955078125 -26.5283203125 80.72265625 -25.5947265625 c 0
 69.318359375 -21.609375 55.9658203125 -19.9072265625 43.234375 -14.919921875 c 0
 36.6181640625 -12.328125 29.2900390625 -8.7900390625 22.50390625 -2.00390625 c 0
 14.935546875 5.564453125 9.9599609375 16.8740234375 9.9599609375 28.8173828125 c 0
 9.9599609375 29.984375 10.00390625 31.2177734375 10.109375 32.3447265625 c 0
 11.8603515625 51.060546875 18.8388671875 67.5224609375 30.853515625 79.537109375 c 0
 47.666015625 96.349609375 68.6875 101.524414062 90.6220703125 103.500976562 c 1
 90.9013671875 109.5234375 91.033203125 115.711914062 91.033203125 121.978515625 c 0
 91.033203125 209.862304688 65.96875 313.192382812 65.96875 402.655273438 c 0
 65.96875 404.489257812 65.9794921875 406.319335938 66 408.146484375 c 2
 66 676 l 2
 66 682.399414062 68.439453125 688.799804688 73.3173828125 693.677734375 c 0
 78.1953125 698.555664062 84.595703125 700.995117188 90.9951171875 700.995117188 c 0
 97.39453125 700.995117188 103.794921875 698.555664062 108.672851562 693.677734375 c 0
 113.55078125 688.799804688 115.990234375 682.399414062 115.990234375 676 c 2
 115.990234375 407.703125 l 2
 115.971679688 406.096679688 115.959960938 404.48046875 115.959960938 402.857421875 c 0
 115.959960938 315.553710938 141.03515625 212.33984375 141.03515625 122.555664062 c 0
 141.03515625 116.043945312 140.91015625 109.526367188 140.64453125 103.125 c 1
75.6865234375 27.509765625 m 1
 78.8720703125 35.240234375 81.505859375 43.42578125 83.6376953125 52.0380859375 c 1
 74.728515625 50.11328125 69.166015625 47.138671875 66.208984375 44.181640625 c 0
 63.904296875 41.876953125 61.6787109375 38.634765625 60.4765625 32.068359375 c 1
 64.8486328125 30.1484375 69.376953125 29.072265625 75.6865234375 27.509765625 c 1
EndSplineSet
EndChar
StartChar: E
Encoding: 69 69 31
Width: 502
Flags: HW
HStem: -33 70<160.993 323.201> 377 70<173.564 223> 397 70<108.141 133> 705 70<296.177 383.224> 735 70<145.658 325.345>
VStem: 26 71<95.1414 305.835 471.658 676.153> 362 60<77.1562 136.252>
LayerCount: 2
Fore
SplineSet
29 578 m 0xa6
 29 584 28 590 28 595 c 0
 28 637 46 680 72 714 c 0
 77 723 82 730 89 737 c 2
 124 772 l 2
 142 790 167 802 193 805 c 0xae
 224 805 254 799 285 799 c 0
 307 799 327 777 347 775 c 2
 354 775 l 2
 372 773 386 758 386 740 c 0
 386 721 369 705 350 705 c 0x96
 338 705 330 710 319 716 c 0
 308 722 297 729 285 729 c 0
 254 729 224 735 193 735 c 0
 176 733 159 727 145 718 c 0
 144 717 144 715 143 714 c 0
 117 680 99 637 99 595 c 0
 99 590 99 584 99 578 c 0
 99 559 97 539 97 520 c 0
 97 502 99 485 108 471 c 0
 111 469 114 467 117 467 c 0xae
 118 467 120 468 121 468 c 0
 131 468 140 462 149 461 c 0
 166 459 176 447 195 447 c 2
 223 447 l 1
 223 377 l 1xc6
 201 371 173 357 149 338 c 0
 148 337 148 335 147 334 c 2
 120 308 l 1
 103 285 96 259 96 229 c 0
 96 224 97 218 97 212 c 0
 97 202 96 193 96 183 c 0
 96 160 99 136 111 116 c 0
 115 102 122 89 130 77 c 1
 161 54 201 42 239 41 c 1
 248 38 257 37 266 37 c 0
 287 37 307 45 324 57 c 1
 342 80 l 1
 349 93 355 107 362 120 c 0
 367 130 378 138 390 138 c 0
 407 138 422 123 422 106 c 0
 422 95 417 87 413 80 c 1
 393 54 l 2
 389 48 383 42 378 37 c 2
 343 2 l 2
 322 -19 295 -33 266 -33 c 0
 257 -33 248 -32 239 -29 c 1
 192 -28 143 -10 110 23 c 2
 75 58 l 2
 59 74 47 94 40 116 c 1
 28 136 25 160 25 183 c 0
 25 193 26 202 26 212 c 0
 26 218 25 224 25 229 c 0
 25 265 35 295 61 321 c 2
 81 341 l 2
 85 346 90 351 95 356 c 0
 108 369 120 382 133 395 c 1
 129 396 125 397 121 397 c 0
 120 397 118 397 117 397 c 0
 112 397 107 401 103 405 c 2
 91 417 l 2
 87 420 84 422 81 425 c 2
 46 460 l 2
 30 476 26 497 26 520 c 0
 26 539 29 559 29 578 c 0xa6
EndSplineSet
EndChar
StartChar: F
Encoding: 70 70 32
Width: 623
Flags: HW
HStem: -30 71<56.2798 135.67> -29 80<41.2771 110.814> 365 70<177 329.359> 389 70<66.3432 150.649> 748 71<367.881 454.38>
VStem: 144 71<123.173 285.25> 146 71<45.9895 197.827 199.702 369.531 529.328 647.036> 156 71<449.266 649.451> 452 70<680.859 747.978>
LayerCount: 2
Fore
SplineSet
99 389 m 2x1880
 79 389 64 404 64 424 c 0
 64 444 79 459 99 459 c 2
 107 459 l 2x1880
 141 459 177 445 209 439 c 1
 298 435 l 2
 317 434 332 419 332 400 c 0
 332 381 316 365 297 365 c 0
 296 365 296 365 295 365 c 2x2880
 209 369 l 1
 177 375 141 389 107 389 c 2
 99 389 l 2x1880
146 286 m 0x8a80
 146 367 156 448 156 529 c 0
 156 536 156 543 156 550 c 0
 153 582 154 618 152 651 c 0
 151 652 150 653 149 654 c 2
 114 690 l 2
 98 706 86 727 72 743 c 2
 68 748 l 1
 70 804 l 1
 105 839 l 1
 134 812 163 785 190 756 c 0
 202 743 209 726 214 709 c 1
 243 717 275 738 307 759 c 0
 345 784 384 810 421 817 c 0
 426 818 431 819 436 819 c 0
 451 819 465 815 475 805 c 2
 511 769 l 2
 518 762 522 753 522 740 c 1
 528 733 530 723 532 713 c 0
 534 705 535 698 538 692 c 0
 541 687 543 682 543 676 c 0
 543 659 529 646 512 646 c 0
 501 646 491 652 486 661 c 2
 468 692 l 2
 465 698 463 705 461 713 c 0
 459 723 458 733 452 740 c 0
 452 742 451 744 451 746 c 0
 446 747 441 748 436 748 c 0
 431 748 426 748 421 747 c 0
 355 736 285 663 224 641 c 1
 225 611 223 579 226 550 c 0
 226 543 227 536 227 529 c 0x8980
 227 448 217 367 217 286 c 0x8a80
 217 270 217 254 218 238 c 1
 216 227 215 214 215 199 c 0x8c80
 215 174 217 147 217 122 c 0x8a80
 217 82 213 43 192 22 c 2
 156 -13 l 2
 146 -23 131 -30 111 -30 c 0x8980
 107 -30 105 -29 101 -29 c 0
 90 -29 79 -28 71 -23 c 2
 40 -6 l 2
 31 -1 25 10 25 21 c 0
 25 38 39 51 56 51 c 0x4980
 62 51 66 50 71 47 c 0
 81 41 92 42 105 41 c 0
 107 41 109 41 111 41 c 0
 120 41 129 43 136 45 c 1
 145 66 146 94 146 122 c 0x8a80
 146 147 144 174 144 199 c 0x8c80
 144 214 146 227 148 238 c 1
 147 254 146 270 146 286 c 0x8a80
EndSplineSet
EndChar
StartChar: G
Encoding: 71 71 33
Width: 564
Flags: HW
LayerCount: 2
Fore
SplineSet
274.03125 253 m 0
 274.03125 247.510742188 276.03125 241.115234375 276.03125 233 c 0
 276.03125 226.721679688 281.209960938 216.525390625 291.8671875 200.806640625 c 0
 302.263671875 185.473632812 318.03125 164.337890625 318.03125 135 c 1
 318.284179688 135.697265625 318.47265625 136.02734375 318.595703125 136.02734375 c 0
 318.713867188 136.02734375 318.772460938 135.724609375 318.772460938 135.1484375 c 0
 318.772460938 126.34765625 305.028320312 53.859375 279.0625 27.671875 c 0
 249.211914062 -4.337890625 204.61328125 -20.8173828125 163.755859375 -21.984375 c 0
 163.515625 -21.9912109375 163.276367188 -21.9951171875 163.036132812 -21.9951171875 c 0
 159.829101562 -21.9951171875 156.622070312 -21.3828125 153.606445312 -20.1572265625 c 0
 136.237304688 -13.1015625 121.034179688 -2.3955078125 107.90625 10.732421875 c 0
 65.4677734375 53.1708984375 43.2998046875 119.842773438 29.1689453125 190.137695312 c 0
 11.4189453125 278.4296875 7.103515625 375.37109375 3.9794921875 443.729492188 c 0
 3.333984375 457.860351562 2.744140625 470.74609375 2.1142578125 481.984375 c 0
 0.712890625 495.505859375 0 509.169921875 0 522.84375 c 0
 0 603.2734375 24.6630859375 684.05078125 78.857421875 738.245117188 c 0
 116.532226562 775.919921875 168.016601562 798.92578125 230.896484375 798.92578125 c 0
 245.892578125 798.92578125 261.537109375 797.6171875 277.797851562 794.887695312 c 0
 333.931640625 791.676757812 374.727539062 753.271484375 406.7109375 727.477539062 c 0
 412.408203125 722.883789062 416.03125 715.375 416.03125 708 c 0
 416.03125 701.600585938 413.591796875 695.200195312 408.713867188 690.322265625 c 0
 403.8359375 685.444335938 397.435546875 683.004882812 391.036132812 683.004882812 c 0
 385.479492188 683.004882812 379.921875 684.84375 375.361328125 688.522460938 c 0
 356.56640625 703.6796875 336.440429688 720.845703125 315.834960938 732.0234375 c 0
 301.627929688 739.729492188 287.688476562 744.430664062 273.942382812 745.028320312 c 0
 272.873046875 745.075195312 271.805664062 745.189453125 270.749023438 745.373046875 c 0
 256.2265625 747.884765625 242.583007812 749.073242188 229.76171875 749.073242188 c 0
 179.799804688 749.073242188 142.345703125 731.022460938 114.212890625 702.889648438 c 0
 72.1904296875 660.8671875 50.0419921875 592.500976562 50.0419921875 521.936523438 c 0
 50.0419921875 510.193359375 50.65625 498.389648438 51.892578125 486.635742188 c 0
 53.1767578125 474.44140625 53.23828125 460.884765625 53.9169921875 446.029296875 c 0
 57.033203125 377.861328125 61.4794921875 283.088867188 78.1728515625 200.049804688 c 0
 91.595703125 133.279296875 113.41796875 75.931640625 143.26171875 46.087890625 c 0
 150.942382812 38.4072265625 159.047851562 32.4892578125 167.731445312 28.267578125 c 1
 195.426757812 30.3623046875 224.6796875 42.5322265625 242.681640625 61.974609375 c 0
 242.90234375 62.2119140625 243.127929688 62.4462890625 243.358398438 62.677734375 c 0
 259.646484375 78.9658203125 268.041015625 107.1875 268.041015625 135 c 0
 268.041015625 144.717773438 261.625 156.30078125 250.454101562 172.776367188 c 0
 240.7109375 187.145507812 226.041015625 206.223632812 226.041015625 233 c 0
 226.041015625 238.842773438 224.041015625 244.991210938 224.041015625 253 c 0
 224.041015625 269.17578125 231.061523438 283.140625 240.72265625 292.801757812 c 0
 258.368164062 310.447265625 282.634765625 315.995117188 303.036132812 315.995117188 c 0
 323.9765625 315.995117188 344.880859375 318.58984375 365.470703125 318.58984375 c 0
 371.734375 318.58984375 377.9609375 318.293945312 384.189453125 317.483398438 c 0
 396.4453125 315.88671875 410.284179688 311.938476562 421.3828125 300.83984375 c 0
 433.62109375 288.602539062 438.03125 271.705078125 438.03125 254 c 0
 438.03125 219.705078125 424.844726562 191.000976562 413.953125 165.999023438 c 0
 402.844726562 140.500976562 394.03125 118.705078125 394.03125 98 c 0
 394.03125 97.9345703125 393.939453125 97.89453125 393.939453125 97.7265625 c 0
 393.939453125 97.2197265625 394.78125 95.541015625 401.568359375 88.4091796875 c 0
 402.826171875 87.0869140625 404.237304688 85.625 405.734375 83.986328125 c 1
 441.217773438 80.900390625 l 2
 453.533203125 79.8291015625 464.03125 68.875 464.03125 56 c 0
 464.03125 49.6005859375 461.591796875 43.2001953125 456.713867188 38.322265625 c 0
 451.8359375 33.4443359375 445.435546875 31.0048828125 439.036132812 31.0048828125 c 0
 438.30859375 31.0048828125 437.581054688 31.0361328125 436.85546875 31.099609375 c 2
 390.85546875 35.099609375 l 2
 383.588867188 35.7314453125 376.489257812 39.974609375 372.465820312 45.78515625 c 0
 371.099609375 47.759765625 368.697265625 50.421875 365.334960938 53.9541015625 c 0
 358.677734375 60.9482421875 344.041015625 74.9228515625 344.041015625 98 c 0
 344.041015625 132.294921875 357.227539062 160.999023438 368.119140625 186.000976562 c 0
 379.227539062 211.499023438 388.041015625 233.294921875 388.041015625 254 c 0
 388.041015625 264.404296875 386.02734375 265.484375 386.02734375 265.484375 c 1
 386.02734375 265.484375 384.439453125 267.03515625 377.689453125 267.9140625 c 0
 374.587890625 268.318359375 370.70703125 268.486328125 366.1953125 268.486328125 c 0
 346.305664062 268.486328125 324.990234375 266.004882812 303.036132812 266.004882812 c 0
 292.125 266.004882812 279.970703125 261.338867188 276.078125 257.446289062 c 0
 274.26171875 255.630859375 274.03125 254.901367188 274.03125 253 c 0
EndSplineSet
EndChar
StartChar: H
Encoding: 72 72 34
Width: 821
Flags: HW
LayerCount: 2
Fore
SplineSet
487.736328125 515.235351562 m 1
 484.689453125 544.104492188 481.262695312 573.801757812 481.262695312 604.794921875 c 0
 481.262695312 612.741210938 481.48828125 620.772460938 482.004882812 628.895507812 c 0
 482.170898438 643.426757812 486.25390625 678.869140625 494.6953125 715.873046875 c 0
 498.4921875 732.518554688 503.137695312 749.083984375 509.208007812 763.764648438 c 0
 514.048828125 775.470703125 519.568359375 786.37109375 528.793945312 795.596679688 c 0
 535.522460938 802.325195312 545.752929688 808.995117188 558.995117188 808.995117188 c 0
 567.122070312 808.995117188 574.48046875 805.052734375 578.786132812 800.747070312 c 0
 583.700195312 795.833007812 585.336914062 791.418945312 586.473632812 788.096679688 c 0
 589.944335938 777.95703125 589.473632812 764.564453125 589.778320312 753.395507812 c 0
 593.854492188 729.948242188 595.77734375 707.557617188 595.77734375 686.1640625 c 0
 595.77734375 634.174804688 584.421875 588.077148438 565.016601562 547.040039062 c 0
 557.530273438 531.208984375 548.903320312 516.166992188 539.36328125 501.795898438 c 0
 539.455078125 500.84375 539.546875 499.889648438 539.637695312 498.934570312 c 0
 554.470703125 449.892578125 554.680664062 390.334960938 555.490234375 330.69140625 c 0
 556.736328125 238.844726562 558.747070312 143.592773438 603.98046875 98.359375 c 0
 612.754882812 89.5849609375 623.20703125 82.47265625 636.342773438 77.1904296875 c 0
 647.5859375 72.669921875 691.6171875 49.8544921875 700.7890625 45.08984375 c 0
 706.368164062 43.23046875 710.630859375 41.7197265625 714.672851562 37.677734375 c 0
 719.55078125 32.7998046875 721.990234375 26.3994140625 721.990234375 20 c 0
 721.990234375 13.6005859375 719.55078125 7.2001953125 714.672851562 2.322265625 c 0
 709.794921875 -2.5556640625 703.39453125 -4.9951171875 696.995117188 -4.9951171875 c 0
 691.829101562 -4.9951171875 687.182617188 -3.083984375 683.061523438 -1.7099609375 c 0
 678.66015625 -0.2431640625 636.170898438 22.3857421875 617.647460938 30.8095703125 c 0
 598.4765625 38.5185546875 582.1171875 49.51171875 568.625976562 63.00390625 c 0
 539.978515625 91.6513671875 525.330078125 129.688476562 517.103515625 170.036132812 c 0
 506.783203125 220.654296875 506.228515625 276.66015625 505.50390625 330.008789062 c 0
 504.911132812 373.751953125 504.021484375 415.6640625 499.051757812 450.038085938 c 1
 444.306640625 388.796875 376.90625 340.090820312 313.672851562 288.216796875 c 1
 315.377929688 249.967773438 316.868164062 216.80859375 316.868164062 176.609375 c 0
 316.868164062 153.090820312 315.857421875 125.567382812 311.780273438 98.6279296875 c 0
 306.592773438 64.345703125 296.853515625 28.7255859375 272.076171875 3.9482421875 c 0
 256.795898438 -11.33203125 235.674804688 -20.9951171875 210.995117188 -20.9951171875 c 0
 181.298828125 -20.9951171875 149.201171875 -6.91015625 126.923828125 15.3671875 c 0
 112.15234375 30.138671875 100.703125 50.8203125 100.703125 74.642578125 c 0
 100.703125 80.2890625 101.303710938 86.5224609375 102.802734375 92.3037109375 c 0
 126.889648438 185.21484375 195.381835938 253.950195312 262.56640625 310.770507812 c 1
 259.017578125 383.219726562 254.280273438 457.046875 254.280273438 531.421875 c 0
 254.280273438 555.262695312 254.765625 579.204101562 255.932617188 603.258789062 c 1
 254.727539062 614.798828125 254.040039062 628.631835938 254.040039062 643.537109375 c 0
 254.040039062 663.172851562 255.232421875 684.668945312 258 705.235351562 c 1
 216.13671875 707.387695312 183.157226562 724.189453125 154.314453125 738.508789062 c 0
 122.758789062 754.17578125 95.9580078125 767.004882812 62.9951171875 767.004882812 c 0
 58.5498046875 767.004882812 55.26953125 766.172851562 49.990234375 764.264648438 c 1
 49.990234375 718.4921875 l 1
 59.501953125 670.931640625 l 2
 59.8271484375 669.3046875 59.990234375 667.65234375 59.990234375 666 c 0
 59.990234375 659.600585938 57.55078125 653.200195312 52.6728515625 648.322265625 c 0
 47.794921875 643.444335938 41.39453125 641.004882812 34.9951171875 641.004882812 c 0
 23.009765625 641.004882812 12.671875 650.151367188 10.48828125 661.068359375 c 2
 0.48828125 711.068359375 l 2
 0.1630859375 712.6953125 0 714.34765625 0 716 c 2
 0 782 l 2
 0 793.401367188 8.3388671875 803.395507812 18.4423828125 806.125976562 c 0
 31.8564453125 809.751953125 41.79296875 816.995117188 62.9951171875 816.995117188 c 0
 109.649414062 816.995117188 145.549804688 798.694335938 176.564453125 783.295898438 c 0
 207.995117188 767.69140625 234.556640625 754.995117188 266.995117188 754.995117188 c 0
 267.900390625 754.995117188 268.7734375 755.025390625 269.614257812 755.081054688 c 0
 275.88671875 771.734375 286.336914062 788.782226562 304.279296875 795.434570312 c 0
 307.084960938 796.474609375 310.040039062 796.995117188 312.995117188 796.995117188 c 0
 319.39453125 796.995117188 325.794921875 794.555664062 330.672851562 789.677734375 c 0
 335.55078125 784.799804688 337.990234375 778.399414062 337.990234375 772 c 0
 337.990234375 748.837890625 326.951171875 729.008789062 310.8515625 717.796875 c 1
 306.227539062 696.215820312 304.133789062 667.62109375 304.133789062 643.090820312 c 0
 304.133789062 629.047851562 304.764648438 616.297851562 305.83203125 606.817382812 c 0
 305.9375 605.881835938 305.990234375 604.940429688 305.990234375 604 c 0
 305.990234375 603.580078125 305.979492188 603.16015625 305.958984375 602.740234375 c 0
 304.774414062 579.087890625 304.280273438 555.418945312 304.280273438 531.716796875 c 0
 304.280273438 471.513671875 307.483398438 410.803710938 310.626953125 350.07421875 c 1
 355.455078125 385.952148438 401.784179688 422.177734375 440.125976562 460.51953125 c 0
 457.693359375 478.086914062 473.74609375 496.211914062 487.736328125 515.235351562 c 1
531.270507812 605.24609375 m 0
 531.270507812 602.413085938 531.303710938 599.57421875 531.366210938 596.727539062 c 1
 540.639648438 623.642578125 545.897460938 652.85546875 545.897460938 685.458007812 c 0
 545.897460938 693.685546875 545.563476562 702.12890625 544.873046875 710.805664062 c 1
 544.377929688 708.783203125 543.895507812 706.743164062 543.427734375 704.693359375 c 0
 535.861328125 671.525390625 531.990234375 633.75 531.990234375 628 c 0
 531.990234375 620.439453125 531.270507812 612.873046875 531.270507812 605.24609375 c 0
265.282226562 246.65625 m 1
 257.264648438 239.33984375 249.4921875 231.958984375 242.020507812 224.48828125 c 0
 198.533203125 181 165.603515625 134.895507812 151.294921875 80.109375 c 0
 150.870117188 78.140625 150.653320312 76.1962890625 150.653320312 74.267578125 c 0
 150.653320312 48.3779296875 189.729492188 29.7578125 211.348632812 28.99609375 c 0
 222.891601562 29.0673828125 230.04296875 32.625 236.720703125 39.3037109375 c 0
 248.381835938 50.96484375 257.772460938 75.8681640625 262.356445312 106.157226562 c 0
 265.91796875 129.688476562 266.828125 155.12890625 266.828125 177.477539062 c 0
 266.828125 203.487304688 266.08984375 222.532226562 265.282226562 246.65625 c 1
EndSplineSet
EndChar
StartChar: I
Encoding: 73 73 35
Width: 398
Flags: HW
HStem: -40 71<166.324 219.062> 577 70<96.359 169> 839 20G<175 208.571>
VStem: 25 71<647.402 745.284> 154 70<649.411 777> 247 71<55.7143 359.405>
LayerCount: 2
Fore
SplineSet
247 144 m 0
 247 293 208 440 181 577 c 1
 90 577 l 1
 88 579 87 579 85 581 c 2
 50 617 l 2
 32 635 25 655 25 677 c 0
 25 713 46 751 75 780 c 2
 110 816 l 2
 133 839 162 856 188 859 c 1
 224 824 l 2
 224 823 224 823 224 822 c 0
 224 710 247 599 270 488 c 0
 294 375 318 262 318 144 c 0
 318 96 297 46 269 18 c 2
 233 -17 l 2
 219 -31 203 -40 187 -40 c 0
 175 -40 162 -35 151 -24 c 2
 116 12 l 2
 108 20 100 31 93 46 c 1
 81 96 l 2
 80 99 80 101 80 104 c 0
 80 123 95 138 114 138 c 0
 130 138 144 127 148 112 c 2
 164 46 l 2
 166 42 168 38 170 34 c 0
 176 32 181 31 187 31 c 0
 197 31 206 34 215 39 c 1
 234 67 247 106 247 144 c 0
96 677 m 0
 96 667 98 656 101 647 c 1
 169 647 l 1
 162 690 156 733 154 777 c 1
 145 773 137 767 129 761 c 0
 109 735 96 706 96 677 c 0
EndSplineSet
EndChar
StartChar: J
Encoding: 74 74 36
Width: 366
Flags: HW
LayerCount: 2
Fore
SplineSet
213.385742188 298.759765625 m 1
 213.971679688 227.521484375 214.995117188 155.66015625 214.995117188 84 c 0
 214.995117188 75.126953125 213.565429688 73.2958984375 212.818359375 67.0224609375 c 0
 210.1875 44.9345703125 197.834960938 26.126953125 182.885742188 11.177734375 c 0
 164.10546875 -7.6025390625 138.4453125 -22.9951171875 110 -22.9951171875 c 0
 98.171875 -22.9951171875 88.1171875 -19.1357421875 79.2568359375 -14.3798828125 c 0
 68.0703125 -8.3759765625 57.9580078125 -0.21484375 48.7802734375 8.962890625 c 0
 37.701171875 20.04296875 28.0673828125 32.5703125 21.087890625 45.5703125 c 0
 15.568359375 55.8505859375 11.0048828125 66.8447265625 11.0048828125 80 c 0
 11.0048828125 87.6884765625 12.7763671875 93.7255859375 14.916015625 99.751953125 c 0
 17.59765625 107.306640625 21.2939453125 115.01171875 25.8466796875 123.42578125 c 0
 36.044921875 142.276367188 50.7216796875 164.654296875 67.9130859375 189.114257812 c 0
 96.3193359375 229.528320312 131.590820312 275.408203125 163.262695312 315.880859375 c 1
 163.106445312 338.07421875 163.004882812 360.134765625 163.004882812 382 c 0
 163.004882812 415.884765625 158.09765625 449.325195312 151.189453125 483.138671875 c 1
 149.813476562 481.926757812 148.012695312 480.24609375 145.905273438 478.163085938 c 0
 139.864257812 472.192382812 125.528320312 456.296875 103.5703125 456.296875 c 0
 100.87890625 456.296875 98.0732421875 456.53515625 95.154296875 457.060546875 c 0
 72.83984375 457.936523438 54.4970703125 469.025390625 40.92578125 482.596679688 c 0
 26.74609375 496.776367188 16.6533203125 514.134765625 9.3017578125 531.534179688 c 0
 0.0986328125 553.313476562 -4.9951171875 575.264648438 -4.9951171875 594 c 0
 -4.9951171875 628.098632812 15.189453125 652.9140625 34.115234375 671.83984375 c 0
 48.1005859375 685.825195312 64.060546875 698.712890625 77.4150390625 712.067382812 c 0
 92.734375 727.38671875 99.0048828125 738.932617188 99.0048828125 748 c 0
 99.0048828125 756.884765625 101 764.052734375 102.03515625 767.877929688 c 0
 102.829101562 770.809570312 102.973632812 771.688476562 102.999023438 771.922851562 c 0
 102.857421875 777.788085938 102.78515625 782.232421875 102.78515625 785.711914062 c 0
 102.78515625 797.185546875 103.782226562 803.421875 110.455078125 810.094726562 c 0
 113.654296875 813.293945312 120.41015625 817.40625 128.479492188 817.40625 c 0
 146.564453125 817.40625 152.171875 804.038085938 154.044921875 790.396484375 c 0
 155.689453125 778.421875 158.852539062 748.288085938 160.377929688 741.540039062 c 0
 160.7890625 739.71875 160.995117188 737.859375 160.995117188 736 c 0
 160.995117188 729.7578125 160.5234375 723.517578125 160.5234375 717.307617188 c 0
 160.5234375 663.12109375 172.9296875 610.252929688 186.09375 555.1875 c 0
 199.190429688 500.40625 212.995117188 443.533203125 212.995117188 382 c 0
 212.995117188 381.037109375 212.99609375 380.073242188 212.99609375 379.109375 c 1
 224.7578125 394.100585938 234.116210938 406.169921875 239.482421875 413.510742188 c 1
 262.290039062 481.93359375 l 2
 265.41796875 491.319335938 275.112304688 498.995117188 286 498.995117188 c 0
 292.399414062 498.995117188 298.799804688 496.555664062 303.677734375 491.677734375 c 0
 308.555664062 486.799804688 310.995117188 480.399414062 310.995117188 474 c 0
 310.995117188 471.318359375 310.56640625 468.63671875 309.709960938 466.06640625 c 2
 285.709960938 394.06640625 l 2
 284.95703125 391.807617188 283.873046875 389.634765625 282.458007812 387.624023438 c 0
 271.965820312 372.72265625 233.612304688 324.510742188 213.385742188 298.759765625 c 1
165.004882812 84.7001953125 m 0
 165 134.561523438 164.497070312 184.861328125 163.995117188 234.8828125 c 1
 149.4765625 215.865234375 134.958007812 196.734375 121.766601562 178.49609375 c 0
 93.40234375 139.279296875 70.197265625 103.173828125 63.0546875 85.6669921875 c 2
 60.9951171875 80 l 1
 60.9951171875 80 61.6591796875 75.7265625 65.1484375 69.2265625 c 0
 72.19921875 56.0947265625 87.8212890625 38.5830078125 101.061523438 30.7275390625 c 0
 105.435546875 28.1328125 108.372070312 27.1982421875 110 26.9951171875 c 0
 118.9453125 26.9951171875 135.24609375 34.2490234375 147.530273438 46.533203125 c 0
 156.641601562 55.64453125 161.953125 66.01171875 163.048828125 72.0947265625 c 0
 163.311523438 78.3798828125 164.331054688 81.0927734375 165.004882812 84.7001953125 c 0
112.428710938 676.37109375 m 1
 98.6494140625 662.638671875 82.732421875 649.747070312 69.4697265625 636.484375 c 0
 52.8798828125 619.89453125 44.9951171875 606.461914062 44.9951171875 594 c 0
 44.9951171875 584.875976562 48.462890625 567.3359375 55.3515625 551.032226562 c 0
 60.873046875 537.96484375 68.474609375 525.758789062 76.28125 517.952148438 c 0
 84.2412109375 509.991210938 91.3583984375 506.995117188 98 506.995117188 c 0
 99.58984375 506.995117188 101.178710938 506.844726562 102.745117188 506.543945312 c 0
 103.76953125 507.288085938 106.212890625 509.233398438 110.760742188 513.728515625 c 0
 118.041015625 520.923828125 127.123046875 529.649414062 139.913085938 533.302734375 c 1
 129.036132812 579.059570312 117.005859375 626.26171875 112.428710938 676.37109375 c 1
EndSplineSet
EndChar
StartChar: K
Encoding: 75 75 37
Width: 891
Flags: HW
LayerCount: 2
Fore
SplineSet
178.079101562 739.337890625 m 1
 148.885742188 727.967773438 113.1796875 717.004882812 72.9951171875 717.004882812 c 2
 24.9951171875 717.004882812 l 2
 18.595703125 717.004882812 12.1953125 719.444335938 7.3173828125 724.322265625 c 0
 2.439453125 729.200195312 0 735.600585938 0 742 c 0
 0 748.399414062 2.439453125 754.799804688 7.3173828125 759.677734375 c 0
 12.1953125 764.555664062 18.595703125 766.995117188 24.9951171875 766.995117188 c 2
 72.9951171875 766.995117188 l 2
 127.588867188 766.995117188 187.255859375 798.078125 187.255859375 798.078125 c 2
 190.9140625 800.022460938 194.954101562 800.995117188 198.995117188 800.995117188 c 0
 211.524414062 800.995117188 222.254882812 791.03515625 223.782226562 779.228515625 c 0
 233.153320312 706.782226562 238.284179688 616.735351562 238.284179688 523.276367188 c 0
 238.284179688 447.654296875 234.924804688 369.798828125 227.732421875 297.227539062 c 1
 267.618164062 368.059570312 313.641601562 435.61328125 372.130859375 494.102539062 c 0
 394.278320312 516.25 418.202148438 537.055664062 444.211914062 556.1640625 c 0
 446.123046875 557.568359375 451.508789062 562.364257812 457.962890625 568.818359375 c 0
 468.565429688 579.420898438 482.794921875 594.743164062 498.3671875 611.529296875 c 0
 517.041015625 631.66015625 537.709960938 653.953125 557.381835938 673.625 c 0
 573.474609375 689.716796875 588.741210938 704.009765625 602.717773438 714.450195312 c 0
 608.967773438 719.120117188 614.961914062 723.095703125 621.571289062 726.194335938 c 0
 626.779296875 728.63671875 632.782226562 730.995117188 640.995117188 730.995117188 c 0
 651.061523438 730.995117188 660.326171875 724.3125 663.947265625 715.919921875 c 0
 678.71875 681.680664062 685.62109375 648.725585938 685.62109375 617.834960938 c 0
 685.62109375 599.626953125 683.22265625 582.13671875 678.625 565.5234375 c 0
 668.73828125 529.801757812 649.073242188 498.96484375 623.606445312 473.497070312 c 0
 563.139648438 413.03125 470.032226562 381.170898438 383.19140625 381.170898438 c 0
 377.318359375 381.170898438 371.474609375 381.31640625 365.671875 381.608398438 c 1
 364.657226562 376.807617188 364.12109375 371.497070312 364.12109375 365.705078125 c 0
 364.12109375 352.04296875 367.1015625 335.708007812 373.7890625 317.086914062 c 0
 389.418945312 273.5703125 423.62109375 222.334960938 468.64453125 177.311523438 c 0
 538.063476562 107.892578125 631.333007812 54.9951171875 716.995117188 54.9951171875 c 0
 720.556640625 54.9951171875 720.307617188 55.322265625 721.383789062 56.3984375 c 0
 723.172851562 58.1875 726.666015625 64.5810546875 730.6640625 74.1689453125 c 0
 735.302734375 85.29296875 745.637695312 112.995117188 766.995117188 112.995117188 c 0
 773.39453125 112.995117188 779.794921875 110.555664062 784.672851562 105.677734375 c 0
 789.55078125 100.799804688 791.990234375 94.3994140625 791.990234375 88 c 0
 791.990234375 81.443359375 789.366210938 74.873046875 784.369140625 70.0234375 c 0
 783.875976562 69.5302734375 780.595703125 63.9775390625 776.805664062 54.8876953125 c 0
 772.956054688 45.6552734375 768.369140625 32.6728515625 756.739257812 21.04296875 c 0
 747.248046875 11.5517578125 733.119140625 5.0048828125 716.995117188 5.0048828125 c 0
 611.516601562 5.0048828125 508.508789062 66.736328125 433.2890625 141.956054688 c 0
 383.935546875 191.309570312 345.747070312 247.228515625 326.744140625 300.134765625 c 0
 321.423828125 314.94921875 317.459960938 329.936523438 315.435546875 344.6796875 c 1
 272.979492188 280.880859375 237.416015625 210.782226562 203.279296875 139.420898438 c 1
 189.853515625 81.03125 169.298828125 20.76953125 136.8046875 -11.724609375 c 0
 131.801757812 -16.7275390625 126.426757812 -21.1953125 120.598632812 -24.9794921875 c 0
 116.4765625 -27.65625 111.735351562 -28.9951171875 106.995117188 -28.9951171875 c 0
 100.595703125 -28.9951171875 94.1953125 -26.5556640625 89.3173828125 -21.677734375 c 0
 84.439453125 -16.7998046875 82 -10.3994140625 82 -4 c 0
 82 -0.166015625 82.875 3.6669921875 84.6259765625 7.173828125 c 0
 108.740234375 55.4814453125 132.140625 106.399414062 155.732421875 155.977539062 c 1
 178.96875 260.5859375 188.205078125 395.568359375 188.205078125 522.970703125 c 0
 188.205078125 600.600585938 184.640625 675.791992188 178.079101562 739.337890625 c 1
635.727539062 618.159179688 m 0
 635.727539062 634.3359375 633.1875 651.703125 627.512695312 670.389648438 c 1
 617.755859375 662.494140625 605.604492188 651.13671875 592.737304688 638.26953125 c 0
 561.337890625 606.870117188 523.583984375 563.729492188 493.318359375 533.462890625 c 0
 486.018554688 526.1640625 480.021484375 520.421875 473.778320312 515.8359375 c 0
 439.573242188 490.706054688 409.330078125 462.486328125 381.578125 431.231445312 c 1
 381.719726562 431.23046875 381.860351562 431.23046875 382.001953125 431.23046875 c 0
 486.708007812 431.23046875 604.560546875 485.372070312 630.452148438 578.920898438 c 0
 633.841796875 591.169921875 635.727539062 604.22265625 635.727539062 618.159179688 c 0
EndSplineSet
EndChar
StartChar: L
Encoding: 76 76 38
Width: 684
Flags: HW
HStem: -28 71<297.056 489.307> -17 70<126.273 164.316> 119 70<107 175.156> 591 70<113.868 146.719>
VStem: 25 70<675.931 818.531> 147 192<662 749> 169 71<289.921 589.836> 193 71<166.867 431.216> 533 71<77.895 158>
LayerCount: 2
Fore
SplineSet
187 165 m 1x7980
 192 205 193 234 193 253 c 0x7980
 193 319 175 383 169 446 c 0x7a80
 167 489 156 546 151 592 c 1
 144 591 136 591 129 591 c 0
 127 591 125 591 123 591 c 0
 117 595 111 599 106 604 c 2
 70 639 l 2
 36 673 30 737 25 782 c 0
 25 783 25 785 25 786 c 0
 25 805 41 821 60 821 c 0
 78 821 93 807 95 789 c 0
 99 748 103 699 124 661 c 1
 126 661 127 661 129 661 c 0
 135 661 141 661 147 662 c 1
 148 700 157 733 178 754 c 2
 213 789 l 2
 229 805 254 816 289 816 c 0
 292 816 296 815 299 815 c 1
 334 780 l 1
 337 769 339 759 339 749 c 0x7c80
 339 722 327 699 308 680 c 2
 273 644 l 2
 259 630 240 619 220 610 c 1
 222 583 226 555 230 529 c 0
 234 499 239 470 240 446 c 0x7a80
 246 383 264 319 264 253 c 0
 264 251 264 250 264 248 c 0
 264 227 261 163 249 108 c 1
 257 100 265 91 273 83 c 0
 298 60 327 43 364 43 c 0
 366 43 369 43 371 43 c 0
 422 46 476 52 515 77 c 1
 527 96 533 121 533 152 c 0
 533 154 533 156 533 158 c 1
 505 186 l 2
 500 191 498 197 498 204 c 0
 498 218 509 229 523 229 c 0
 530 229 536 226 541 221 c 2
 604 158 l 1
 604 156 604 154 604 152 c 0
 604 109 591 79 570 58 c 2
 535 23 l 2
 496 -16 431 -24 371 -27 c 0
 369 -27 366 -28 364 -28 c 0xb980
 319 -28 287 -2 258 27 c 2
 231 54 l 1
 226 44 221 36 215 30 c 2
 179 -5 l 2
 171 -13 163 -17 153 -17 c 0
 137 -14 123 -7 111 5 c 2
 76 41 l 2
 53 64 39 98 35 126 c 0
 33 131 33 135 33 139 c 0
 33 144 34 148 37 151 c 2
 73 186 l 2
 77 190 83 192 91 192 c 0
 97 192 105 190 113 189 c 0
 114 189 115 189 116 189 c 0
 144 189 167 180 187 165 c 1x7980
253 698 m 1
 262 711 267 727 268 744 c 1
 255 742 244 738 234 733 c 1
 226 718 221 700 219 680 c 1
 231 685 243 691 253 698 c 1
116 119 m 0
 115 119 114 119 113 119 c 0
 111 119 109 120 107 120 c 1
 110 101 118 80 130 62 c 0
 137 58 145 54 153 53 c 0
 156 53 158 53 160 54 c 0
 167 67 172 84 176 101 c 1
 158 112 139 119 116 119 c 0
EndSplineSet
EndChar
StartChar: M
Encoding: 77 77 39
Width: 789
Flags: HW
LayerCount: 2
Fore
SplineSet
387.841796875 376.114257812 m 0
 387.841796875 374.560546875 387.990234375 373.453125 387.990234375 372 c 0
 387.990234375 365.600585938 385.55078125 359.200195312 380.672851562 354.322265625 c 0
 375.794921875 349.444335938 369.39453125 347.004882812 362.995117188 347.004882812 c 0
 353.678710938 347.004882812 344.821289062 352.8203125 340.854492188 360.37890625 c 0
 299.32421875 439.518554688 253.608398438 520.658203125 222.26953125 612.831054688 c 1
 221.729492188 588.984375 221.4296875 564.987304688 221.13671875 540.9296875 c 0
 218.748046875 344.530273438 217.693359375 139.23046875 71.13671875 -15.201171875 c 0
 66.32421875 -20.2724609375 59.6259765625 -22.9951171875 52.9951171875 -22.9951171875 c 0
 44.6943359375 -22.9951171875 37.630859375 -18.263671875 32.671875 -13.3046875 c 0
 21.4326171875 -2.06640625 15.3369140625 11.6259765625 10.5927734375 24.9794921875 c 0
 4.6103515625 41.8193359375 1.2568359375 58.775390625 0.099609375 71.7646484375 c 0
 0.033203125 72.5078125 0 73.25390625 0 74 c 0
 0 80.3994140625 2.439453125 86.7998046875 7.3173828125 91.677734375 c 0
 12.1953125 96.5556640625 18.595703125 98.9951171875 24.9951171875 98.9951171875 c 0
 37.84765625 98.9951171875 48.794921875 88.5263671875 49.890625 76.2353515625 c 0
 50.5546875 68.7822265625 53.0380859375 55.767578125 56.8359375 44.279296875 c 1
 165.459960938 178.659179688 168.876953125 354.63671875 171.150390625 541.54296875 c 0
 172.263671875 633.017578125 173.288085938 726.116210938 188.344726562 816.149414062 c 0
 190.23828125 827.471679688 200.748046875 836.995117188 212.995117188 836.995117188 c 0
 219.39453125 836.995117188 225.794921875 834.555664062 230.672851562 829.677734375 c 0
 235.55078125 824.799804688 237.990234375 818.399414062 237.990234375 812 c 0
 237.990234375 809.909179688 237.948242188 807.818359375 237.948242188 805.731445312 c 0
 237.948242188 678.640625 292.330078125 561.047851562 349.697265625 450.905273438 c 1
 371.802734375 541.073242188 414.278320312 663.459960938 452.594726562 741.770507812 c 0
 465.518554688 768.18359375 476.880859375 788.643554688 490.5546875 802.317382812 c 0
 496.592773438 808.35546875 505.7265625 815.813476562 518.978515625 815.813476562 c 0
 528.567382812 815.813476562 536.109375 811.635742188 541.301757812 806.443359375 c 0
 549.00390625 798.741210938 551.313476562 790.5703125 553.017578125 782.946289062 c 0
 555.216796875 773.108398438 555.990234375 761.962890625 555.990234375 748 c 0
 555.990234375 662.213867188 552.700195312 574.703125 552.700195312 489.532226562 c 0
 552.700195312 411.869140625 555.458007812 337.317382812 565.940429688 269.37890625 c 0
 578.787109375 186.111328125 603.076171875 113.389648438 646.473632812 55.6953125 c 1
 683.931640625 12.32421875 l 2
 687.970703125 7.646484375 689.990234375 1.8232421875 689.990234375 -4 c 0
 689.990234375 -10.3994140625 687.55078125 -16.7998046875 682.672851562 -21.677734375 c 0
 677.794921875 -26.5556640625 671.39453125 -28.9951171875 664.995117188 -28.9951171875 c 0
 657.931640625 -28.9951171875 650.754882812 -25.7607421875 646.05859375 -20.32421875 c 2
 608.05859375 23.67578125 l 2
 607.702148438 24.0888671875 607.361328125 24.5107421875 607.036132812 24.94140625 c 0
 520.278320312 139.685546875 502.65234375 296.38671875 502.65234375 488.03515625 c 0
 502.65234375 570.096679688 505.704101562 654.0703125 505.979492188 736.17578125 c 1
 503.232421875 731.141601562 500.37890625 725.643554688 497.508789062 719.77734375 c 0
 463.084960938 649.422851562 421.359375 530.18359375 400.840820312 449.33984375 c 0
 392.270507812 415.5703125 387.841796875 387.1953125 387.841796875 376.114257812 c 0
EndSplineSet
EndChar
StartChar: N
Encoding: 78 78 40
Width: 690
Flags: HW
VStem: 25 63<84 103.207> 120 70<191.609 608.497> 134 71<32.2253 413.512> 249 70<167.326 534.623 539.968 689.672> 258 70<322.377 669.813> 327 71<18 80.2224>
LayerCount: 2
Fore
SplineSet
204 172 m 0xc8
 204 156 205 140 205 123 c 0xa0
 205 82 201 34 176 9 c 2
 141 -26 l 2
 130 -37 116 -43 97 -43 c 0
 91 -42 86 -39 83 -36 c 2
 48 -1 l 2
 34 13 35 41 27 60 c 0
 25 64 25 68 25 72 c 0
 25 90 40 105 58 105 c 0
 72 105 83 96 88 84 c 2
 98 60 l 2
 102 51 104 39 106 28 c 1
 111 29 116 29 120 31 c 0xc0
 132 57 134 92 134 123 c 0xa0
 134 140 133 156 133 172 c 0
 128 255 120 347 120 429 c 0
 120 553 139 665 221 754 c 0
 222 756 224 757 225 758 c 2
 261 794 l 2
 269 802 274 805 278 805 c 0
 280 805 281 804 282 803 c 2
 317 767 l 2
 320 764 322 757 322 748 c 0
 322 727 315 691 315 670 c 0
 315 666 315 663 316 660 c 0
 325 621 328 580 328 538 c 0xc8
 328 466 319 391 319 319 c 0
 319 267 324 218 340 172 c 0
 341 168 343 162 346 155 c 1
 383 369 453 557 515 748 c 1
 529 767 545 787 559 806 c 0
 564 813 572 817 581 817 c 0
 597 817 610 805 610 789 c 0
 610 783 608 777 604 772 c 2
 586 748 l 1
 511 518 424 292 398 18 c 1
 327 18 l 1
 327 38 276 145 269 172 c 0
 253 218 249 267 249 319 c 0x94
 249 391 258 466 258 538 c 0
 258 580 254 621 245 660 c 0
 244 663 244 666 244 670 c 0
 244 676 245 683 246 690 c 1
 203 614 190 525 190 429 c 0
 190 347 199 255 204 172 c 0xc8
EndSplineSet
EndChar
StartChar: O
Encoding: 79 79 41
Width: 508
Flags: HW
LayerCount: 2
Fore
SplineSet
273.491210938 26.9951171875 m 0
 279.885742188 26.9951171875 288.62109375 30.3154296875 299.59765625 41.2919921875 c 0
 310.798828125 52.494140625 322.928710938 70.7392578125 334.1171875 93.1513671875 c 0
 348.100585938 121.1640625 360.764648438 155.41796875 371.368164062 190.38671875 c 0
 394.865234375 267.875 408.19921875 350.899414062 408.491210938 375.205078125 c 0
 403.388671875 448.372070312 382.87890625 520.340820312 353.001953125 588.25390625 c 1
 352.09375 535.07421875 335.288085938 484.556640625 297.770507812 447.038085938 c 0
 292.427734375 441.6953125 286.686523438 436.678710938 280.547851562 432.0390625 c 0
 276.107421875 428.682617188 270.799804688 427.004882812 265.491210938 427.004882812 c 0
 259.091796875 427.004882812 252.692382812 429.444335938 247.814453125 434.322265625 c 0
 242.935546875 439.200195312 240.49609375 445.600585938 240.49609375 452 c 0
 240.49609375 459.68359375 244.461914062 467.446289062 250.435546875 471.9609375 c 0
 283.896484375 497.252929688 303.040039062 541.408203125 303.040039062 592.1875 c 0
 303.040039062 639.272460938 285.935546875 686.215820312 257.815429688 714.3359375 c 0
 239.5859375 732.564453125 217.05859375 743.721679688 188.956054688 743.721679688 c 0
 181.734375 743.721679688 174.145507812 742.985351562 166.166015625 741.442382812 c 0
 144.043945312 737.2578125 125.834960938 726.838867188 110.728515625 711.732421875 c 0
 79.8935546875 680.897460938 62.486328125 628.939453125 62.486328125 578 c 2
 62.486328125 532 l 2
 62.486328125 531.709960938 62.4814453125 531.418945312 62.4716796875 531.12890625 c 0
 59.7431640625 452.303710938 50.0234375 366.6328125 50.0234375 289.010742188 c 0
 50.0234375 271.654296875 50.52734375 254.763671875 51.728515625 238.44140625 c 0
 56.984375 167.048828125 75.12890625 108.038085938 119.48046875 63.6865234375 c 0
 128.192382812 54.9736328125 138.014648438 46.728515625 149.133789062 38.9951171875 c 1
 153.491210938 38.9951171875 l 2
 192.977539062 38.9951171875 235.147460938 26.9951171875 273.491210938 26.9951171875 c 0
12.49609375 532.4375 m 1
 12.49609375 578 l 2
 12.49609375 639.140625 32.033203125 703.748046875 75.3740234375 747.087890625 c 0
 96.8349609375 768.549804688 124.241210938 784.39453125 156.817382812 790.557617188 c 0
 167.581054688 792.638671875 178.045898438 793.627929688 188.166015625 793.627929688 c 0
 230.216796875 793.627929688 266.317382812 776.543945312 293.170898438 749.69140625 c 0
 299.48046875 743.380859375 305.296875 736.58203125 310.6171875 729.375 c 1
 313.469726562 730.455078125 316.48046875 730.995117188 319.491210938 730.995117188 c 0
 328.1796875 730.995117188 336.6640625 725.889648438 340.865234375 718.9765625 c 0
 402.323242188 617.857421875 450.043945312 501.063476562 458.428710938 377.708007812 c 0
 458.467773438 377.139648438 458.486328125 376.569335938 458.486328125 376 c 0
 458.486328125 341.841796875 444.436523438 259.03515625 419.202148438 175.818359375 c 0
 408.030273438 138.977539062 394.657226562 102.458007812 378.85546875 70.8037109375 c 0
 366.21484375 45.4814453125 352.116210938 23.1005859375 334.953125 5.9365234375 c 0
 318.639648438 -10.3759765625 298.108398438 -22.9951171875 273.491210938 -22.9951171875 c 0
 249.6640625 -22.9951171875 226.823242188 -19.5224609375 205.872070312 -16.4267578125 c 0
 186.266601562 -13.529296875 168.297851562 -10.9951171875 153.491210938 -10.9951171875 c 2
 141.491210938 -10.9951171875 l 2
 136.736328125 -10.9951171875 131.98046875 -9.6484375 127.849609375 -6.955078125 c 0
 111.477539062 3.7197265625 96.939453125 15.5166015625 84.125 28.3310546875 c 0
 28.0390625 84.4169921875 7.568359375 157.392578125 1.8740234375 234.744140625 c 0
 0.548828125 252.748046875 0 271.072265625 0 289.638671875 c 0
 0 369.283203125 9.732421875 453.233398438 12.49609375 532.4375 c 1
EndSplineSet
EndChar
StartChar: P
Encoding: 80 80 42
Width: 631
Flags: HW
LayerCount: 2
Fore
SplineSet
326.995117188 446.995117188 m 0
 410.40625 446.995117188 532 518.19140625 532 614 c 0
 532 681.762695312 510.952148438 730.654296875 476.516601562 765.08984375 c 0
 433.448242188 808.158203125 365.729492188 831.004882812 282.995117188 831.004882812 c 0
 234.888671875 831.004882812 195.078125 829.6796875 165.376953125 823.18359375 c 0
 141.541992188 817.969726562 124.895507812 809.827148438 113.026367188 797.95703125 c 0
 97.455078125 782.38671875 86.158203125 756.377929688 83.9638671875 708.838867188 c 0
 83.6904296875 702.93359375 83.5537109375 697.024414062 83.5537109375 691.12109375 c 0
 83.5537109375 644.916015625 91.974609375 599.067382812 109.90234375 558.0234375 c 0
 111.293945312 554.836914062 111.990234375 551.41796875 111.990234375 548 c 0
 111.990234375 541.600585938 109.55078125 535.200195312 104.672851562 530.322265625 c 0
 99.794921875 525.444335938 93.39453125 523.004882812 86.9951171875 523.004882812 c 0
 76.97265625 523.004882812 67.73046875 529.63671875 64.087890625 537.9765625 c 0
 43.041015625 586.16015625 33.560546875 638.758789062 33.560546875 691.018554688 c 0
 33.560546875 754.3984375 46.49609375 802.137695312 77.6708984375 833.3125 c 0
 122.735351562 878.376953125 193.45703125 880.995117188 282.995117188 880.995117188 c 0
 374.3671875 880.995117188 456.249023438 856.069335938 511.872070312 800.4453125 c 0
 556.625 755.693359375 581.990234375 692.615234375 581.990234375 614 c 0
 581.990234375 561.598632812 556.919921875 515.98828125 521.903320312 480.971679688 c 0
 469.916015625 428.983398438 394.2265625 397.004882812 326.995117188 397.004882812 c 0
 293.76953125 397.004882812 266.08984375 410.97265625 245.8046875 431.2578125 c 0
 208.947265625 468.115234375 194 524.024414062 194 570 c 0
 194 571.803710938 193.962890625 573.419921875 193.962890625 575.4765625 c 0
 193.962890625 579.387695312 194.123046875 584.474609375 195.168945312 590.278320312 c 0
 196.258789062 596.333007812 198.252929688 604.926757812 206.260742188 612.935546875 c 0
 212.572265625 619.24609375 221.966796875 622.995117188 230.995117188 622.995117188 c 0
 237.39453125 622.995117188 243.794921875 620.555664062 248.672851562 615.677734375 c 0
 253.55078125 610.799804688 255.990234375 604.399414062 255.990234375 598 c 0
 255.990234375 589.365234375 250.944335938 580.913085938 244.083007812 576.694335938 c 0
 244.021484375 575.427734375 243.978515625 574.022460938 243.978515625 572.591796875 c 0
 243.978515625 571.7265625 243.990234375 570.90625 243.990234375 570 c 0
 243.990234375 534.251953125 257.673828125 490.099609375 281.16015625 466.61328125 c 0
 293.6796875 454.09375 308.176757812 446.995117188 326.995117188 446.995117188 c 0
160.020507812 173.056640625 m 0
 160.020507812 177.129882812 160 181.115234375 160 185 c 0
 160 254.864257812 154.658203125 325.087890625 152.018554688 394.037109375 c 0
 152.008789062 394.296875 152.002929688 394.557617188 152.000976562 394.817382812 c 2
 149.999023438 671 l 2
 149.999023438 677.399414062 152.439453125 683.799804688 157.317382812 688.677734375 c 0
 162.1953125 693.555664062 168.595703125 695.995117188 174.995117188 695.995117188 c 0
 181.39453125 695.995117188 187.794921875 693.555664062 192.672851562 688.677734375 c 0
 197.504882812 683.845703125 199.943359375 677.521484375 199.989257812 671.182617188 c 2
 201.986328125 395.57421875 l 1
 204.663085938 325.920898438 209.990234375 256.802734375 209.990234375 185 c 0
 209.990234375 180.303710938 210.017578125 175.756835938 210.017578125 170.708984375 c 0
 210.017578125 147.814453125 209.48828125 113.711914062 203.5546875 80.1474609375 c 0
 198.21875 49.9677734375 188.8671875 18.1875 166.264648438 -4.4150390625 c 0
 151.977539062 -18.7021484375 132.14453125 -27.9951171875 108.995117188 -27.9951171875 c 0
 86.4306640625 -27.9951171875 68.458984375 -18.123046875 56.1484375 -5.8125 c 0
 44.947265625 5.388671875 37.9091796875 17.7021484375 31.716796875 28.029296875 c 0
 25.2685546875 38.7802734375 20.203125 46.4365234375 15.3173828125 51.322265625 c 0
 11.1279296875 55.51171875 8.7373046875 60.82421875 8.1455078125 66.2939453125 c 2
 0.1455078125 140.293945312 l 2
 0.048828125 141.193359375 0 142.096679688 0 143 c 0
 0 149.399414062 2.439453125 155.799804688 7.3173828125 160.677734375 c 0
 12.1953125 165.555664062 18.595703125 167.995117188 24.9951171875 167.995117188 c 0
 37.6806640625 167.995117188 48.5380859375 157.78515625 49.8447265625 145.706054688 c 2
 56.9541015625 79.939453125 l 1
 69.9228515625 64.65234375 79.408203125 41.638671875 91.50390625 29.54296875 c 0
 96.8525390625 24.1943359375 100.853515625 21.9951171875 108.995117188 21.9951171875 c 0
 118.893554688 21.9951171875 124.9375 24.96875 130.91015625 30.9404296875 c 0
 140.995117188 41.0263671875 149.706054688 62.7392578125 154.33203125 88.9052734375 c 0
 159.533203125 118.327148438 160.020507812 150.872070312 160.020507812 173.056640625 c 0
EndSplineSet
EndChar
StartChar: Q
Encoding: 81 81 43
Width: 548
Flags: HW
HStem: -123 70<243.482 349> 715 71<143.894 335.914>
VStem: 25 71<238.639 637.223> 361 71<-52.436 38.2598> 397 71<246.75 626.549>
LayerCount: 2
Fore
SplineSet
96 396 m 0xe8
 96 309 114 201 170 130 c 1
 194 111 224 98 259 93 c 0
 261 95 263 97 265 99 c 0
 282 111 301 124 317 138 c 0
 377 209 397 302 397 397 c 0
 397 413 396 430 395 446 c 1
 396 459 397 473 397 487 c 0
 397 557 382 636 343 689 c 1
 320 705 292 715 259 715 c 0
 250 715 241 714 231 713 c 1
 226 713 220 713 215 713 c 0
 186 713 162 706 143 694 c 1
 99 629 97 519 96 438 c 0
 96 423 96 411 96 396 c 0xe8
432 -6 m 0xf0
 432 -7 432 -7 432 -8 c 0
 432 -32 418 -48 404 -64 c 0
 397 -72 389 -79 384 -88 c 1
 349 -123 l 1
 277 -123 l 2
 257 -123 241 -108 241 -88 c 0
 241 -68 257 -53 277 -53 c 2
 343 -53 l 1
 353 -41 361 -27 361 -8 c 0
 361 -7 361 -7 361 -6 c 0
 361 12 350 27 337 41 c 1
 334 38 l 2
 323 27 302 21 285 21 c 0
 284 21 282 21 281 21 c 0
 226 23 184 43 152 75 c 2
 117 111 l 2
 48 180 25 300 25 396 c 0
 25 411 26 423 26 438 c 0
 27 528 29 654 89 714 c 2
 124 749 l 2
 146 771 175 784 215 784 c 0
 220 784 226 783 231 783 c 1
 241 784 250 786 259 786 c 0
 302 786 335 770 361 744 c 2xf0
 397 709 l 2
 448 658 468 566 468 487 c 0
 468 473 467 459 466 446 c 1
 467 430 468 413 468 397 c 0xe8
 468 294 444 192 371 119 c 2
 356 104 l 1
 374 104 l 1
 376 100 377 95 377 91 c 0
 377 87 377 84 375 81 c 1
 388 54 432 30 432 -6 c 0xf0
EndSplineSet
EndChar
StartChar: R
Encoding: 82 82 44
Width: 702
Flags: HW
HStem: -51 70<115.242 185.586> -33 70<442.68 521.892> 751 70<175.846 382.127>
VStem: 59 70<502.781 679.731> 152 70<505.989 691.417> 206 71<29.9128 404.268> 475 71<480.11 660.276> 560 62<75.7983 145.556>
LayerCount: 2
Fore
SplineSet
590 147 m 0x73
 608 147 622 133 622 115 c 0
 622 110 622 106 620 102 c 2
 608 74 l 1
 599 65 590 57 582 48 c 0
 576 41 570 34 563 27 c 2
 528 -9 l 2
 514 -23 498 -33 480 -33 c 0
 460 -33 443 -24 428 -9 c 2
 393 26 l 2
 358 61 338 127 331 166 c 0
 320 225 321 287 314 349 c 0
 311 352 307 355 304 358 c 2
 269 393 l 2
 242 420 225 461 225 499 c 0
 225 506 225 513 228 516 c 2
 264 552 l 2
 265 553 266 553 268 553 c 0
 273 553 279 549 286 542 c 2
 321 507 l 2
 338 490 359 458 362 444 c 0
 365 437 367 431 369 424 c 1
 394 432 420 447 442 465 c 1
 462 491 475 519 475 548 c 0
 475 608 460 661 429 702 c 1
 391 731 338 749 268 749 c 1
 258 750 250 751 241 751 c 0
 214 751 193 744 175 733 c 1
 140 680 133 600 129 534 c 0
 128 516 113 500 94 500 c 0
 75 500 59 517 59 536 c 0
 59 537 59 537 59 538 c 0
 64 611 72 704 121 753 c 2
 156 788 l 2
 176 808 204 821 241 821 c 0
 250 821 258 820 268 819 c 1
 350 819 409 796 448 757 c 2
 484 721 l 2
 527 678 546 617 546 548 c 0
 546 512 526 476 496 446 c 2
 460 411 l 2
 438 389 412 371 384 359 c 1
 393 295 390 229 402 166 c 0
 408 134 421 84 446 47 c 1
 456 41 468 37 480 37 c 0
 492 37 502 42 512 49 c 0
 521 59 529 66 538 75 c 1
 545 92 553 111 560 128 c 0
 565 140 577 147 590 147 c 0x73
276 258 m 0
 276 233 277 210 277 181 c 0
 277 117 271 36 236 1 c 2
 201 -34 l 2
 190 -45 177 -51 160 -51 c 0
 140 -51 114 -38 96 -20 c 2
 64 12 l 1
 63 11 60 9 60 9 c 2
 25 44 l 0
 25 45 61 85 64 88 c 2
 99 124 l 2
 100 124 l 2
 135 89 l 2
 135 89 123 75 108 58 c 1
 110 58 l 1
 110 50 112 42 116 34 c 1
 131 25 147 19 160 19 c 0
 168 19 176 20 182 23 c 1
 203 64 206 128 206 181 c 0xb7
 206 210 205 233 205 258 c 0
 205 389 167 518 149 640 c 1
 150 648 151 656 152 664 c 0
 154 681 169 694 187 694 c 0
 206 694 222 678 222 659 c 0xbb
 222 652 221 646 220 640 c 1
 238 518 276 389 276 258 c 0
37 55 m 0
 36 52 34 48 34 44 c 0
 34 30 45 20 58 18 c 1024
EndSplineSet
EndChar
StartChar: S
Encoding: 83 83 45
Width: 581
Flags: HW
LayerCount: 2
Fore
SplineSet
129.990234375 678 m 0
 129.990234375 600.075195312 160.015625 549.286132812 203.953125 505.348632812 c 0
 212.4453125 496.856445312 221.494140625 488.647460938 230.952148438 480.620117188 c 1
 268.565429688 554.16796875 300 621.625976562 300 716 c 0
 300 732.7578125 295.69140625 740.48046875 290.745117188 745.426757812 c 0
 282.688476562 753.483398438 264.350585938 759.004882812 236.995117188 759.004882812 c 0
 204.740234375 759.004882812 180.665039062 758.333007812 165.110351562 755.3671875 c 0
 152.55078125 752.971679688 146.549804688 749.559570312 142.95703125 745.966796875 c 0
 140.064453125 743.07421875 137.171875 738.594726562 134.75390625 729.833007812 c 0
 131.740234375 718.915039062 129.990234375 701.803710938 129.990234375 678 c 0
252.995117188 150.995117188 m 0
 259.115234375 150.995117188 265.235351562 148.764648438 270.025390625 144.302734375 c 1
 270.025390625 144.302734375 279.3046875 135.78125 292.649414062 133.533203125 c 0
 295.107421875 135.27734375 297.081054688 136.959960938 298.6328125 138.51171875 c 0
 304.1640625 144.04296875 305.340820312 147.634765625 305.340820312 152.451171875 c 0
 305.340820312 155.250976562 304.671875 158.63671875 302.901367188 162.653320312 c 0
 300.614257812 167.840820312 296.505859375 173.75 291.0390625 179.216796875 c 0
 277.467773438 192.788085938 257.059570312 201.600585938 243.689453125 201.600585938 c 0
 236.756835938 201.600585938 232.3984375 199.673828125 229.21875 196.494140625 c 0
 225.439453125 192.713867188 219.990234375 183.307617188 219.990234375 162 c 0
 219.990234375 146.200195312 225.821289062 110.557617188 237.342773438 77.67578125 c 0
 246.62109375 51.1982421875 259.723632812 26.572265625 273.017578125 13.2783203125 c 0
 282.1171875 4.1787109375 289.875976562 0.9951171875 296.995117188 0.9951171875 c 0
 328.83203125 0.9951171875 358.500976562 15.5810546875 382.362304688 39.4423828125 c 0
 412.912109375 69.9921875 432 114.7734375 432 154 c 0
 432 224.181640625 404.57421875 270.758789062 363.283203125 312.049804688 c 0
 331.048828125 344.284179688 287.642578125 374.340820312 247.91796875 403.767578125 c 1
 226.346679688 360.295898438 206.436523438 315.088867188 193.251953125 261.94921875 c 0
 189.547851562 247.021484375 185.924804688 231.651367188 182.247070312 216.47265625 c 1
 185.452148438 222.15625 189.314453125 227.299804688 193.86328125 231.848632812 c 0
 207.95703125 245.942382812 225.262695312 251.600585938 244.140625 251.600585938 c 0
 275.130859375 251.600585938 305.10546875 235.860351562 326.39453125 214.572265625 c 0
 338.553710938 202.413085938 348.543945312 187.685546875 353.01953125 170.31640625 c 0
 354.459960938 164.725585938 355.201171875 158.948242188 355.201171875 153.124023438 c 0
 355.201171875 135.606445312 348.5 117.668945312 333.98828125 103.157226562 c 0
 327.584960938 96.7529296875 320.017578125 91.1650390625 311.3046875 86.2353515625 c 0
 307.499023438 84.08203125 303.247070312 83.0048828125 298.995117188 83.0048828125 c 0
 282.053710938 83.0048828125 267.94140625 87.99609375 257.645507812 93.14453125 c 0
 244.716796875 99.609375 237.133789062 106.608398438 235.96484375 107.697265625 c 0
 230.823242188 112.487304688 228 119.28515625 228 126 c 0
 228 132.399414062 230.439453125 138.799804688 235.317382812 143.677734375 c 0
 240.1953125 148.555664062 246.595703125 150.995117188 252.995117188 150.995117188 c 0
80 678 m 0
 80 724.395507812 84.525390625 758.24609375 107.6015625 781.322265625 c 0
 120.822265625 794.54296875 137.723632812 801.041015625 155.688476562 804.467773438 c 0
 178.2890625 808.77734375 204.279296875 808.995117188 236.995117188 808.995117188 c 0
 268.083984375 808.995117188 302.051757812 804.831054688 326.100585938 780.782226562 c 0
 341.973632812 764.909179688 349.990234375 742.38671875 349.990234375 716 c 0
 349.990234375 605.306640625 310.54296875 526.049804688 270.94140625 449.002929688 c 1
 280.276367188 442.000976562 289.7890625 435.036132812 299.370117188 428.03125 c 0
 384.0234375 366.137695312 481.990234375 295.889648438 481.990234375 154 c 0
 481.990234375 99.6123046875 457.455078125 43.82421875 417.717773438 4.0869140625 c 0
 386.524414062 -27.10546875 344.780273438 -48.9951171875 296.995117188 -48.9951171875 c 0
 272.799804688 -48.9951171875 252.770507812 -37.185546875 237.662109375 -22.0771484375 c 0
 215.490234375 0.095703125 200.8125 30.7138671875 190.168945312 61.0888671875 c 0
 176.790039062 99.2705078125 170 137.204101562 170 162 c 0
 170 164.626953125 170.059570312 167.211914062 170.180664062 169.752929688 c 1
 154.634765625 114.725585938 132.706054688 59.5166015625 90.3251953125 17.1357421875 c 0
 77.970703125 4.78125 63.916015625 -6.3388671875 47.990234375 -15.8203125 c 1
 44.3916015625 -24.263671875 35.1044921875 -30.9951171875 24.9951171875 -30.9951171875 c 0
 18.595703125 -30.9951171875 12.1953125 -28.5556640625 7.3173828125 -23.677734375 c 0
 2.439453125 -18.7998046875 0 -12.3994140625 0 -6 c 2
 0 0 l 2
 0 9.380859375 5.8857421875 18.2705078125 13.51171875 22.2119140625 c 0
 29.65234375 30.5537109375 43.2177734375 40.73828125 54.970703125 52.4912109375 c 0
 106.71484375 104.236328125 123.96484375 190.322265625 144.73828125 274.05078125 c 0
 160.137695312 336.11328125 183.750976562 387.637695312 207.584960938 434.955078125 c 1
 140.376953125 490.0546875 80 561.619140625 80 678 c 0
EndSplineSet
EndChar
StartChar: T
Encoding: 84 84 46
Width: 547
Flags: HW
HStem: 659 70<274.392 350> 749 70<96.088 180.01>
VStem: 25 72<678.362 748> 248 71<40 106.344> 350 71<34 659>
LayerCount: 2
Fore
SplineSet
150 636 m 0
 150 621 138 609 123 609 c 0
 113 609 105 614 99 620 c 2
 64 655 l 2
 43 676 32 711 26 746 c 0
 25 750 25 754 25 757 c 0
 25 765 27 771 31 775 c 2
 66 810 l 2
 73 817 87 819 105 819 c 0
 137 819 179 799 221 777 c 0
 266 754 314 729 353 729 c 0
 355 729 355 730 357 730 c 1
 362 758 l 2
 363 766 367 772 370 775 c 2
 405 811 l 2
 408 814 411 814 414 814 c 0
 417 814 420 813 423 810 c 2
 459 774 l 2
 462 771 465 766 467 760 c 1
 460 740 450 725 440 715 c 2
 423 697 l 1
 421 686 l 1
 421 30 l 1
 416 22 410 12 404 6 c 2
 369 -29 l 2
 364 -34 359 -37 353 -37 c 0
 348 -37 343 -35 337 -31 c 0
 318 -18 303 -8 283 5 c 1
 248 40 l 1
 248 74 l 2
 248 94 263 109 283 109 c 0
 303 109 319 94 319 74 c 2
 319 52 l 1
 325 48 330 44 337 39 c 0
 342 36 346 35 350 34 c 1
 350 659 l 1
 311 660 265 683 221 706 c 0
 179 728 137 749 105 749 c 0
 102 749 99 748 96 748 c 1
 96 747 97 747 97 746 c 0
 102 719 109 692 122 672 c 1
 140 658 l 2
 146 653 150 645 150 636 c 0
EndSplineSet
EndChar
StartChar: U
Encoding: 85 85 47
Width: 853
Flags: HW
HStem: -36 70<385.744 487.015 648.376 704.078> 650 71<106.955 188.94> 723 71<240.69 269.859>
VStem: 25 70<771 807.531> 259 70<155.784 623.22> 280 71<434.78 721.236> 503 71<346.959 535.306> 580 71<345.973 533.952>
LayerCount: 2
Fore
SplineSet
259 385 m 0xfb
 259 482 280 576 280 673 c 0
 280 692 276 708 270 721 c 1
 267 722 264 723 260 723 c 0
 258 723 255 722 253 722 c 0
 252 720 252 719 251 717 c 0
 248 710 245 705 240 700 c 2
 205 664 l 2
 195 654 181 650 166 650 c 0
 139 650 109 664 87 686 c 2
 52 721 l 2
 38 735 27 752 25 771 c 0
 25 772 25 774 25 775 c 0
 25 794 41 810 60 810 c 0
 78 810 93 796 95 779 c 2
 96 771 l 2
 97 760 101 750 107 740 c 1
 126 728 147 721 166 721 c 0
 172 721 178 722 183 723 c 1
 187 733 192 740 198 746 c 2
 233 782 l 2
 241 790 251 794 260 794 c 0
 271 794 281 788 290 779 c 2
 326 744 l 2
 341 729 351 704 351 673 c 0xf7
 351 576 329 482 329 385 c 0
 329 364 331 346 332 326 c 0
 336 262 346 112 390 40 c 1
 397 36 405 34 414 34 c 0
 445 34 471 44 494 61 c 1
 512 84 526 113 538 146 c 1
 513 231 503 331 503 431 c 0
 503 555 517 680 533 781 c 1
 604 781 l 1
 632 710 651 580 651 445 c 0
 651 339 639 229 609 146 c 1
 620 110 634 76 651 46 c 1
 660 42 671 41 682 41 c 0
 688 41 694 41 700 42 c 1
 716 69 l 2
 721 78 731 85 742 85 c 0
 759 85 773 71 773 54 c 0
 773 48 772 44 769 39 c 2
 753 11 l 1
 718 -24 l 1
 705 -28 693 -30 682 -30 c 0
 662 -30 645 -24 632 -11 c 2
 596 24 l 2
 592 28 589 32 586 37 c 0
 580 47 574 57 569 67 c 1
 562 57 555 49 547 41 c 2
 512 6 l 2
 485 -21 453 -36 414 -36 c 0
 398 -36 383 -29 371 -17 c 2
 336 18 l 2
 277 77 266 254 261 326 c 0
 260 346 259 364 259 385 c 0xfb
580 445 m 0
 580 476 579 507 577 537 c 1
 575 502 574 466 574 431 c 0
 574 402 575 373 577 345 c 1
 580 378 580 412 580 445 c 0
EndSplineSet
EndChar
StartChar: V
Encoding: 86 86 48
Width: 854
Flags: HW
HStem: 519 70<657.05 698.854> 738 70<584.405 681>
VStem: 25 70<647.469 743.452> 703 71<590.296 725.554>
LayerCount: 2
Fore
SplineSet
774 663 m 0
 774 661 774 658 774 656 c 0
 771 623 775 585 757 567 c 2
 722 531 l 2
 714 523 701 519 681 519 c 0
 655 519 643 523 635 531 c 2
 599 567 l 2
 591 575 589 584 587 595 c 0
 584 607 582 621 571 632 c 0
 567 637 564 643 564 650 c 0
 564 664 576 675 590 675 c 0
 597 675 603 672 608 667 c 2
 642 632 l 2
 654 619 656 606 659 591 c 1
 665 590 672 589 681 589 c 0
 687 589 693 590 698 591 c 1
 702 610 701 634 703 656 c 0
 703 658 703 661 703 663 c 0
 703 690 690 716 674 738 c 1
 624 737 584 721 552 695 c 1
 464 585 451 381 441 227 c 0
 437 164 434 110 426 74 c 0
 422 57 418 47 414 43 c 2
 378 8 l 2
 376 6 375 5 373 5 c 0
 371 5 368 6 365 9 c 2
 330 44 l 2
 280 94 201 579 187 668 c 0
 183 697 173 731 157 759 c 1
 143 758 130 754 119 747 c 1
 104 724 97 701 95 677 c 0
 93 659 78 645 60 645 c 0
 41 645 25 661 25 680 c 0
 25 681 25 682 25 683 c 0
 27 709 41 743 65 767 c 2
 100 802 l 2
 116 818 138 829 162 829 c 0
 164 829 165 830 166 829 c 2
 201 793 l 2
 231 763 252 712 258 668 c 0
 269 599 319 292 364 134 c 1
 367 162 368 193 370 227 c 0
 380 390 394 610 498 714 c 2
 533 749 l 2
 570 786 618 808 681 808 c 1
 717 773 l 1
 741 742 774 705 774 663 c 0
EndSplineSet
EndChar
StartChar: W
Encoding: 87 87 49
Width: 956
Flags: HW
HStem: -52 70<550.148 647.232> -39 70<291.791 425.864> 495 71<613.034 723> 667 71<245.328 286.719> 753 70<127.376 184.104 627.563 681.072>
VStem: 215 71<38.4161 329.774> 476 71<134.63 173> 524 71<587.2 724.413> 738 71<147.635 498.472>
LayerCount: 2
Fore
SplineSet
730 499 m 0xbe80
 715 499 702 495 687 495 c 0
 651 495 616 509 592 533 c 2
 557 568 l 2
 538 587 525 613 524 644 c 0
 524 677 541 729 573 761 c 2
 608 796 l 2
 624 812 644 823 667 823 c 0
 675 823 682 820 689 813 c 2
 724 777 l 2
 756 745 780 649 792 581 c 1
 794 583 797 585 799 586 c 2
 832 616 l 2
 837 620 843 623 850 623 c 0
 864 623 876 611 876 597 c 0
 876 589 872 583 867 578 c 0
 845 558 823 537 801 517 c 1
 802 504 802 492 803 478 c 0
 805 436 809 387 809 337 c 0
 809 224 794 103 728 37 c 2
 693 2 l 2
 664 -27 625 -45 574 -48 c 1
 567 -51 561 -52 555 -52 c 0xbd80
 546 -52 539 -49 534 -44 c 2
 499 -9 l 2
 490 0 486 14 482 28 c 1
 480 25 477 23 474 20 c 2
 438 -15 l 2
 424 -29 406 -39 367 -39 c 0x7d80
 318 -39 288 -35 271 -18 c 2
 235 18 l 2xbd80
 220 33 215 58 215 98 c 0
 215 213 235 325 255 437 c 0
 269 515 284 593 291 673 c 1
 286 669 281 667 275 667 c 0
 273 667 270 668 268 669 c 0
 251 669 238 677 228 687 c 2
 192 722 l 2
 184 730 177 740 171 749 c 0
 169 749 168 750 166 750 c 0
 145 750 135 747 127 743 c 1
 119 735 l 1
 113 728 109 720 103 713 c 2
 70 678 l 2
 65 673 59 669 51 669 c 0
 37 669 25 681 25 695 c 0
 25 702 28 708 32 713 c 0
 41 722 46 733 55 742 c 2
 78 765 l 2
 80 768 82 770 84 772 c 2
 119 807 l 2
 128 816 137 820 166 820 c 0
 174 820 182 816 188 810 c 2
 223 775 l 2
 231 767 238 754 245 744 c 0
 252 741 259 739 268 739 c 0
 270 738 273 738 275 738 c 0
 276 738 276 738 277 738 c 0
 281 746 284 754 287 761 c 0
 290 768 293 774 294 775 c 2
 329 810 l 2
 330 810 l 0
 366 775 l 2
 367 774 367 771 367 765 c 0
 367 764 367 762 367 761 c 0
 363 536 286 325 286 98 c 0
 286 73 288 54 293 40 c 1
 311 34 334 31 367 31 c 0x7d80
 392 31 409 36 422 43 c 0
 427 49 431 54 437 60 c 2
 459 82 l 1
 476 173 l 1
 547 173 l 1
 550 38 l 1
 552 31 553 24 555 18 c 1
 560 18 567 19 574 22 c 0
 615 24 648 37 674 56 c 1
 726 124 738 234 738 337 c 0
 738 396 735 448 732 499 c 0
 730 499 l 0xbe80
687 566 m 0
 695 566 704 566 712 568 c 0
 715 569 719 569 723 569 c 1
 713 625 696 706 671 752 c 0
 670 752 668 753 667 753 c 0
 652 753 639 748 627 741 c 1
 606 710 595 671 595 644 c 0
 596 623 602 604 612 588 c 1
 634 574 660 566 687 566 c 0
EndSplineSet
EndChar
StartChar: X
Encoding: 88 88 50
Width: 885
Flags: HW
LayerCount: 2
Fore
SplineSet
50.5283203125 531.274414062 m 0
 38.7431640625 574.966796875 35.97265625 616.396484375 35.97265625 663.62109375 c 0
 35.97265625 673.08203125 36 682.389648438 36 692 c 0
 36 694.1484375 36.275390625 696.296875 36.8251953125 698.388671875 c 0
 48.6328125 743.291015625 94.78515625 773.567382812 133.49609375 787.513671875 c 0
 162.779296875 798.063476562 192.7109375 800.995117188 222.995117188 800.995117188 c 0
 265.30859375 800.995117188 293.749023438 791.967773438 312.836914062 772.879882812 c 0
 326.346679688 759.370117188 332.556640625 744.2421875 338.115234375 731.778320312 c 0
 345.845703125 714.443359375 353.514648438 699.4296875 368.099609375 687.124023438 c 0
 372.719726562 683.225585938 375.8984375 677.43359375 376.737304688 671.55859375 c 2
 388.737304688 587.55859375 l 2
 388.90625 586.37890625 388.990234375 585.189453125 388.990234375 584 c 0
 388.990234375 583.609375 388.981445312 583.219726562 388.962890625 582.830078125 c 2
 382.962890625 453.830078125 l 2
 382.846679688 451.330078125 382.357421875 448.844726562 381.49609375 446.463867188 c 2
 351.30859375 363.090820312 l 1
 363 369.908203125 374.60546875 376.772460938 386.080078125 383.711914062 c 1
 386.112304688 392.814453125 386.418945312 401.864257812 387 410.833007812 c 0
 387.051757812 469.458984375 392.588867188 542.084960938 411.986328125 610.549804688 c 0
 427.552734375 665.490234375 452.116210938 718.383789062 491.936523438 758.204101562 c 0
 530.92578125 797.193359375 584.166015625 821.995117188 651.995117188 821.995117188 c 0
 659.490234375 821.995117188 668.71484375 823.821289062 678.578125 823.821289062 c 0
 694.392578125 823.821289062 706.002929688 821.088867188 715.239257812 811.853515625 c 0
 721.3671875 805.724609375 724.990234375 796.6171875 724.990234375 788 c 0
 724.990234375 776.982421875 725.993164062 764.8046875 725.993164062 753.16796875 c 0
 725.993164062 746.78125 725.694335938 740.181640625 724.740234375 733.462890625 c 0
 698.307617188 547.326171875 570.62109375 439.815429688 436.977539062 356.159179688 c 1
 442.833984375 267.435546875 477.568359375 176.428710938 536.1640625 117.833007812 c 0
 575.025390625 78.9716796875 623.87109375 53.9990234375 683.28125 50.9619140625 c 0
 691.580078125 50.5380859375 699.559570312 50.2919921875 707.1015625 50.2919921875 c 0
 734.540039062 50.2919921875 759.083984375 53.931640625 771.5546875 66.4013671875 c 0
 778.059570312 72.90625 783.985351562 83.78125 785.580078125 104.469726562 c 1
 776.978515625 110.076171875 765.728515625 116.875 757.012695312 122.154296875 c 1
 725.859375 127.346679688 l 2
 714.529296875 129.235351562 705 139.748046875 705 152 c 0
 705 158.399414062 707.439453125 164.799804688 712.317382812 169.677734375 c 0
 717.1953125 174.555664062 723.595703125 176.995117188 729.995117188 176.995117188 c 0
 731.37890625 176.995117188 732.762695312 176.880859375 734.130859375 176.653320312 c 2
 770.130859375 170.653320312 l 2
 773.422851562 170.104492188 776.625976562 168.895507812 779.526367188 167.026367188 c 0
 788.533203125 161.221679688 800.307617188 154.583007812 810.724609375 147.850585938 c 0
 818.828125 142.61328125 826.543945312 138.524414062 831.971679688 129.858398438 c 0
 833.283203125 127.762695312 835.990234375 123.849609375 835.990234375 116 c 0
 835.990234375 79.7255859375 826.750976562 50.8876953125 806.91015625 31.0458984375 c 0
 792.166992188 16.302734375 773.69921875 8.537109375 754.877929688 4.505859375 c 0
 739.815429688 1.2802734375 724.151367188 0.228515625 708.161132812 0.228515625 c 0
 699.098632812 0.228515625 689.930664062 0.56640625 680.708984375 1.0380859375 c 0
 507.446289062 9.8935546875 407.799804688 171.178710938 389.330078125 327.325195312 c 1
 367.92578125 314.739257812 346.373046875 302.458007812 324.940429688 290.263671875 c 1
 318.49609375 272.463867188 l 2
 318.169921875 271.563476562 317.790039062 270.677734375 317.357421875 269.8125 c 2
 269.357421875 173.8125 l 2
 268.50390625 172.104492188 267.44140625 170.473632812 266.171875 168.958984375 c 0
 257.366210938 158.452148438 244.325195312 135.313476562 229.9296875 108.857421875 c 0
 208.416015625 69.3212890625 183.182617188 21.7744140625 149.633789062 -11.7744140625 c 0
 128.586914062 -32.8212890625 102.240234375 -49.9951171875 69.9951171875 -49.9951171875 c 0
 56.353515625 -49.9951171875 46.6982421875 -42.8955078125 40.4697265625 -36.6669921875 c 0
 26.5986328125 -22.7958984375 19.158203125 -4.185546875 12.9130859375 14.04296875 c 0
 4.9619140625 37.2490234375 0 58.8818359375 0 74 c 0
 0 75.9453125 0.2255859375 77.890625 0.67578125 79.79296875 c 0
 8.7451171875 113.856445312 28.5341796875 148.233398438 56.1416015625 173.465820312 c 0
 56.2587890625 173.572265625 56.376953125 173.678710938 56.49609375 173.783203125 c 0
 123.120117188 232.405273438 203.712890625 278.813476562 284.197265625 324.620117188 c 1
 333.204101562 459.971679688 l 1
 338.916992188 582.793945312 l 1
 328.5234375 655.547851562 l 1
 309.162109375 674.374023438 299.2421875 696.162109375 292.454101562 711.3828125 c 0
 286.703125 724.278320312 282.495117188 732.510742188 277.481445312 737.524414062 c 0
 271.254882812 743.750976562 259.240234375 751.004882812 222.995117188 751.004882812 c 0
 195.875 751.004882812 172.2578125 748.327148438 150.494140625 740.486328125 c 0
 133.266601562 734.279296875 113.583007812 722.96875 100.662109375 710.047851562 c 0
 93.3564453125 702.7421875 88.41796875 695.201171875 85.9892578125 688.288085938 c 0
 85.9833984375 680.01171875 85.962890625 671.764648438 85.962890625 663.622070312 c 0
 85.962890625 618.368164062 88.8017578125 579.203125 100.026367188 539.89453125 c 0
 100.668945312 537.64453125 100.990234375 535.322265625 100.990234375 533 c 0
 100.990234375 531.493164062 100.85546875 529.986328125 100.584960938 528.5 c 0
 100.85546875 527.013671875 100.990234375 525.506835938 100.990234375 524 c 0
 100.990234375 517.600585938 98.55078125 511.200195312 93.6728515625 506.322265625 c 0
 88.794921875 501.444335938 82.39453125 499.004882812 75.9951171875 499.004882812 c 0
 60.60546875 499.004882812 50.4033203125 511.745117188 50.4033203125 528.014648438 c 0
 50.4033203125 529.124023438 50.4482421875 530.2109375 50.5283203125 531.274414062 c 0
675.341796875 773.606445312 m 1
 667.538085938 773.288085938 660.125 772.004882812 651.995117188 772.004882812 c 0
 596.776367188 772.004882812 557.500976562 753.057617188 527.291992188 722.848632812 c 0
 496.104492188 691.661132812 474.212890625 646.749023438 460.078125 596.860351562 c 0
 443.045898438 536.747070312 437.377929688 470.318359375 437.009765625 415.764648438 c 1
 481.287109375 444.944335938 522.3984375 476.103515625 557.515625 511.219726562 c 0
 618.197265625 571.90234375 661.5390625 643.990234375 675.25 740.537109375 c 0
 675.73046875 743.919921875 675.91015625 748.322265625 675.91015625 753.356445312 c 0
 675.91015625 759.3671875 675.602539062 766.962890625 675.341796875 773.606445312 c 1
50.205078125 71.7265625 m 0
 51.095703125 64.953125 54.716796875 46.3076171875 60.2001953125 30.302734375 c 0
 64.74609375 17.037109375 71.0634765625 5.0283203125 74.5205078125 0.275390625 c 1
 86.5224609375 1.74609375 99.7744140625 9.0771484375 114.278320312 23.5810546875 c 0
 139.888671875 49.19140625 164.536132812 93.3125 186.000976562 132.758789062 c 0
 199.856445312 158.220703125 212.099609375 181.475585938 225.87109375 198.6640625 c 1
 250.169921875 247.26171875 l 1
 191.34375 212.6328125 135.889648438 177.004882812 89.6787109375 136.37890625 c 0
 70.6416015625 118.918945312 56.40625 94.763671875 50.205078125 71.7265625 c 0
EndSplineSet
EndChar
StartChar: Y
Encoding: 89 89 51
Width: 740
Flags: HW
LayerCount: 2
Fore
SplineSet
206.923828125 630.8203125 m 0
 206.923828125 662.842773438 208.384765625 688.6015625 208.384765625 716.6640625 c 0
 208.384765625 718.53125 208.372070312 720.310546875 208.345703125 722 c 1
 195.873046875 711.943359375 177.727539062 694.952148438 153.51171875 671.163085938 c 0
 148.654296875 666.390625 142.325195312 664.004882812 135.995117188 664.004882812 c 0
 99.0849609375 664.004882812 57.0625 670.553710938 28.0966796875 699.51953125 c 0
 10.2939453125 717.321289062 0 742.568359375 0 773 c 2
 0 779 l 2
 0 785.399414062 2.439453125 791.799804688 7.3173828125 796.677734375 c 0
 12.1953125 801.555664062 18.595703125 803.995117188 24.9951171875 803.995117188 c 0
 31.39453125 803.995117188 37.794921875 801.555664062 42.6728515625 796.677734375 c 0
 47.55078125 791.799804688 49.990234375 785.399414062 49.990234375 779 c 2
 49.990234375 773 l 2
 49.990234375 753.625976562 55.5751953125 742.751953125 63.4521484375 734.875 c 0
 75.5390625 722.787109375 98.62890625 715.62890625 126.037109375 714.243164062 c 1
 153.815429688 741.379882812 173.330078125 759.404296875 189.671875 770.411132812 c 0
 195.89453125 774.602539062 201.861328125 778.063476562 209.25390625 780.258789062 c 0
 212.577148438 781.24609375 216.518554688 782.013671875 220.82421875 782.013671875 c 0
 238.995117188 782.013671875 250.076171875 768.728515625 254.243164062 755.978515625 c 0
 258.209960938 743.84375 258.407226562 731.799804688 258.407226562 716.333007812 c 0
 258.407226562 688.155273438 256.9140625 662.243164062 256.9140625 630.799804688 c 0
 256.9140625 626.307617188 256.990234375 621.69140625 256.990234375 617 c 0
 256.990234375 616.66796875 256.983398438 616.3359375 256.970703125 616.00390625 c 0
 256.146484375 595.1796875 255.493164062 574.764648438 255.493164062 554.909179688 c 0
 255.493164062 479.279296875 264.9765625 411.768554688 310.65234375 360.641601562 c 0
 318.3046875 352.075195312 327.234375 340.99609375 334.110351562 334.120117188 c 0
 339.848632812 328.381835938 343.712890625 325.725585938 349.193359375 323.783203125 c 0
 353.65234375 322.203125 359.955078125 320.995117188 369.995117188 320.995117188 c 0
 371.6484375 320.995117188 373.301757812 320.83203125 374.928710938 320.506835938 c 0
 382.877929688 318.916015625 390.875 318.150390625 398.842773438 318.150390625 c 0
 436.7109375 318.150390625 473.911132812 335.442382812 502.098632812 363.62890625 c 0
 505.814453125 367.345703125 509.360351562 371.2421875 512.713867188 375.295898438 c 1
 490.62109375 469.190429688 l 1
 479.146484375 489.138671875 478.1796875 519.056640625 475.962890625 543.665039062 c 0
 474.426757812 560.711914062 472.620117188 579.151367188 472.620117188 598.313476562 c 0
 472.620117188 619.930664062 474.918945312 642.467773438 482.501953125 664.961914062 c 1
 482.220703125 668.245117188 482.079101562 671.580078125 482.079101562 674.946289062 c 0
 482.079101562 686.294921875 483.693359375 698.013671875 487.0390625 709.421875 c 0
 493.842773438 732.616210938 509.466796875 755.419921875 533.916015625 763.5859375 c 0
 540.4296875 765.762695312 547.373046875 766.83203125 554.50390625 766.83203125 c 0
 559.830078125 766.83203125 565.260742188 766.235351562 570.697265625 765.057617188 c 0
 578.478515625 765.387695312 585.899414062 766.750976562 594.58984375 766.750976562 c 0
 597.017578125 766.750976562 599.591796875 766.633789062 602.342773438 766.328125 c 0
 609.155273438 765.572265625 618.69140625 763.275390625 626.677734375 755.2890625 c 0
 635.512695312 746.454101562 637.990234375 734.826171875 637.990234375 725 c 0
 637.990234375 706.060546875 640.012695312 685.62890625 640.012695312 665.923828125 c 0
 640.012695312 655.374023438 639.44140625 644.616210938 637.647460938 633.861328125 c 0
 634.388671875 614.3203125 632.040039062 593.909179688 629.65625 573.088867188 c 0
 623.05078125 515.392578125 616.655273438 453.315429688 584.487304688 398.89453125 c 0
 579.389648438 386.260742188 573.03515625 374.194335938 565.598632812 362.842773438 c 1
 576.547851562 297.68359375 586.02734375 231.0546875 595.725585938 164.643554688 c 0
 595.811523438 164.05078125 595.876953125 163.456054688 595.921875 162.860351562 c 2
 601.921875 81.8603515625 l 2
 601.966796875 81.2412109375 601.990234375 80.6201171875 601.990234375 80 c 2
 601.990234375 47 l 2
 601.990234375 43.134765625 601.100585938 39.2685546875 599.3203125 35.7392578125 c 0
 595.639648438 28.4375 590.862304688 22.001953125 585.375 16.5146484375 c 0
 569.23828125 0.3779296875 548.584960938 -6.90625 528.90625 -11.025390625 c 0
 500.674804688 -16.935546875 475.6640625 -16.46484375 451.541992188 -16.9892578125 c 0
 449.891601562 -17.025390625 448.24609375 -17.04296875 446.60546875 -17.04296875 c 0
 399.55859375 -17.04296875 357.01171875 -2.2802734375 326.974609375 27.7568359375 c 0
 299.986328125 54.7451171875 285 92.6259765625 285 137 c 0
 285 146.791992188 287.5390625 155.111328125 291.013671875 163.52734375 c 0
 295.34765625 174.0234375 301.556640625 184.702148438 310.758789062 193.904296875 c 0
 318.50390625 201.650390625 330.015625 209.995117188 345.995117188 209.995117188 c 0
 360.440429688 209.995117188 370.434570312 202.408203125 376.940429688 195.90234375 c 0
 386.2734375 186.569335938 392.247070312 175.610351562 396.973632812 164.77734375 c 0
 402.907226562 151.176757812 406.990234375 138.21484375 406.990234375 125 c 0
 406.990234375 110.602539062 401.927734375 103.43359375 399.93359375 96.787109375 c 0
 398 90.341796875 393.083984375 84.587890625 387.182617188 81.6376953125 c 2
 375.182617188 75.6376953125 l 2
 371.672851562 73.8828125 367.833984375 73.0048828125 363.995117188 73.0048828125 c 0
 359.657226562 73.0048828125 355.318359375 74.1259765625 351.454101562 76.3671875 c 1
 369.497070312 49.3212890625 402.102539062 32.9462890625 446.553710938 32.9462890625 c 0
 483.515625 32.9462890625 535.872070312 33.80859375 552 54.0810546875 c 1
 552 79.068359375 l 1
 546.134765625 158.244140625 l 1
 538.321289062 210.431640625 531.206054688 263.317382812 522.704101562 314.817382812 c 1
 488.491210938 286.366210938 445.140625 268.114257812 399.131835938 268.114257812 c 0
 388.698242188 268.114257812 378.127929688 269.052734375 367.49609375 271.024414062 c 0
 351.051757812 271.276367188 336.803710938 274.05859375 324.41015625 280.000976562 c 0
 301.625976562 290.92578125 289.030273438 309.79296875 273.337890625 327.358398438 c 0
 215.807617188 391.754882812 205.295898438 472.290039062 205.295898438 551.173828125 c 0
 205.295898438 573.502929688 206.137695312 595.700195312 206.994140625 617.361328125 c 0
 206.946289062 621.950195312 206.923828125 626.4375 206.923828125 630.8203125 c 0
588.111328125 716.280273438 m 1
 581.8125 715.790039062 575.959960938 715.004882812 567.995117188 715.004882812 c 0
 563.850585938 715.004882812 557.952148438 716.913085938 554.478515625 716.913085938 c 0
 549.446289062 716.913085938 547.081054688 715.4453125 544.138671875 712.502929688 c 0
 540.8984375 709.262695312 537.293945312 703.099609375 535.002929688 695.290039062 c 0
 533.060546875 688.666015625 532.138671875 681.177734375 532.138671875 674.421875 c 0
 532.138671875 669.842773438 532.990234375 666.206054688 532.990234375 662 c 0
 532.990234375 658.98046875 532.447265625 655.961914062 531.361328125 653.1015625 c 0
 524.9375 636.184570312 522.841796875 617.653320312 522.841796875 597.922851562 c 0
 522.841796875 582.046875 524.19921875 565.39453125 525.75 548.18359375 c 0
 527.040039062 533.860351562 527.525390625 521.560546875 530.540039062 506.491210938 c 0
 532.146484375 498.461914062 534.420898438 493.420898438 534.420898438 493.420898438 c 1
 536.302734375 490.759765625 537.603515625 487.8125 538.323242188 484.755859375 c 2
 549.119140625 438.870117188 l 1
 567.97265625 478.727539062 574.060546875 526.995117188 579.993164062 578.815429688 c 0
 582.376953125 599.63671875 584.797851562 620.883789062 588.342773438 642.138671875 c 0
 589.5 649.077148438 589.912109375 657.19140625 589.912109375 666.064453125 c 0
 589.912109375 681.994140625 588.506835938 699.922851562 588.111328125 716.280273438 c 1
357 125 m 0
 357 125.463867188 355.029296875 135.858398438 351.150390625 144.749023438 c 0
 349.133789062 149.37109375 346.633789062 153.709960938 344.53515625 156.78515625 c 1
 341.086914062 152.577148438 336.07421875 142.879882812 334.990234375 137 c 0
 334.990234375 124.2578125 336.55859375 112.860351562 339.443359375 102.704101562 c 1
 340.348632812 107.458984375 342.639648438 112 346.317382812 115.677734375 c 0
 349.26953125 118.629882812 352.515625 120.216796875 356.2890625 122.103515625 c 1
 356.2890625 123.897460938 357 124.251953125 357 125 c 0
EndSplineSet
EndChar
StartChar: Z
Encoding: 90 90 52
Width: 514
Flags: HW
HStem: -58 71<178.586 263.577> 670 106<40.4302 95.771> 716 70<104.859 272.502>
VStem: 38 70<672.469 737.532> 106 71<14.646 170.617> 278 71<19.1316 273>
LayerCount: 2
Fore
SplineSet
75 811 m 0xd4
 124 811 173 787 222 787 c 0
 225 786 228 786 231 786 c 0
 251 786 280 798 306 809 c 0
 328 818 348 826 360 826 c 0
 364 826 366 826 368 824 c 2
 404 788 l 2
 405 787 406 785 406 782 c 0
 406 775 402 765 393 749 c 1
 384 725 376 703 369 680 c 0
 359 647 324 603 289 560 c 0
 254 516 219 474 211 443 c 1
 215 439 220 435 224 431 c 2
 259 396 l 2
 267 388 274 379 281 370 c 1
 303 393 324 417 348 439 c 2
 390 478 l 2
 395 482 401 485 408 485 c 0
 422 485 434 473 434 459 c 0
 434 452 431 445 426 440 c 0
 405 420 382 402 362 381 c 2
 308 325 l 1
 325 291 337 255 345 221 c 0
 345 186 349 146 349 109 c 0
 349 64 344 21 320 -3 c 2
 284 -39 l 2
 272 -51 255 -58 232 -58 c 0
 223 -58 212 -56 201 -54 c 1
 195 -56 189 -57 184 -57 c 0
 174 -57 166 -54 160 -48 c 2
 125 -12 l 2
 107 6 106 46 106 75 c 0
 106 133 128 173 154 219 c 0
 162 233 170 247 178 263 c 1
 237 325 l 1
 228 343 217 361 205 377 c 0
 195 384 185 391 174 396 c 1
 139 431 l 1
 139 462 178 510 218 560 c 0
 253 603 288 647 298 680 c 0
 305 702 312 722 320 744 c 1
 293 733 254 716 231 716 c 0xac
 228 716 225 716 222 717 c 0
 181 717 141 732 103 738 c 1
 105 728 107 719 108 710 c 0
 108 709 108 707 108 705 c 0
 108 686 92 670 73 670 c 0
 55 670 40 684 38 701 c 0
 35 727 29 751 25 776 c 5
 60 811 l 5
 60 811 62 811 64 811 c 0
 67 811 72 811 75 811 c 0xd4
274 221 m 0
 270 238 265 256 259 274 c 1
 249 263 l 1
 241 247 233 233 225 219 c 0
 199 173 177 133 177 75 c 0
 177 56 177 33 182 14 c 0
 183 14 183 14 184 14 c 0
 189 14 195 14 201 16 c 0
 212 14 223 13 232 13 c 0
 244 13 255 14 264 18 c 1
 275 42 278 75 278 109 c 0
 278 146 274 186 274 221 c 0
EndSplineSet
EndChar
StartChar: bracketleft
Encoding: 91 91 58
Width: 258
Flags: HW
LayerCount: 2
Fore
SplineSet
111.961914062 772.689453125 m 1
 111.961914062 -156.689453125 l 1
 178.961914062 -156.689453125 l 1
 178.961914062 -247.310546875 l 1
 76.9619140625 -247.310546875 l 2
 48.283203125 -247.310546875 25 -233.868164062 25 -217.310546875 c 2
 25 802.689453125 l 2
 25 836.147460938 40.6826171875 863.310546875 60 863.310546875 c 2
 178.961914062 863.310546875 l 1
 178.961914062 772.689453125 l 1
 111.961914062 772.689453125 l 1
EndSplineSet
EndChar
StartChar: backslash
Encoding: 92 92 59
Width: 512
Flags: HW
LayerCount: 2
Fore
SplineSet
359.353515625 94.4833984375 m 0
 359.353515625 76.4541015625 344.716796875 61.81640625 326.6875 61.81640625 c 0
 313.07421875 61.81640625 301.395507812 70.1611328125 296.490234375 82.009765625 c 2
 55.14453125 665 l 2
 53.5537109375 668.84375 52.6748046875 673.056640625 52.6748046875 677.473632812 c 0
 52.6748046875 695.502929688 67.3125 710.140625 85.341796875 710.140625 c 0
 98.9541015625 710.140625 110.624023438 701.791992188 115.509765625 689.990234375 c 2
 356.85546875 107 l 2
 358.475585938 103.11328125 359.353515625 98.900390625 359.353515625 94.4833984375 c 0
EndSplineSet
EndChar
StartChar: bracketright
Encoding: 93 93 60
Width: 258
Flags: HW
LayerCount: 2
Fore
SplineSet
25 -247.310546875 m 1
 25 -156.689453125 l 1
 92 -156.689453125 l 1
 92 772.689453125 l 1
 25 772.689453125 l 1
 25 863.310546875 l 1
 127 863.310546875 l 2
 155.678710938 863.310546875 178.961914062 849.868164062 178.961914062 833.310546875 c 2
 178.961914062 -186.689453125 l 2
 178.961914062 -220.147460938 163.278320312 -247.310546875 143.961914062 -247.310546875 c 2
 25 -247.310546875 l 1
EndSplineSet
EndChar
StartChar: asciicircum
Encoding: 94 94 61
Width: 515
Flags: HW
LayerCount: 2
Fore
SplineSet
218.326171875 869.338867188 m 0
 220.897460938 869.338867188 243.286132812 856.364257812 270.084960938 839.310546875 c 2
 435.084960938 734.310546875 l 1
 396.149414062 673.126953125 l 1
 232.682617188 777.151367188 l 1
 71.0849609375 673.689453125 l 1
 25 745.668945312 l 1
 218.142578125 869.299804688 l 2
 218.18359375 869.326171875 218.245117188 869.338867188 218.326171875 869.338867188 c 0
EndSplineSet
EndChar
StartChar: underscore
Encoding: 95 95 62
Width: 666
Flags: HW
LayerCount: 2
Fore
SplineSet
25 -246.112304688 m 1
 25.9990234375 -155.689453125 l 1
 586.959960938 -161.887695312 l 1
 585.9609375 -252.310546875 l 1
 25 -246.112304688 l 1
EndSplineSet
EndChar
StartChar: grave
Encoding: 96 96 63
Width: 314
Flags: HW
LayerCount: 2
Fore
SplineSet
25 533.689453125 m 1
 88.671875 590.440429688 l 1
 234.961914062 426.310546875 l 1
 171.2890625 369.559570312 l 1
 25 533.689453125 l 1
EndSplineSet
EndChar
StartChar: a
Encoding: 97 97 64
Width: 555
Flags: HW
LayerCount: 2
Fore
SplineSet
88.48828125 198.540039062 m 0
 88.48828125 164.047851562 93.9658203125 129.897460938 105.884765625 99.0947265625 c 1
 176.426757812 127.0625 245.451171875 167.262695312 289.5859375 222.641601562 c 1
 298.0546875 245.017578125 302.748046875 269.259765625 302.748046875 295.485351562 c 0
 302.748046875 307.46875 301.768554688 319.866210938 299.720703125 332.689453125 c 1
 300.470703125 337.099609375 300.828125 341.2265625 300.828125 345.086914062 c 0
 300.828125 353.428710938 299.16015625 360.525390625 296.186523438 366.553710938 c 1
 287.79296875 367.869140625 279.125 368.500976562 270.681640625 368.689453125 c 0
 250.9453125 379.086914062 231.879882812 383.811523438 213.790039062 383.811523438 c 0
 175.1875 383.811523438 141.028320312 362.296875 114.268554688 328.491210938 c 1
 97.7919921875 289.02734375 88.48828125 243.493164062 88.48828125 198.540039062 c 0
409.268554688 158.739257812 m 0
 409.268554688 139.659179688 404.120117188 122.1484375 395.08984375 106.5078125 c 2
 372.873046875 68.0283203125 l 2
 372.897460938 68 372.921875 67.970703125 372.9453125 67.9423828125 c 0
 378.861328125 66.8740234375 385.120117188 66.310546875 391.720703125 66.310546875 c 0
 394.52734375 66.310546875 397.41796875 65.2294921875 400.415039062 63.4990234375 c 2
 442.303710938 39.314453125 l 2
 442.442382812 39.314453125 442.581054688 39.310546875 442.720703125 39.310546875 c 2
 448.720703125 39.310546875 l 1
 487.720703125 57.310546875 l 1
 525.1796875 -23.8505859375 l 1
 505.346679688 -33.00390625 485.514648438 -42.1572265625 465.681640625 -51.310546875 c 1
 459.681640625 -51.310546875 l 2
 454.034179688 -51.310546875 448.73046875 -49.3271484375 443.721679688 -46.4345703125 c 2
 405.315429688 -24.26171875 l 1
 388.215820312 -23.7568359375 373.499023438 -19.4033203125 361.159179688 -12.2783203125 c 2
 326.404296875 7.787109375 l 1
 290.452148438 -20.697265625 239.063476562 -36.984375 189.391601562 -36.984375 c 0
 167.682617188 -36.984375 146.302734375 -33.8740234375 126.681640625 -27.310546875 c 0
 125.908203125 -27.357421875 125.147460938 -27.380859375 124.400390625 -27.380859375 c 0
 118.213867188 -27.380859375 112.922851562 -25.8115234375 108.328125 -23.1591796875 c 2
 80.255859375 -6.951171875 l 1
 50.5732421875 -16.744140625 21.4599609375 -24.45703125 -5.318359375 -30.310546875 c 1
 -25 59.7158203125 l 1
 -10.8359375 62.8125 3.3125 66.1728515625 18.2626953125 70.201171875 c 1
 6.8017578125 100.549804688 1.5263671875 134.069335938 1.5263671875 167.918945312 c 0
 1.5263671875 225.848632812 16.9775390625 284.745117188 43.318359375 330.368164062 c 2
 78.318359375 390.990234375 l 2
 106.92578125 440.5390625 148.376953125 474.43359375 196.829101562 474.43359375 c 0
 214.91796875 474.43359375 233.983398438 469.708984375 253.720703125 459.310546875 c 1
 274.340820312 458.8515625 296.30859375 455.743164062 312.328125 446.495117188 c 2
 364.290039062 416.495117188 l 2
 378.322265625 408.393554688 387.790039062 395.580078125 387.790039062 375.708984375 c 0
 387.790039062 371.848632812 387.432617188 367.721679688 386.681640625 363.310546875 c 1
 388.729492188 350.48828125 389.709960938 338.090820312 389.709960938 326.106445312 c 0
 389.709960938 297.979492188 384.310546875 272.1328125 374.645507812 248.423828125 c 1
 399.478515625 234.0859375 l 2
 404.1953125 231.36328125 405.838867188 204.548828125 406.821289062 188.514648438 c 0
 407.57421875 176.234375 409.268554688 169.7421875 409.268554688 158.739257812 c 0
266.734375 73.1484375 m 1
 265.198242188 78.0322265625 263.974609375 83.037109375 263.063476562 88.1142578125 c 1
 250.650390625 77.798828125 237.359375 68.177734375 223.4375 59.216796875 c 1
 238.427734375 62.4970703125 253.025390625 67.1806640625 266.734375 73.1484375 c 1
EndSplineSet
EndChar
StartChar: b
Encoding: 98 98 65
Width: 611
Flags: HW
LayerCount: 2
Fore
SplineSet
206.821289062 519.7421875 m 0
 206.821289062 578.33984375 194.740234375 639.044921875 182.673828125 694.689453125 c 0
 176.978515625 720.955078125 174.732421875 748.572265625 163.782226562 772.7265625 c 1
 159.872070312 770.428710938 156.57421875 767.125 153.657226562 763.322265625 c 0
 148.842773438 751.680664062 145.057617188 739.952148438 140.635742188 728.310546875 c 1
 135.122070312 665.82421875 129.254882812 603.69140625 122.635742188 542.310546875 c 1
 128.635742188 356.310546875 l 1
 143.635742188 248.310546875 l 1
 146.647460938 237.44921875 149.388671875 227.038085938 152.326171875 216.330078125 c 1
 188.306640625 297.258789062 207.583984375 386.29296875 207.583984375 475.306640625 c 0
 207.583984375 486.439453125 207.056640625 497.569335938 206.673828125 508.689453125 c 0
 206.547851562 512.360351562 206.821289062 516.048828125 206.821289062 519.7421875 c 0
452.673828125 211.689453125 m 0
 452.666992188 216.709960938 452.106445312 221.645507812 451.099609375 226.501953125 c 1
 443.723632812 224.53515625 436.401367188 222.122070312 432.635742188 220.689453125 c 0
 421.022460938 216.270507812 409.227539062 214.505859375 397.684570312 214.505859375 c 0
 383.708984375 214.505859375 370.102539062 217.092773438 357.635742188 220.689453125 c 0
 349.903320312 220.8828125 343.396484375 222.82421875 337.827148438 226.040039062 c 2
 285.865234375 256.040039062 l 2
 272.600585938 263.698242188 264.65234375 278.584960938 258.115234375 294.31640625 c 1
 245.1484375 257.487304688 228.853515625 221.923828125 209.452148438 188.319335938 c 2
 183.852539062 143.978515625 l 1
 192.513671875 123.2421875 201.299804688 101.844726562 213.189453125 85.3466796875 c 1
 261.551757812 78.630859375 308.663085938 62.310546875 361.673828125 62.310546875 c 0
 390.837890625 62.8291015625 414.528320312 78.037109375 433.236328125 100.100585938 c 1
 440.70703125 118.748046875 446.137695312 137.716796875 449.673828125 154.689453125 c 0
 452.37890625 167.666992188 452.708984375 182.458984375 452.708984375 197.328125 c 0
 452.708984375 202.110351562 452.673828125 206.916992188 452.673828125 211.689453125 c 0
380.72265625 305.127929688 m 0
 388.877929688 305.127929688 397.158203125 306.008789062 405.412109375 308.083984375 c 1
 401.729492188 312.681640625 398.037109375 316.861328125 394.30078125 320.657226562 c 0
 379.90625 324.235351562 363.7265625 325.590820312 344.768554688 325.68359375 c 1
 347.266601562 319.623046875 349.962890625 313.672851562 353.08203125 308.196289062 c 1
 361.966796875 306.313476562 371.260742188 305.127929688 380.72265625 305.127929688 c 0
539.669921875 227.950195312 m 0
 539.669921875 213.081054688 539.33984375 198.2890625 536.635742188 185.310546875 c 0
 530.92578125 157.907226562 520.27734375 125.299804688 504.078125 97.2421875 c 2
 469.078125 36.6201171875 l 2
 448.400390625 0.8046875 418.676757812 -27.599609375 378.635742188 -28.310546875 c 0
 322.951171875 -28.310546875 274.041015625 -10.3466796875 222.635742188 -4.310546875 c 0
 214.706054688 -3.3798828125 207.671875 -0.9306640625 201.356445312 2.7158203125 c 2
 149.395507812 32.7158203125 l 2
 140.083007812 38.091796875 132.336914062 46.0693359375 125.592773438 55.6142578125 c 1
 96.2314453125 18.490234375 62.4443359375 -14.91015625 24.6357421875 -43.310546875 c 1
 -25 22.7666015625 l 1
 7.673828125 47.310546875 l 2
 38.3935546875 70.38671875 66.4580078125 96.76171875 91.650390625 125.75390625 c 1
 85.5673828125 139.859375 79.2451171875 153.123046875 71.673828125 163.689453125 c 1
 66.2822265625 181.478515625 61.7294921875 199.458007812 56.673828125 217.689453125 c 1
 41.673828125 325.689453125 l 1
 35.673828125 511.689453125 l 1
 42.3017578125 573.061523438 48.1533203125 635.209960938 53.673828125 697.689453125 c 1
 60.78515625 716.411132812 66.1982421875 735.030273438 76.2421875 752.427734375 c 2
 111.2421875 813.049804688 l 2
 113.78515625 817.454101562 116.749023438 821.517578125 119.650390625 825.649414062 c 2
 130.56640625 844.557617188 l 2
 136.419921875 854.696289062 143.432617188 864.198242188 154.673828125 866.310546875 c 0
 163.067382812 866.310546875 170.184570312 864.313476562 176.25390625 860.80859375 c 2
 228.215820312 830.80859375 l 2
 253.477539062 816.223632812 260.604492188 775.538085938 266.108398438 744.116210938 c 0
 267.3046875 737.290039062 268.423828125 730.900390625 269.635742188 725.310546875 c 0
 281.701171875 669.666992188 293.782226562 608.961914062 293.782226562 550.36328125 c 0
 293.782226562 546.669921875 293.509765625 542.982421875 293.635742188 539.310546875 c 0
 294.018554688 528.19140625 294.545898438 517.061523438 294.545898438 505.927734375 c 0
 294.545898438 456.919921875 288.702148438 407.90625 277.444335938 360.2421875 c 1
 291.956054688 385.375976562 l 2
 300.0078125 399.322265625 315.491210938 416.310546875 325.673828125 416.310546875 c 0
 358.936523438 416.310546875 383.720703125 412.616210938 405.213867188 400.20703125 c 2
 457.17578125 370.20703125 l 2
 468.1171875 363.889648438 478.206054688 355.314453125 488.125976562 343.818359375 c 1
 491.673828125 352.689453125 l 1
 493.71875 377.224609375 495.763671875 401.760742188 497.80859375 426.296875 c 1
 581.635742188 419.310546875 l 1
 578.635742188 383.310546875 l 1
 548.650390625 308.3359375 l 2
 543.438476562 295.306640625 538.03515625 283.668945312 532.7890625 274.029296875 c 1
 536.967773438 263.828125 539.620117188 253.272460938 539.635742188 242.310546875 c 0
 539.635742188 237.538085938 539.669921875 232.732421875 539.669921875 227.950195312 c 0
EndSplineSet
EndChar
StartChar: c
Encoding: 99 99 66
Width: 579
Flags: HW
LayerCount: 2
Fore
SplineSet
214.555664062 292.870117188 m 0
 214.555664062 274.796875 215.3984375 255.897460938 216.330078125 236.51953125 c 1
 257.03125 252.154296875 294.01171875 269.657226562 320.502929688 296.572265625 c 0
 320.580078125 296.849609375 320.65625 297.127929688 320.731445312 297.40625 c 2
 282.645507812 319.395507812 l 2
 271.017578125 326.108398438 269.810546875 344.04296875 269.810546875 358.689453125 c 0
 269.810546875 368.87109375 270.740234375 380.538085938 275.793945312 389.29296875 c 1
 252.65234375 383.118164062 234.903320312 373.849609375 221.34765625 362.043945312 c 1
 216.16015625 341.171875 214.555664062 317.80859375 214.555664062 292.870117188 c 0
358.810546875 53.310546875 m 1
 505.810546875 140.310546875 l 1
 549.930664062 65.7626953125 l 1
 375.771484375 -37.310546875 l 1
 358.172851562 -37.310546875 343.483398438 -35.3134765625 327.771484375 -34.310546875 c 1
 327.771484375 -34.310546875 324.642578125 -34.453125 319.580078125 -34.453125 c 0
 305.65625 -34.453125 277.104492188 -33.3779296875 258.771484375 -25.310546875 c 0
 257.043945312 -24.5185546875 255.30078125 -23.6083984375 253.552734375 -22.5986328125 c 2
 201.591796875 7.4013671875 l 2
 179.0625 20.408203125 155.810546875 49.689453125 155.810546875 49.689453125 c 1
 137.793945312 110.494140625 l 1
 98.0634765625 94.4931640625 59.5419921875 75.150390625 27.771484375 46.2890625 c 1
 -25 104.37890625 l 1
 10.810546875 136.91015625 l 2
 44.869140625 167.850585938 86.6865234375 187.8515625 129.434570312 204.524414062 c 1
 128.4765625 224.381835938 127.59375 243.749023438 127.59375 262.248046875 c 0
 127.59375 302.021484375 131.674804688 337.790039062 147.8671875 365.834960938 c 2
 182.8671875 426.45703125 l 2
 198.263671875 453.124023438 224.610351562 472.80859375 268.810546875 482.310546875 c 1
 293.784179688 482.310546875 313.391601562 483.796875 335.504882812 483.796875 c 0
 351.990234375 483.796875 364.163085938 482.404296875 373.655273438 476.924804688 c 2
 425.616210938 446.924804688 l 2
 438.046875 439.748046875 445.877929688 425.561523438 452.771484375 398.310546875 c 0
 453.581054688 395.112304688 453.959960938 392.1328125 453.959960938 389.35546875 c 0
 453.959960938 384.305664062 452.706054688 379.922851562 450.5 376.102539062 c 2
 415.5 315.481445312 l 2
 411.657226562 308.82421875 404.923828125 303.875 396.904296875 300.08203125 c 0
 395.936523438 298.208984375 394.932617188 296.372070312 393.891601562 294.568359375 c 2
 358.891601562 233.947265625 l 2
 332.155273438 187.638671875 281.336914062 163.811523438 224.342773438 142.508789062 c 1
 242.771484375 80.310546875 l 2
 242.771484375 80.310546875 250.650390625 70.3896484375 261.6796875 59.53125 c 1
 276.87890625 56.6669921875 293.138671875 56.1689453125 302.618164062 56.1689453125 c 0
 307.681640625 56.1689453125 310.810546875 56.310546875 310.810546875 56.310546875 c 1
 326.532226562 55.3076171875 341.205078125 53.310546875 358.810546875 53.310546875 c 1
EndSplineSet
EndChar
StartChar: d
Encoding: 100 100 67
Width: 692
Flags: HW
LayerCount: 2
Fore
SplineSet
315.2890625 238.104492188 m 0
 315.2890625 249.254882812 314.231445312 261.416015625 312.013671875 274.689453125 c 0
 306.565429688 307.287109375 301.186523438 333.725585938 287.612304688 352.611328125 c 1
 276.860351562 354.645507812 264.420898438 355.689453125 249.974609375 355.689453125 c 0
 215.143554688 355.689453125 190.168945312 346.826171875 172.264648438 331.67578125 c 1
 162.529296875 295.19140625 161.974609375 250.745117188 161.974609375 206.310546875 c 0
 164.752929688 195.228515625 168.262695312 182.583984375 172.514648438 169.177734375 c 1
 228.010742188 175.72265625 279.88671875 185.100585938 313.107421875 212.05078125 c 1
 314.541015625 220.060546875 315.2890625 228.725585938 315.2890625 238.104492188 c 0
247.216796875 40.6005859375 m 0
 250.426757812 40.6005859375 253.692382812 40.8330078125 257.013671875 41.310546875 c 0
 312.045898438 49.236328125 354.633789062 72.63671875 386.317382812 106.94921875 c 1
 378.4921875 126.83203125 371.3203125 147.809570312 364.883789062 168.66015625 c 1
 352.965820312 148.018554688 l 2
 327.84375 104.504882812 272.431640625 89.7294921875 209.755859375 81.1259765625 c 1
 218.303710938 66.18359375 227.858398438 52.46875 238.438476562 41.1865234375 c 0
 241.317382812 40.7998046875 244.243164062 40.6005859375 247.216796875 40.6005859375 c 0
403.688476562 476.995117188 m 1
 404.974609375 431.310546875 l 1
 411.4375 384.458007812 415.55859375 345.75390625 425.4453125 300.206054688 c 1
 422.813476562 360.51953125 414.251953125 419.28125 403.688476562 476.995117188 c 1
358.280273438 816.071289062 m 0
 361.049804688 816.071289062 362.95703125 814.985351562 364.801757812 813.919921875 c 2
 416.763671875 783.919921875 l 2
 436.19921875 772.69921875 446.9609375 733.938476562 449.974609375 716.310546875 c 0
 471.983398438 587.58984375 510.6015625 454.932617188 512.974609375 314.310546875 c 0
 514.124023438 246.220703125 501.372070312 182.827148438 475.654296875 131.620117188 c 1
 488.637695312 99.5498046875 503.337890625 70.7197265625 519.392578125 50.439453125 c 1
 537.46875 51.5029296875 553.631835938 59.203125 569.776367188 63.8828125 c 1
 605.8515625 135.631835938 l 1
 662.974609375 106.91015625 l 1
 626.946289062 35.26171875 l 2
 610.04296875 1.6416015625 594.913085938 -24.5634765625 591.974609375 -25.310546875 c 0
 572.598632812 -30.2373046875 554.115234375 -40.310546875 531.974609375 -40.310546875 c 0
 524.583007812 -40.310546875 517.358398438 -38.1044921875 510.326171875 -34.0439453125 c 2
 458.364257812 -4.0439453125 l 2
 444.905273438 3.7265625 432.147460938 18.287109375 420.260742188 37.1630859375 c 1
 387.419921875 -8.474609375 339.525390625 -39.8701171875 273.974609375 -49.310546875 c 0
 270.654296875 -49.7890625 267.388671875 -50.021484375 264.178710938 -50.021484375 c 0
 251.5234375 -50.021484375 239.728515625 -46.4169921875 228.78125 -40.0966796875 c 2
 176.8203125 -10.0966796875 l 2
 150.581054688 5.052734375 129.209960938 35.8076171875 112.530273438 69.9462890625 c 1
 75.4111328125 65.2548828125 39.7392578125 58.826171875 9.974609375 46.2890625 c 1
 -25 129.323242188 l 1
 -6.986328125 136.91015625 l 2
 18.4853515625 147.639648438 48.2822265625 153.89453125 79.611328125 158.416992188 c 1
 77.9033203125 164.485351562 76.37109375 170.2734375 75.013671875 175.689453125 c 0
 75.013671875 235.754882812 76.0263671875 295.840820312 99.3603515625 336.256835938 c 2
 134.360351562 396.877929688 l 2
 151.803710938 427.090820312 181.720703125 446.310546875 233.013671875 446.310546875 c 0
 263.94921875 446.310546875 285.681640625 441.5234375 301.348632812 432.478515625 c 2
 317.37890625 423.223632812 l 1
 312.013671875 613.689453125 l 1
 326.982421875 754.634765625 l 2
 330.39453125 786.711914062 344.642578125 816.071289062 358.280273438 816.071289062 c 0
EndSplineSet
EndChar
StartChar: e
Encoding: 101 101 68
Width: 599
Flags: HW
LayerCount: 2
Fore
SplineSet
160.640625 178.255859375 m 1
 231.029296875 203.666015625 296.575195312 241.484375 339.416015625 295.553710938 c 1
 346.971679688 315.016601562 351.98828125 336.02734375 354 358.689453125 c 0
 354 359.408203125 353.953125 360.114257812 353.862304688 360.807617188 c 0
 328.349609375 366.086914062 300.651367188 367.689453125 288.961914062 367.689453125 c 0
 254.293945312 367.689453125 204.517578125 330.622070312 170.577148438 289.241210938 c 0
 168.875 283.252929688 167.961914062 277.565429688 167.961914062 272.310546875 c 0
 165.413085938 241.717773438 160.755859375 209.788085938 160.640625 178.255859375 c 1
265.318359375 -51.1767578125 m 0
 235.041992188 -51.1767578125 204.873046875 -44.0205078125 180.286132812 -29.8251953125 c 2
 128.325195312 0.1748046875 l 2
 104.893554688 13.703125 86.5322265625 33.623046875 77.9794921875 59.8330078125 c 1
 45.138671875 53.0400390625 15.12109375 48.9970703125 -15.8916015625 45.90625 c 1
 -25 137.310546875 l 1
 6.064453125 140.40625 39.6298828125 145.561523438 73.7451171875 153.194335938 c 1
 74.330078125 182.841796875 78.5869140625 212.727539062 81 241.689453125 c 0
 81 254.921875 86.79296875 270.901367188 96.3876953125 287.51953125 c 2
 131.387695312 348.140625 l 2
 161.388671875 400.103515625 228.557617188 458.310546875 272 458.310546875 c 0
 275.353515625 457.670898438 347.354492188 454.416992188 374.456054688 438.76953125 c 2
 426.416992188 408.76953125 l 2
 435.303710938 403.639648438 440.961914062 397.245117188 440.961914062 389.310546875 c 0
 437.823242188 353.94921875 427.365234375 322.60546875 411.3671875 294.896484375 c 2
 376.3671875 234.274414062 l 2
 334.248046875 161.322265625 253.728515625 113.5625 167.290039062 84.01171875 c 1
 172.88671875 70.1533203125 181.33984375 58.2060546875 191.857421875 48.1875 c 1
 209.693359375 42.369140625 229.002929688 39.4443359375 248.356445312 39.4443359375 c 0
 257.275390625 39.4443359375 266.203125 40.0654296875 275 41.310546875 c 0
 366.918945312 54.3203125 397.423828125 75.509765625 457.810546875 117.456054688 c 0
 470.3203125 126.146484375 484.11328125 135.727539062 500 146.310546875 c 1
 515 167.310546875 l 1
 569.092773438 128.672851562 l 1
 516.961914062 55.689453125 l 1
 501.07421875 45.10546875 487.282226562 35.5244140625 474.772460938 26.8349609375 c 0
 414.384765625 -15.1123046875 383.880859375 -36.3017578125 291.961914062 -49.310546875 c 0
 283.1640625 -50.5556640625 274.236328125 -51.1767578125 265.318359375 -51.1767578125 c 0
EndSplineSet
EndChar
StartChar: f
Encoding: 102 102 69
Width: 455
Flags: HW
LayerCount: 2
Fore
SplineSet
215.635742188 98.869140625 m 0
 215.635742188 100.719726562 215.606445312 102.559570312 215.547851562 104.389648438 c 0
 208.400390625 107.545898438 201.959960938 110.810546875 196.3828125 114.092773438 c 1
 199.880859375 93.296875 204.537109375 72.9580078125 210.596679688 53.310546875 c 0
 211.588867188 50.09375 212.895507812 44.9228515625 213.983398438 40.75 c 1
 213.983398438 51.5029296875 215.130859375 62.6845703125 215.130859375 73.7802734375 c 0
 215.1328125 82.2724609375 215.635742188 90.6943359375 215.635742188 98.869140625 c 0
99.51953125 227.30078125 m 0
 99.51953125 229.389648438 100.008789062 230.459960938 100.740234375 231.727539062 c 0
 101.177734375 248.740234375 101.866210938 265.98046875 101.866210938 283.717773438 c 0
 101.866210938 325.010742188 100.46875 366.599609375 100.46875 407.92578125 c 0
 100.46875 458.1484375 102.526367188 508.069335938 111.635742188 556.689453125 c 0
 111.637695312 557.056640625 111.638671875 557.423828125 111.638671875 557.791992188 c 0
 111.638671875 566.823242188 111.088867188 576.091796875 111.088867188 585.147460938 c 0
 111.088867188 593.9609375 111.604492188 602.612304688 113.635742188 610.689453125 c 0
 115.850585938 634.529296875 118.505859375 661.58203125 130.65234375 682.62109375 c 2
 165.65234375 743.243164062 l 2
 167.697265625 746.784179688 170.009765625 750.154296875 172.635742188 753.310546875 c 0
 177.985351562 753.310546875 182.534179688 752.086914062 186.393554688 749.858398438 c 2
 238.35546875 719.858398438 l 2
 255.106445312 710.1875 258.883789062 681.591796875 258.883789062 651.958007812 c 0
 258.883789062 630.225585938 256.333984375 606.772460938 256.333984375 586.737304688 c 0
 256.333984375 583.959960938 256.412109375 581.466796875 256.596679688 579.310546875 c 0
 258.424804688 557.962890625 259.379882812 536.4921875 259.379882812 515.055664062 c 0
 259.379882812 430.104492188 244.37890625 345.682617188 209.211914062 271.557617188 c 1
 243.38671875 251.826171875 l 2
 262.63671875 240.712890625 276.791992188 216.327148438 286.596679688 199.310546875 c 0
 292.572265625 186.87890625 296.822265625 174.416015625 299.432617188 161.611328125 c 1
 332.635742188 153.310546875 l 1
 425.413085938 138.346679688 l 1
 411.596679688 52.689453125 l 1
 349.596679688 62.689453125 l 1
 301.268554688 74.771484375 l 1
 300.123046875 61.21484375 297.381835938 48.2451171875 290.813476562 36.8681640625 c 0
 287.03515625 30.32421875 284.088867188 23.2412109375 280.1328125 16.388671875 c 2
 245.1328125 -44.2333984375 l 2
 237.528320312 -57.4033203125 227.357421875 -68.7685546875 211.596679688 -69.310546875 c 0
 208.329101562 -69.310546875 205.375 -68.4384765625 202.696289062 -66.892578125 c 2
 150.734375 -36.892578125 l 2
 134.188476562 -27.3388671875 129.6640625 3.142578125 123.635742188 22.689453125 c 0
 115.140625 50.234375 109.401367188 79.1376953125 105.75 108.754882812 c 1
 81.3837890625 82.328125 52.8037109375 58.712890625 19.5966796875 38.689453125 c 1
 -25 112.646484375 l 1
 2.6357421875 129.310546875 l 2
 41.2587890625 152.6015625 73.6240234375 180.75 100.377929688 212.530273438 c 0
 99.8916015625 215.735351562 99.6357421875 219.115234375 99.6357421875 222.689453125 c 0
 99.6357421875 224.287109375 99.51953125 225.794921875 99.51953125 227.30078125 c 0
EndSplineSet
EndChar
StartChar: g
Encoding: 103 103 70
Width: 501
Flags: HW
LayerCount: 2
Fore
SplineSet
20.5146484375 46.689453125 m 1
 -25 119.450195312 l 1
 3.552734375 137.310546875 l 2
 21.87109375 148.76953125 33.580078125 168.728515625 49.552734375 183.310546875 c 0
 51.4375 185.03125 53.3359375 186.842773438 55.2314453125 188.724609375 c 1
 70.435546875 234.336914062 l 1
 139.514648438 211.310546875 l 1
 131.592773438 187.446289062 l 2
 127.108398438 173.994140625 114.485351562 152.129882812 96.5146484375 126.689453125 c 0
 88.3544921875 115.137695312 77.1943359375 102.438476562 66.5146484375 92.689453125 c 0
 50.533203125 78.099609375 38.83984375 58.15234375 20.5146484375 46.689453125 c 1
274.15234375 61.25390625 m 0
 262.240234375 61.25390625 249.985351562 61.8291015625 238.237304688 61.8291015625 c 0
 230.51953125 61.8291015625 223.184570312 61.56640625 216.514648438 60.689453125 c 0
 193.791992188 57.69921875 175.307617188 55.7421875 160.306640625 55.7421875 c 0
 144.913085938 55.7421875 133.188476562 57.802734375 124.318359375 62.923828125 c 2
 72.357421875 92.923828125 l 2
 51.75 104.821289062 46.552734375 133.234375 46.552734375 190.689453125 c 0
 46.5224609375 192.0234375 46.5068359375 193.3671875 46.5068359375 194.719726562 c 0
 46.5068359375 234.34765625 59.607421875 281.6875 82.1591796875 320.749023438 c 2
 117.159179688 381.37109375 l 2
 142.614257812 425.459960938 180.111328125 459.002929688 224.404296875 459.002929688 c 0
 240.84375 459.002929688 258.220703125 454.381835938 276.264648438 443.963867188 c 2
 328.225585938 413.963867188 l 2
 332.6171875 411.428710938 337.047851562 408.549804688 341.514648438 405.310546875 c 0
 352.870117188 397.077148438 375.514648438 337.310546875 375.514648438 337.310546875 c 1
 381.514648438 207.310546875 l 1
 381.000976562 158.473632812 l 1
 387.514648438 155.310546875 l 1
 385.502929688 151.16796875 383.108398438 147.380859375 380.842773438 143.456054688 c 1
 380.170898438 79.6826171875 l 1
 391.875976562 99.9560546875 l 2
 394.3203125 104.189453125 406.970703125 118.2578125 410.586914062 122.248046875 c 1
 419.149414062 137.233398438 l 1
 471.514648438 107.310546875 l 1
 456.520507812 81.072265625 428.514648438 32.689453125 428.514648438 32.689453125 c 1
 428.514648438 32.689453125 419.899414062 23.26171875 413.953125 16.0859375 c 1
 402.862304688 -3.1240234375 l 2
 395.541992188 -15.8017578125 385.430664062 -25.5888671875 373.4765625 -33.4072265625 c 1
 370.265625 -65.9443359375 364.541992188 -95.9677734375 359.514648438 -126.689453125 c 1
 341.514648438 -178.689453125 l 2
 339.635742188 -184.116210938 325.434570312 -208.713867188 306.556640625 -239.237304688 c 0
 297.365234375 -254.099609375 284.268554688 -266.291992188 267.096679688 -266.291992188 c 0
 264.341796875 -266.291992188 261.48046875 -265.978515625 258.514648438 -265.310546875 c 0
 255.162109375 -265.662109375 251.76171875 -265.83984375 248.3515625 -265.83984375 c 0
 233.5859375 -265.83984375 218.630859375 -262.51171875 206.555664062 -255.541015625 c 2
 154.59375 -225.541015625 l 2
 143.059570312 -218.881835938 134.154296875 -208.896484375 130.552734375 -195.310546875 c 1
 120.077148438 -178.267578125 112.069335938 -159.858398438 112.069335938 -138.45703125 c 0
 112.069335938 -135.46875 112.225585938 -132.420898438 112.552734375 -129.310546875 c 0
 112.553710938 -112.8125 116.090820312 -99.5712890625 122.325195312 -88.7724609375 c 2
 157.325195312 -28.1513671875 l 2
 180.155273438 11.3916015625 240.770507812 18.591796875 293.03125 32.1015625 c 1
 293.344726562 61.9091796875 l 1
 287.05859375 61.4150390625 280.616210938 61.25390625 274.15234375 61.25390625 c 0
250.165039062 -175.673828125 m 0
 256.623046875 -175.673828125 262.500976562 -173.953125 267.809570312 -171.014648438 c 1
 272.552734375 -157.310546875 l 1
 277.56640625 -126.647460938 283.287109375 -96.69140625 286.4921875 -64.2197265625 c 1
 254.6171875 -71.6484375 222.689453125 -78.685546875 199.646484375 -93.26953125 c 0
 199.55859375 -95.0361328125 199.514648438 -96.841796875 199.514648438 -98.689453125 c 0
 199.1875 -101.798828125 199.03125 -104.846679688 199.03125 -107.8359375 c 0
 199.03125 -129.236328125 207.038085938 -147.645507812 217.514648438 -164.689453125 c 0
 218.465820312 -168.278320312 219.788085938 -171.6171875 221.430664062 -174.708984375 c 0
 224.736328125 -175.048828125 228.068359375 -175.217773438 231.390625 -175.217773438 c 0
 234.80078125 -175.217773438 238.201171875 -175.040039062 241.552734375 -174.689453125 c 0
 244.530273438 -175.359375 247.401367188 -175.673828125 250.165039062 -175.673828125 c 0
257.19140625 151.875 m 0
 270.004882812 151.875 282.736328125 152.509765625 294.326171875 155.110351562 c 1
 294.552734375 176.689453125 l 1
 288.552734375 306.689453125 l 2
 288.552734375 306.689453125 273.20703125 347.19140625 261.446289062 366.10546875 c 1
 254.615234375 367.647460938 247.916015625 368.380859375 241.365234375 368.380859375 c 0
 207.124023438 368.380859375 176.944335938 348.334960938 153.25 318.8671875 c 1
 140.544921875 287.7578125 133.46875 254.466796875 133.46875 225.341796875 c 0
 133.46875 223.989257812 133.484375 222.645507812 133.514648438 221.310546875 c 0
 133.514648438 186.712890625 135.399414062 162.646484375 141.3984375 146.375 c 0
 142.041015625 146.3671875 142.689453125 146.364257812 143.345703125 146.364257812 c 0
 158.345703125 146.364257812 176.831054688 148.321289062 199.552734375 151.310546875 c 0
 206.22265625 152.188476562 213.557617188 152.450195312 221.275390625 152.450195312 c 0
 233.0234375 152.450195312 245.278320312 151.875 257.19140625 151.875 c 0
EndSplineSet
EndChar
StartChar: h
Encoding: 104 104 71
Width: 667
Flags: HW
LayerCount: 2
Fore
SplineSet
419.744140625 114.393554688 m 0
 419.744140625 141.762695312 421.616210938 168.961914062 421.616210938 193.98046875 c 0
 421.616210938 208.068359375 420.903320312 221.008789062 420.758789062 235.803710938 c 0
 420.315429688 281.369140625 419.82421875 331.72265625 396.325195312 365.833984375 c 1
 374.569335938 358.865234375 351.75390625 333.606445312 335.013671875 313.146484375 c 1
 328.258789062 293.8671875 323.100585938 275.532226562 313.411132812 257.310546875 c 1
 310.654296875 243.49609375 300.2421875 231.120117188 300.2421875 215.370117188 c 0
 300.2421875 212.475585938 300.59375 209.465820312 301.411132812 206.310546875 c 1
 283.411132812 113.310546875 l 1
 274.392578125 11.3046875 l 2
 273.431640625 0.4130859375 269.030273438 -11.4619140625 261.227539062 -22.2734375 c 0
 248.930664062 -39.30859375 231.465820312 -49.158203125 216.392578125 -49.158203125 c 0
 198.619140625 -49.158203125 188.357421875 -35.6494140625 187.44921875 -19.310546875 c 2
 181.44921875 88.689453125 l 1
 172.44921875 166.689453125 l 1
 172.44921875 185.921875 l 1
 131.799804688 123.018554688 77.005859375 71.6474609375 5.4111328125 46.2890625 c 1
 -25 132.146484375 l 1
 -11.55078125 136.91015625 l 2
 56.7734375 161.111328125 109.796875 209.000976562 149.828125 267.997070312 c 0
 153.122070312 274.711914062 156.28515625 281.501953125 159.319335938 288.353515625 c 1
 151.040039062 349.142578125 146.134765625 413.305664062 139.44921875 475.689453125 c 2
 121.44921875 625.689453125 l 1
 115.44921875 742.689453125 l 1
 121.44921875 805.689453125 l 1
 124.467773438 811.720703125 l 2
 141.467773438 845.720703125 156.819335938 872.310546875 159.44921875 872.310546875 c 0
 164.2578125 872.310546875 168.313476562 871.173828125 171.772460938 869.17578125 c 2
 223.734375 839.17578125 l 2
 236.115234375 832.028320312 240.857421875 813.8671875 245.150390625 797.428710938 c 0
 247.603515625 788.034179688 249.91015625 779.203125 253.411132812 773.310546875 c 1
 262.170898438 715.071289062 270.998046875 656.8984375 280.411132812 599.310546875 c 1
 283.411132812 428.310546875 l 1
 274.240234375 391.515625 261.981445312 354.426757812 246.28125 318.975585938 c 1
 250.241210938 288.615234375 l 1
 253.654296875 297.849609375 257.46875 306.821289062 262.359375 315.29296875 c 2
 297.359375 375.915039062 l 2
 300.653320312 381.620117188 304.64453125 387.041992188 308.776367188 392.23046875 c 0
 328.013671875 416.393554688 361.384765625 458.310546875 390.44921875 458.310546875 c 0
 395.216796875 456.462890625 399.6328125 454.346679688 403.723632812 451.984375 c 2
 455.685546875 421.984375 l 2
 506.491210938 392.65234375 507.14453125 325.512695312 507.720703125 266.42578125 c 0
 507.864257812 251.657226562 508.578125 238.657226562 508.578125 224.602539062 c 0
 508.578125 199.654296875 506.706054688 172.32421875 506.706054688 145.014648438 c 0
 506.706054688 110.626953125 509.060546875 74.73828125 519.05078125 49.7958984375 c 0
 522.125 51.021484375 524.663085938 52.1748046875 528.44921875 53.310546875 c 1
 560.485351562 96.025390625 l 1
 580.686523438 135.75390625 l 1
 637.411132812 106.91015625 l 1
 625.494140625 83.455078125 l 2
 611.334960938 55.6083984375 598.7421875 33.796875 590.411132812 22.689453125 c 2
 545.411132812 -37.310546875 l 1
 538.127929688 -39.4951171875 533.2109375 -43.310546875 524.411132812 -43.310546875 c 0
 517.122070312 -43.310546875 510.813476562 -41.5869140625 505.358398438 -38.4375 c 2
 453.396484375 -8.4375 l 2
 425.034179688 7.9375 419.744140625 62.8505859375 419.744140625 114.393554688 c 0
EndSplineSet
EndChar
StartChar: i
Encoding: 105 105 72
Width: 342
Flags: HW
LayerCount: 2
Fore
SplineSet
143.961914062 484.689453125 m 0
 142.282226562 484.689453125 133.95703125 486.692382812 133.95703125 486.692382812 c 1
 104.426757812 493.790039062 81.875 506.40234375 81.875 515.538085938 c 0
 81.875 515.928710938 81.9169921875 516.3125 82 516.689453125 c 0
 83.0244140625 521.314453125 84.3896484375 526.630859375 86.8564453125 530.903320312 c 2
 121.856445312 591.525390625 l 2
 122.213867188 592.143554688 122.59375 592.741210938 123 593.310546875 c 2
 139.131835938 581.821289062 l 1
 148.791992188 591.48046875 l 1
 160.181640625 580.090820312 171.571289062 568.701171875 182.961914062 557.310546875 c 0
 182.153320312 554.076171875 181.971679688 549.1796875 180.40625 546.467773438 c 2
 145.40625 485.846679688 l 2
 144.993164062 485.130859375 144.514648438 484.689453125 143.961914062 484.689453125 c 0
125.948242188 572.14453125 m 1
 121.157226562 563.845703125 l 1
 128.171875 570.861328125 l 1
 125.948242188 572.14453125 l 1
-4.0380859375 50.689453125 m 0
 -11.025390625 50.689453125 -18.0126953125 50.689453125 -25 50.689453125 c 1
 -25 141.310546875 l 1
 -21 141.310546875 l 1
 4.9912109375 143.139648438 26.189453125 151.947265625 43.5302734375 165.619140625 c 1
 40 232.689453125 l 1
 44 326.689453125 l 1
 51.904296875 380.5234375 l 2
 55.0703125 401.891601562 66.6474609375 422.64453125 84.4912109375 439.06640625 c 1
 94.3291015625 456.10546875 l 2
 96.1357421875 459.234375 99.986328125 461.310546875 111 461.310546875 c 0
 112.93359375 461.310546875 114.623046875 460.841796875 116.098632812 459.990234375 c 2
 168.059570312 429.990234375 l 2
 175.990234375 425.412109375 177.720703125 409.763671875 177.720703125 396.349609375 c 0
 177.720703125 389.495117188 177.268554688 383.224609375 176.961914062 379.310546875 c 0
 172.350585938 320.59765625 164.53125 238.416015625 132.362304688 180.5078125 c 1
 144.961914062 119.310546875 l 1
 149.345703125 91.76953125 167.662109375 69.92578125 189.719726562 50.404296875 c 0
 195.889648438 48.458984375 201.790039062 47.310546875 207 47.310546875 c 0
 209.93359375 47.310546875 213.00390625 49.16796875 216.05078125 51.8154296875 c 1
 248.553710938 133.07421875 l 1
 312.961914062 107.310546875 l 1
 303.783203125 83.150390625 293.381835938 60.2119140625 282.955078125 37.30078125 c 0
 269.165039062 6.6552734375 255.798828125 -16.49609375 247.961914062 -23.310546875 c 0
 241.61328125 -28.8310546875 232.051757812 -43.310546875 223.961914062 -43.310546875 c 0
 211.271484375 -43.310546875 194.478515625 -36.49609375 179.69140625 -27.958984375 c 2
 127.73046875 2.041015625 l 2
 118.564453125 7.3330078125 110.168945312 13.287109375 104 18.689453125 c 0
 85.0283203125 35.3017578125 68.65234375 53.56640625 61.234375 75.587890625 c 1
 43.7578125 61.5791015625 22.3251953125 52.5439453125 -4.0380859375 50.689453125 c 0
EndSplineSet
EndChar
StartChar: j
Encoding: 106 106 73
Width: 227
Flags: HW
LayerCount: 2
Fore
SplineSet
110.989257812 558.606445312 m 0
 128.516601562 558.606445312 142.74609375 544.376953125 142.74609375 526.850585938 c 0
 142.74609375 520.809570312 141.055664062 515.16015625 138.122070312 510.349609375 c 1
 142.35546875 504 l 1
 142.35546875 500 l 2
 142.35546875 498.548828125 141.567382812 497.171875 140.499023438 496.103515625 c 2
 105.143554688 460.748046875 l 2
 103.873046875 459.477539062 102.20703125 458.64453125 101 458.64453125 c 0
 98.765625 458.64453125 92.2490234375 460.571289062 89.876953125 462.943359375 c 2
 54.521484375 498.298828125 l 2
 53.9716796875 498.84765625 53.64453125 499.420898438 53.64453125 500 c 0
 56.7431640625 505.817382812 53.9248046875 513.184570312 58.65625 517.916015625 c 2
 61.2001953125 520.459960938 l 1
 59.6064453125 524.080078125 58.7216796875 528.08203125 58.7216796875 532.288085938 c 0
 58.7216796875 548.524414062 71.9033203125 561.705078125 88.138671875 561.705078125 c 0
 93.60546875 561.705078125 98.7255859375 560.2109375 103.107421875 557.618164062 c 0
 105.627929688 558.263671875 108.26953125 558.606445312 110.989257812 558.606445312 c 0
134.197265625 360.537109375 m 0
 134.197265625 352.169921875 134.822265625 343.821289062 134.822265625 335.444335938 c 0
 134.822265625 295.3359375 128.234375 255.1015625 113.819335938 219.063476562 c 1
 119.715820312 172.8125 129.870117188 126.216796875 138.625976562 80.9912109375 c 1
 139.270507812 82.96875 139.64453125 84.68359375 139.64453125 86 c 2
 139.64453125 100 l 2
 139.64453125 107.5390625 142.118164062 114.833007812 147.22265625 120.616210938 c 0
 153.3125 127.514648438 162.000976562 130.962890625 171.12109375 130.962890625 c 0
 180.241210938 130.962890625 189.791992188 127.514648438 197.60546875 120.616210938 c 0
 206.78125 112.515625 209.29296875 104.142578125 212.35546875 92 c 0
 213.022460938 89.33203125 213.376953125 86.5400390625 213.376953125 83.666015625 c 0
 213.376953125 70.7265625 206.196289062 59.4501953125 195.60546875 53.609375 c 0
 194.587890625 51.85546875 193.177734375 49.451171875 192.35546875 48 c 0
 181.268554688 28.42578125 166.6796875 10.4326171875 153.038085938 -7.5107421875 c 1
 159.000976562 -55.8759765625 164.35546875 -105.102539062 164.35546875 -154 c 0
 164.35546875 -162.530273438 159.498046875 -202.009765625 148.411132812 -213.09765625 c 2
 113.055664062 -248.452148438 l 2
 111.211914062 -250.296875 109.1953125 -251.35546875 107 -251.35546875 c 0
 92.9580078125 -249.306640625 79.533203125 -243.682617188 70.744140625 -234.893554688 c 2
 35.388671875 -199.5390625 l 2
 29.044921875 -193.194335938 25.1162109375 -185.201171875 25.1162109375 -175.713867188 c 0
 25.1162109375 -171.44140625 25.9130859375 -166.865234375 27.64453125 -162 c 1
 27.4228515625 -158.909179688 27.3173828125 -155.810546875 27.3173828125 -152.708984375 c 0
 27.3173828125 -130.389648438 32.7841796875 -107.963867188 39.64453125 -88 c 0
 46.408203125 -56.916015625 63.810546875 -31.8662109375 82.3271484375 -7.5107421875 c 1
 76.298828125 41.380859375 66.201171875 89.08203125 57.0166015625 136.236328125 c 1
 31.150390625 110.370117188 l 2
 9.9833984375 89.203125 -16.5361328125 72.6083984375 -49 62.64453125 c 0
 -52.1357421875 61.6689453125 -55.4658203125 61.150390625 -58.9169921875 61.150390625 c 0
 -77.5703125 61.150390625 -92.7158203125 76.294921875 -92.7158203125 94.94921875 c 0
 -92.7158203125 110.153320312 -82.6552734375 123.025390625 -68.8349609375 127.267578125 c 2
 -49 133.35546875 l 2
 -25.470703125 140.577148438 -5.0634765625 151.282226562 12.4462890625 164.686523438 c 1
 25.1142578125 181.108398438 35.2685546875 199.465820312 43.1083984375 219.063476562 c 1
 39.931640625 243.98046875 37.9404296875 269.055664062 37.9404296875 294.428710938 c 0
 37.9404296875 307.533203125 38.4716796875 320.716796875 39.64453125 334 c 0
 40.041015625 337.379882812 40.19140625 340.815429688 40.19140625 344.278320312 c 0
 40.19140625 355.056640625 38.701171875 366.223632812 38.701171875 376.930664062 c 0
 38.701171875 389.66796875 40.8603515625 401.548828125 50.376953125 411.065429688 c 2
 85.732421875 446.420898438 l 2
 86.7373046875 447.42578125 87.82421875 448.404296875 89 449.35546875 c 0
 90.5126953125 449.35546875 95.615234375 446.059570312 98.658203125 443.016601562 c 2
 134.013671875 407.661132812 l 2
 135.397460938 406.27734375 136.35546875 404.9453125 136.35546875 404 c 0
 136.35546875 389.359375 134.197265625 375.154296875 134.197265625 360.537109375 c 0
EndSplineSet
EndChar
StartChar: k
Encoding: 107 107 74
Width: 515
Flags: HW
LayerCount: 2
Fore
SplineSet
90.8779296875 471.342773438 m 1
 78.974609375 533.864257812 62.064453125 608.612304688 62.064453125 669.690429688 c 0
 62.064453125 705.346679688 67.5712890625 737.649414062 82.5302734375 763.557617188 c 2
 117.530273438 824.1796875 l 2
 118.935546875 826.614257812 120.423828125 828.9921875 122 831.310546875 c 0
 122.415039062 831.310546875 122.810546875 831.198242188 123.189453125 830.979492188 c 2
 175.151367188 800.979492188 l 2
 181.43359375 797.352539062 182.821289062 764.583984375 182.821289062 734.830078125 c 0
 182.821289062 713.665039062 181.953125 699.91796875 181.953125 685.791992188 c 0
 181.953125 685.573242188 181.956054688 685.412109375 181.961914062 685.310546875 c 0
 183.267578125 663.09765625 183.916992188 640.92578125 183.916992188 618.817382812 c 0
 183.916992188 579.626953125 181.876953125 540.635742188 177.838867188 501.96484375 c 1
 185.634765625 461.014648438 191.961914062 422.215820312 191.961914062 389.310546875 c 0
 191.961914062 384.749023438 191.998046875 380.205078125 192.067382812 375.67578125 c 1
 220.458984375 414.161132812 263.721679688 447.310546875 300 447.310546875 c 0
 308.111328125 445.090820312 315.393554688 442.03515625 321.912109375 438.271484375 c 2
 373.874023438 408.271484375 l 2
 409.997070312 387.416015625 422.637695312 344.838867188 422.637695312 302.532226562 c 0
 422.637695312 296.767578125 422.403320312 291.008789062 421.961914062 285.310546875 c 1
 422.7109375 280.02734375 423.073242188 274.797851562 423.073242188 269.650390625 c 0
 423.073242188 250.29296875 417.9453125 232.094726562 408.967773438 216.545898438 c 2
 373.967773438 155.923828125 l 2
 356.822265625 126.227539062 325.638671875 106.19140625 289.333984375 106.19140625 c 0
 282.576171875 106.19140625 275.639648438 106.885742188 268.583984375 108.341796875 c 1
 275.227539062 94.5498046875 280.774414062 83.64453125 283.961914062 79.310546875 c 0
 287.83203125 69.2158203125 293.059570312 60.5703125 299.455078125 53.2216796875 c 1
 315.350585938 49.1005859375 333.091796875 47.310546875 352 47.310546875 c 0
 372.337890625 47.310546875 384.86328125 58.2802734375 394.895507812 72.48046875 c 1
 428.640625 139.970703125 l 1
 485.961914062 111.310546875 l 1
 472.124023438 83.5927734375 l 2
 459.161132812 57.6669921875 447 36.603515625 436.961914062 22.689453125 c 0
 419.056640625 -2.1279296875 407.942382812 -43.310546875 368.961914062 -43.310546875 c 0
 337.181640625 -43.310546875 308.700195312 -38.2548828125 286.733398438 -25.572265625 c 2
 234.772460938 4.427734375 l 2
 223.782226562 10.7724609375 214.422851562 19.0263671875 207.09765625 29.5107421875 c 1
 206.653320312 21.3955078125 206.009765625 16.86328125 205.305664062 15.6435546875 c 2
 170.305664062 -44.978515625 l 2
 170.174804688 -45.2041015625 170.041992188 -45.31640625 169.908203125 -45.31640625 c 0
 169.861328125 -45.31640625 169.814453125 -45.3037109375 169.767578125 -45.2763671875 c 2
 117.806640625 -15.2763671875 l 2
 115.982421875 -14.2236328125 113.989257812 7.2802734375 113.989257812 44.94140625 c 0
 113.989257812 69.7705078125 114.85546875 101.622070312 117.208984375 139.266601562 c 0
 116.709960938 148.7421875 116.149414062 158.688476562 115.5234375 169.118164062 c 0
 113.892578125 172.6171875 113 176.465820312 113 180.689453125 c 0
 113 185.352539062 113.326171875 189.893554688 113.946289062 194.254882812 c 0
 113.338867188 203.541015625 112.68359375 213.1640625 111.9765625 223.130859375 c 1
 97.4375 184.435546875 80.7490234375 146.4453125 61.9619140625 109.310546875 c 1
 62.7919921875 106.8203125 63.6220703125 104.330078125 64.4521484375 101.83984375 c 1
 -23 72.689453125 l 1
 -25 78.689453125 l 1
 37.365234375 201.958984375 76.6044921875 334.647460938 90.8779296875 471.342773438 c 1
335.676757812 271.91015625 m 0
 335.676757812 302.788085938 328.943359375 333.809570312 311.260742188 356.424804688 c 1
 279.782226562 353.557617188 244.056640625 327.671875 217.603515625 295.97265625 c 0
 215.815429688 290.240234375 214.576171875 284.654296875 213.961914062 279.310546875 c 0
 211.380859375 256.888671875 209.266601562 235.555664062 207.548828125 215.450195312 c 1
 215.225585938 211.018554688 l 2
 217.268554688 209.838867188 220.352539062 205.493164062 224.115234375 199.043945312 c 1
 228.109375 198.805664062 232.00390625 198.693359375 235.721679688 198.693359375 c 0
 240.892578125 198.693359375 245.721679688 198.911132812 250 199.310546875 c 0
 257.615234375 197.618164062 265.096679688 196.813476562 272.372070312 196.813476562 c 0
 296.018554688 196.813476562 317.4921875 205.3125 334.329101562 219.4453125 c 1
 335.5 225.793945312 336.112304688 232.341796875 336.112304688 239.028320312 c 0
 336.112304688 244.17578125 335.749023438 249.405273438 335 254.689453125 c 0
 335.44140625 260.387695312 335.676757812 266.146484375 335.676757812 271.91015625 c 0
EndSplineSet
EndChar
StartChar: l
Encoding: 108 108 75
Width: 246
Flags: HW
LayerCount: 2
Fore
SplineSet
48.833984375 242.174804688 m 1
 39.142578125 312.69140625 34.4150390625 363.923828125 34.4150390625 436.775390625 c 0
 34.4150390625 529.279296875 43.46484375 621.805664062 56.64453125 711 c 0
 61.794921875 751.42578125 64.912109375 793.7890625 86.6884765625 825.043945312 c 0
 101.18359375 845.848632812 115.690429688 860.35546875 122 860.35546875 c 0
 127.365234375 860.35546875 131.918945312 858.196289062 135.779296875 854.336914062 c 2
 171.133789062 818.981445312 l 2
 188.3359375 801.780273438 191.747070312 750.796875 191.747070312 706.606445312 c 0
 191.747070312 681.138671875 190.2734375 660.9921875 190.2734375 639.798828125 c 0
 190.2734375 638.278320312 190.298828125 637.00390625 190.35546875 636 c 0
 191.509765625 615.534179688 192.13671875 594.751953125 192.13671875 573.811523438 c 0
 192.13671875 459.443359375 173.418945312 340.333984375 119.543945312 242.174804688 c 1
 128.310546875 178.388671875 144.6875 79.17578125 167.5859375 26.5625 c 0
 171.5859375 27.0068359375 175.461914062 28.1484375 179.209960938 29.8681640625 c 0
 193.477539062 51.9482421875 201.189453125 72.013671875 210.64453125 91.599609375 c 2
 224.009765625 119.284179688 l 2
 229.157226562 129.947265625 240.076171875 137.310546875 252.700195312 137.310546875 c 0
 270.2734375 137.310546875 284.540039062 123.043945312 284.540039062 105.471679688 c 0
 284.540039062 95.3349609375 280.041015625 88.8916015625 276.404296875 80.8759765625 c 0
 267.006835938 60.166015625 252.02734375 27.1533203125 232.30078125 7.4267578125 c 2
 196.9453125 -27.9287109375 l 2
 187.109375 -37.7646484375 176.092773438 -44.296875 163.9296875 -44.35546875 c 0
 158.958007812 -44.35546875 154.17578125 -41.8359375 149.58984375 -37.25 c 2
 114.234375 -1.89453125 l 2
 91.779296875 20.560546875 74.021484375 92.548828125 61.669921875 160.780273438 c 1
 57.7548828125 156.497070312 53.734375 152.290039062 49.60546875 148.161132812 c 2
 14.25 112.806640625 l 2
 6.310546875 104.866210938 -2.02734375 97.21875 -10.7802734375 89.88671875 c 1
 -12.3583984375 71.8291015625 -27.5361328125 57.64453125 -46 57.64453125 c 0
 -65.5126953125 57.64453125 -81.35546875 73.4873046875 -81.35546875 93 c 2
 -81.35546875 99 l 2
 -81.35546875 106.090820312 -66.94140625 120.504882812 -46.04296875 134.311523438 c 0
 -31.0322265625 144.229492188 -17.0146484375 154.978515625 -3.962890625 166.444335938 c 0
 16.525390625 189.745117188 34.0107421875 215.166992188 48.833984375 242.174804688 c 1
119.563476562 639.798828125 m 0
 119.563476562 643.936523438 119.748046875 649.893554688 119.98828125 657.155273438 c 1
 110.919921875 584.827148438 105.125 510.793945312 105.125 436.775390625 c 0
 105.125 425.4921875 105.259765625 414.208984375 105.538085938 402.932617188 c 1
 116.802734375 458.959960938 121.426757812 516.971679688 121.426757812 573.811523438 c 0
 121.426757812 594.751953125 120.798828125 615.534179688 119.64453125 636 c 0
 119.587890625 637.00390625 119.563476562 638.278320312 119.563476562 639.798828125 c 0
EndSplineSet
EndChar
StartChar: m
Encoding: 109 109 76
Width: 643
Flags: HW
LayerCount: 2
Fore
SplineSet
224.322265625 170.953125 m 0
 224.322265625 155.655273438 224.997070312 141.462890625 224.997070312 123.3828125 c 0
 224.997070312 78.97265625 221.8671875 20.61328125 202.120117188 0.8671875 c 2
 166.765625 -34.48828125 l 2
 162.37890625 -38.8740234375 157.173828125 -41.35546875 151 -41.35546875 c 0
 137.999023438 -41.35546875 123.670898438 -27.0263671875 115.6875 -6.0419921875 c 0
 108.296875 13.3828125 106.362304688 38.80078125 105.64453125 62 c 0
 105.364257812 65.3857421875 105.233398438 68.7275390625 105.233398438 72.033203125 c 0
 105.233398438 114.717773438 126.748046875 151.092773438 129.64453125 192 c 1
 136.944335938 217.091796875 139.500976562 243.633789062 149.057617188 266.737304688 c 1
 146.861328125 281.4765625 143.80078125 295.958007812 139.64453125 310 c 0
 133.96875 327.741210938 133.280273438 347.443359375 123.64453125 362 c 0
 122.435546875 364.23046875 121.237304688 366.599609375 120.01953125 369.041992188 c 0
 119.104492188 368.80859375 118.125976562 368.64453125 117 368.64453125 c 2
 107.334960938 368.64453125 l 1
 102.599609375 360.369140625 96.82421875 348.775390625 92.35546875 342 c 0
 51.298828125 279.75 19.142578125 211.100585938 0.35546875 140 c 0
 -6.5927734375 123.720703125 -7.97265625 107.639648438 -11.64453125 90 c 1
 -11.64453125 86 l 2
 -11.64453125 66.4873046875 -27.4873046875 50.64453125 -47 50.64453125 c 0
 -66.5126953125 50.64453125 -82.35546875 66.4873046875 -82.35546875 86 c 2
 -82.35546875 90 l 1
 -78.68359375 107.63671875 -77.3037109375 123.720703125 -70.35546875 140 c 0
 -51.568359375 211.100585938 -19.4111328125 279.75 21.64453125 342 c 0
 23.8681640625 345.370117188 26.5830078125 350.374023438 29.69140625 356.102539062 c 0
 36.7001953125 369.020507812 45.7099609375 385.624023438 55.5908203125 395.504882812 c 2
 90.9453125 430.860351562 l 2
 96.11328125 436.02734375 101.518554688 439.35546875 107 439.35546875 c 2
 117 439.35546875 l 2
 120.93359375 439.35546875 123.069335938 441.35546875 127 441.35546875 c 0
 130.654296875 439.565429688 133.869140625 437.124023438 136.749023438 434.244140625 c 2
 172.104492188 398.888671875 l 2
 182.095703125 388.896484375 187.51953125 374.606445312 194.35546875 362 c 0
 196.955078125 358.072265625 198.91015625 353.756835938 200.487304688 349.20703125 c 1
 210.29296875 363.219726562 219.86328125 379.127929688 231.69921875 390.963867188 c 2
 267.0546875 426.319335938 l 2
 275.92578125 435.190429688 285.77734375 441.35546875 297 441.35546875 c 0
 305.270507812 438.767578125 312.944335938 433.721679688 319.561523438 427.104492188 c 2
 354.916992188 391.749023438 l 2
 356.00390625 390.663085938 357.061523438 389.534179688 358.088867188 388.3671875 c 1
 359.931640625 390.671875 361.8515625 392.879882812 363.915039062 394.943359375 c 2
 399.270507812 430.298828125 l 2
 408.112304688 439.141601562 419.6015625 445.35546875 439 445.35546875 c 0
 443.989257812 445.35546875 448.30078125 443.012695312 452.08984375 439.22265625 c 2
 487.4453125 403.8671875 l 2
 495.580078125 395.733398438 501.310546875 380.93359375 506.1875 368.337890625 c 0
 509.10546875 360.803710938 511.716796875 354.05859375 514.35546875 350 c 1
 522.33984375 264.556640625 525.81640625 174.504882812 530.35546875 86 c 1
 531.932617188 35.5361328125 l 1
 532.622070312 35.5791015625 533.287109375 35.6298828125 533.930664062 35.689453125 c 2
 543.64453125 56 l 1
 550.883789062 76.6826171875 558.122070312 97.365234375 565.361328125 118.047851562 c 0
 569.916015625 131.060546875 582.309570312 140.403320312 596.868164062 140.403320312 c 0
 615.286132812 140.403320312 630.23828125 125.451171875 630.23828125 107.033203125 c 0
 630.23828125 103.174804688 629.58203125 99.4677734375 628.35546875 96 c 2
 614.35546875 56 l 1
 592.440429688 10.0849609375 l 2
 587.352539062 -0.5537109375 574.635742188 -13.2705078125 557 -25.35546875 c 0
 545.560546875 -33.1943359375 540.802734375 -35.3642578125 525.846679688 -35.3642578125 c 0
 516.616210938 -35.3642578125 508.694335938 -33.525390625 503.450195312 -28.28125 c 2
 468.095703125 7.07421875 l 2
 464.694335938 10.474609375 462.419921875 15.3076171875 461.64453125 22 c 0
 459.578125 108.515625 454.166015625 191.608398438 449.64453125 276 c 1
 443.64453125 350 l 1
 440.389648438 355.0078125 436.272460938 366.4296875 433.094726562 374.439453125 c 1
 426.451171875 373.962890625 420.833984375 372.671875 415.967773438 370.752929688 c 0
 410.744140625 363.689453125 404.254882812 357.079101562 397.97265625 350.796875 c 1
 393.366210938 336.1484375 388.594726562 321.665039062 384.090820312 306.9140625 c 0
 384.258789062 305.295898438 384.35546875 303.659179688 384.35546875 302 c 0
 389.59765625 286.204101562 390.790039062 269.64453125 390.790039062 252.936523438 c 0
 390.790039062 239.05859375 389.959960938 225.020507812 389.959960938 211.17578125 c 0
 389.959960938 197.0546875 390.831054688 183.201171875 394.35546875 170 c 0
 396.161132812 163.237304688 398.727539062 123.291992188 398.727539062 82.9541015625 c 0
 398.727539062 42.6806640625 396.168945312 2.015625 387.740234375 -6.4130859375 c 2
 352.384765625 -41.7685546875 l 2
 351.34765625 -42.806640625 350.221679688 -43.35546875 349 -43.35546875 c 0
 346.540039062 -42.4462890625 344.59375 -41.111328125 342.9765625 -39.494140625 c 2
 307.62109375 -4.138671875 l 2
 302.186523438 1.294921875 300.41015625 9.8486328125 295.64453125 16 c 0
 289.784179688 23.5654296875 284.751953125 37.158203125 281.64453125 46 c 1
 283.64453125 176 l 1
 292.3203125 220.874023438 302.713867188 264.030273438 313.380859375 306.9140625 c 1
 312.305664062 317.25390625 307.904296875 327.41796875 307.64453125 338 c 0
 307.3828125 348.6640625 304.489257812 359.678710938 299.651367188 369.723632812 c 0
 298.775390625 370.05859375 297.890625 370.366210938 297 370.64453125 c 0
 292.39453125 370.64453125 288.020507812 369.606445312 283.850585938 367.76953125 c 0
 277.602539062 358.7578125 270.577148438 347.693359375 264.35546875 340 c 0
 248.450195312 320.33203125 237.561523438 301.290039062 226.35546875 280 c 0
 223.819335938 275.731445312 221.655273438 271.299804688 219.767578125 266.737304688 c 0
 223.329101562 242.83984375 224.6171875 218.262695312 224.6171875 193.76953125 c 0
 224.6171875 186.127929688 224.322265625 178.588867188 224.322265625 170.953125 c 0
EndSplineSet
EndChar
